STARTFONT 2.1
FONT -HP-Sung-Medium-R-Normal--18-180-75-75-C-160-CNS11643.1992-1
SIZE 18 75 75
FONTBOUNDINGBOX 16 18 0 -2

STARTPROPERTIES 23
FONTNAME_REGISTRY ""
FOUNDRY "HP"
FAMILY_NAME "Sung"
WEIGHT_NAME "Medium"
SLANT "R"
SETWIDTH_NAME "Normal"
ADD_STYLE_NAME ""
PIXEL_SIZE 18
POINT_SIZE 180
RESOLUTION_X 75
RESOLUTION_Y 75
SPACING "C"
AVERAGE_WIDTH 160
CHARSET_REGISTRY "CNS11643.1992"
CHARSET_ENCODING "1"
COPYRIGHT "Copyright (c) 1994 Hewlett-Packard Company."
_HP_ASXVERSION "@(#) ASX 3.00 $Revision: 13.9 $ sung18n1"
WEIGHT 10
X_HEIGHT 0
QUAD_WIDTH 16
DEFAULT_CHAR 9039
FONT_DESCENT 2
FONT_ASCENT 16
ENDPROPERTIES

CHARS 6086

STARTCHAR cns1_2121
ENCODING 8481
SWIDTH 854 0
DWIDTH 16 0
BBX 16 18 0 -2
BITMAP
0000
0000
0000
0000
0000
0000
0000
0000
0000
0000
0000
0000
0000
0000
0000
0000
0000
0000
ENDCHAR

STARTCHAR cns1_2122
ENCODING 8482
SWIDTH 854 0
DWIDTH 16 0
BBX 16 18 0 -2
BITMAP
0000
0000
0000
0000
0000
0000
0000
0000
0000
0000
0000
0000
0000
6000
6000
2000
4000
0000
ENDCHAR

STARTCHAR cns1_2123
ENCODING 8483
SWIDTH 854 0
DWIDTH 16 0
BBX 16 18 0 -2
BITMAP
0000
0000
0000
0000
0000
0000
0000
0700
0180
00E0
0070
0078
0030
0000
0000
0000
0000
0000
ENDCHAR

STARTCHAR cns1_2124
ENCODING 8484
SWIDTH 854 0
DWIDTH 16 0
BBX 16 18 0 -2
BITMAP
0000
0000
0000
0000
0000
0000
00C0
0120
0210
0210
0120
00C0
0000
0000
0000
0000
0000
0000
ENDCHAR

STARTCHAR cns1_2125
ENCODING 8485
SWIDTH 854 0
DWIDTH 16 0
BBX 16 18 0 -2
BITMAP
0000
0000
0000
0000
0000
0000
0000
0000
0000
0000
0000
0000
0000
0000
6000
6000
0000
0000
ENDCHAR

STARTCHAR cns1_2126
ENCODING 8486
SWIDTH 854 0
DWIDTH 16 0
BBX 16 18 0 -2
BITMAP
0000
0000
0000
0000
0000
0000
0000
0000
0180
0380
0180
0000
0000
0000
0000
0000
0000
0000
ENDCHAR

STARTCHAR cns1_2127
ENCODING 8487
SWIDTH 854 0
DWIDTH 16 0
BBX 16 18 0 -2
BITMAP
0000
0000
0000
0000
0000
0000
0180
0180
0000
0000
0000
0000
0000
0180
0180
0080
0100
0000
ENDCHAR

STARTCHAR cns1_2128
ENCODING 8488
SWIDTH 854 0
DWIDTH 16 0
BBX 16 18 0 -2
BITMAP
0000
0000
0000
0000
0000
0000
0180
0180
0000
0000
0000
0000
0000
0180
0180
0000
0000
0000
ENDCHAR

STARTCHAR cns1_2129
ENCODING 8489
SWIDTH 854 0
DWIDTH 16 0
BBX 16 18 0 -2
BITMAP
0000
0000
03E0
0410
0808
0808
0808
0010
0020
0040
0080
0080
0080
0000
0080
01C0
0080
0000
ENDCHAR

STARTCHAR cns1_212A
ENCODING 8490
SWIDTH 854 0
DWIDTH 16 0
BBX 16 18 0 -2
BITMAP
0000
0080
01C0
01C0
01C0
01C0
01C0
01C0
0080
0080
0080
0080
0000
0000
0080
01C0
0080
0000
ENDCHAR

STARTCHAR cns1_212B
ENCODING 8491
SWIDTH 854 0
DWIDTH 16 0
BBX 16 18 0 -2
BITMAP
0000
0000
0000
0000
0000
00C0
01E0
00C0
0000
0000
00C0
01E0
00C0
0000
0000
0000
0000
0000
ENDCHAR

STARTCHAR cns1_212C
ENCODING 8492
SWIDTH 854 0
DWIDTH 16 0
BBX 16 18 0 -2
BITMAP
0000
0000
0000
0000
0000
0000
18C6
3DEF
18C6
0000
0000
0000
0000
0000
0000
0000
0000
0000
ENDCHAR

STARTCHAR cns1_212D
ENCODING 8493
SWIDTH 854 0
DWIDTH 16 0
BBX 16 18 0 -2
BITMAP
0000
0000
0000
0000
0000
0000
060C
0F1E
060C
0000
0000
0000
0000
0000
0000
0000
0000
0000
ENDCHAR

STARTCHAR cns1_212E
ENCODING 8494
SWIDTH 854 0
DWIDTH 16 0
BBX 16 18 0 -2
BITMAP
0000
0000
0000
0000
0000
0000
0000
0000
0000
0000
0000
0000
0C00
1E00
1E00
0E00
3C00
0000
ENDCHAR

STARTCHAR cns1_212F
ENCODING 8495
SWIDTH 854 0
DWIDTH 16 0
BBX 16 18 0 -2
BITMAP
0000
0000
0000
0000
0000
0000
0000
0000
0000
0000
0000
0000
1800
0600
0300
0380
0180
0000
ENDCHAR

STARTCHAR cns1_2130
ENCODING 8496
SWIDTH 854 0
DWIDTH 16 0
BBX 16 18 0 -2
BITMAP
0000
0000
0000
0000
0000
0000
0000
0000
0000
0000
0000
0000
0000
0C00
0C00
0000
0000
0000
ENDCHAR

STARTCHAR cns1_2131
ENCODING 8497
SWIDTH 854 0
DWIDTH 16 0
BBX 16 18 0 -2
BITMAP
0000
0000
0000
0000
0000
0000
1800
3C00
3C00
1800
0000
0000
0000
0000
0000
0000
0000
0000
ENDCHAR

STARTCHAR cns1_2132
ENCODING 8498
SWIDTH 854 0
DWIDTH 16 0
BBX 16 18 0 -2
BITMAP
0000
0000
0000
0000
0000
0000
0180
0180
0000
0000
0000
0000
0000
0180
0180
0080
0100
0000
ENDCHAR

STARTCHAR cns1_2133
ENCODING 8499
SWIDTH 854 0
DWIDTH 16 0
BBX 16 18 0 -2
BITMAP
0000
0000
0000
0000
00C0
01E0
00C0
0000
0000
00C0
01E0
00C0
0000
0000
0000
0000
0000
0000
ENDCHAR

STARTCHAR cns1_2134
ENCODING 8500
SWIDTH 854 0
DWIDTH 16 0
BBX 16 18 0 -2
BITMAP
0000
0000
03C0
0660
0C30
0C30
0660
00C0
00C0
00C0
00C0
0000
00C0
00C0
0000
0000
0000
0000
ENDCHAR

STARTCHAR cns1_2135
ENCODING 8501
SWIDTH 854 0
DWIDTH 16 0
BBX 16 18 0 -2
BITMAP
0000
0000
0000
00C0
00C0
00C0
00C0
00C0
00C0
00C0
00C0
0000
00C0
00C0
0000
0000
0000
0000
ENDCHAR

STARTCHAR cns1_2136
ENCODING 8502
SWIDTH 854 0
DWIDTH 16 0
BBX 16 18 0 -2
BITMAP
0000
0080
0080
0080
0080
0080
0080
0080
0080
0080
0080
0080
0080
0080
0080
0080
0080
0000
ENDCHAR

STARTCHAR cns1_2137
ENCODING 8503
SWIDTH 854 0
DWIDTH 16 0
BBX 16 18 0 -2
BITMAP
0000
0000
0000
0000
0000
0000
0000
0000
1FFC
1FFC
0000
0000
0000
0000
0000
0000
0000
0000
ENDCHAR

STARTCHAR cns1_2138
ENCODING 8504
SWIDTH 854 0
DWIDTH 16 0
BBX 16 18 0 -2
BITMAP
0000
0000
0080
0080
0080
0080
0080
0080
0080
0080
0080
0080
0080
0080
0080
0080
0000
0000
ENDCHAR

STARTCHAR cns1_2139
ENCODING 8505
SWIDTH 854 0
DWIDTH 16 0
BBX 16 18 0 -2
BITMAP
0000
0000
0000
0000
0000
0000
0000
0000
7FFE
0000
0000
0000
0000
0000
0000
0000
0000
0000
ENDCHAR

STARTCHAR cns1_213A
ENCODING 8506
SWIDTH 854 0
DWIDTH 16 0
BBX 16 18 0 -2
BITMAP
0000
0006
0006
0006
0006
0006
0006
0006
0006
0006
0006
0006
0006
0006
0006
0006
0006
0000
ENDCHAR

STARTCHAR cns1_213B
ENCODING 8507
SWIDTH 854 0
DWIDTH 16 0
BBX 16 18 0 -2
BITMAP
0000
7FFF
7FFF
0000
0000
0000
0000
0000
0000
0000
0000
0000
0000
0000
0000
0000
0000
0000
ENDCHAR

STARTCHAR cns1_213C
ENCODING 8508
SWIDTH 854 0
DWIDTH 16 0
BBX 16 18 0 -2
BITMAP
0000
0030
0018
000C
0018
0030
0010
0018
000C
0018
0010
0030
0018
000C
000C
0018
0030
0000
ENDCHAR

STARTCHAR cns1_213D
ENCODING 8509
SWIDTH 854 0
DWIDTH 16 0
BBX 16 18 0 -2
BITMAP
0000
0000
1108
39DE
4E73
4421
0000
0000
0000
0000
0000
0000
0000
0000
0000
0000
0000
0000
ENDCHAR

STARTCHAR cns1_213E
ENCODING 8510
SWIDTH 854 0
DWIDTH 16 0
BBX 16 18 0 -2
BITMAP
0000
0001
0002
0004
0008
0008
0010
0010
0010
0010
0010
0010
0008
0008
0004
0002
0001
0000
ENDCHAR

STARTCHAR cns1_213F
ENCODING 8511
SWIDTH 854 0
DWIDTH 16 0
BBX 16 18 0 -2
BITMAP
0000
4000
2000
1000
0800
0800
0400
0400
0400
0400
0400
0400
0800
0800
1000
2000
4000
0000
ENDCHAR

STARTCHAR cns1_2140
ENCODING 8512
SWIDTH 854 0
DWIDTH 16 0
BBX 16 18 0 -2
BITMAP
0000
0000
0000
0000
0000
0000
0000
0000
0000
0FF8
1FFC
3006
6003
4001
0000
0000
0000
0000
ENDCHAR

STARTCHAR cns1_2141
ENCODING 8513
SWIDTH 854 0
DWIDTH 16 0
BBX 16 18 0 -2
BITMAP
0000
0000
0000
0000
4001
6003
3006
1FFC
07F0
0000
0000
0000
0000
0000
0000
0000
0000
0000
ENDCHAR

STARTCHAR cns1_2142
ENCODING 8514
SWIDTH 854 0
DWIDTH 16 0
BBX 16 18 0 -2
BITMAP
0000
0001
0002
0004
0004
0004
0004
0004
0008
0008
0004
0004
0004
0004
0004
0002
0001
0000
ENDCHAR

STARTCHAR cns1_2143
ENCODING 8515
SWIDTH 854 0
DWIDTH 16 0
BBX 16 18 0 -2
BITMAP
0000
4000
2000
1000
1000
1000
1000
1000
0800
0800
1000
1000
1000
1000
1000
2000
4000
0000
ENDCHAR

STARTCHAR cns1_2144
ENCODING 8516
SWIDTH 854 0
DWIDTH 16 0
BBX 16 18 0 -2
BITMAP
0000
0000
0000
0000
0000
0000
0000
0000
0000
01C0
1F7C
7E3F
4003
4001
0000
0000
0000
0000
ENDCHAR

STARTCHAR cns1_2145
ENCODING 8517
SWIDTH 854 0
DWIDTH 16 0
BBX 16 18 0 -2
BITMAP
0000
0000
0000
4001
4001
7E3F
3F7E
01C0
0000
0000
0000
0000
0000
0000
0000
0000
0000
0000
ENDCHAR

STARTCHAR cns1_2146
ENCODING 8518
SWIDTH 854 0
DWIDTH 16 0
BBX 16 18 0 -2
BITMAP
0000
000F
0008
0008
0008
0008
0008
0008
0008
0008
0008
0008
0008
0008
0008
0008
000F
0000
ENDCHAR

STARTCHAR cns1_2147
ENCODING 8519
SWIDTH 854 0
DWIDTH 16 0
BBX 16 18 0 -2
BITMAP
0000
7800
0800
0800
0800
0800
0800
0800
0800
0800
0800
0800
0800
0800
0800
0800
7800
0000
ENDCHAR

STARTCHAR cns1_2148
ENCODING 8520
SWIDTH 854 0
DWIDTH 16 0
BBX 16 18 0 -2
BITMAP
0000
0000
0000
0000
0000
0000
0000
0000
1FFC
3006
2002
6003
4001
4001
0000
0000
0000
0000
ENDCHAR

STARTCHAR cns1_2149
ENCODING 8521
SWIDTH 854 0
DWIDTH 16 0
BBX 16 18 0 -2
BITMAP
0000
0000
0000
4001
4001
6003
2002
3006
1FFC
0000
0000
0000
0000
0000
0000
0000
0000
0000
ENDCHAR

STARTCHAR cns1_214A
ENCODING 8522
SWIDTH 854 0
DWIDTH 16 0
BBX 16 18 0 -2
BITMAP
0000
003F
003C
003C
0038
0030
0030
0030
0030
0030
0030
0030
0030
0038
003C
003E
003F
0000
ENDCHAR

STARTCHAR cns1_214B
ENCODING 8523
SWIDTH 854 0
DWIDTH 16 0
BBX 16 18 0 -2
BITMAP
0000
3F00
1F00
0F00
0700
0700
0700
0300
0300
0300
0300
0700
0700
0700
0F00
1F00
3F00
0000
ENDCHAR

STARTCHAR cns1_214C
ENCODING 8524
SWIDTH 854 0
DWIDTH 16 0
BBX 16 18 0 -2
BITMAP
0000
0000
0000
0000
0000
0000
0000
0000
0000
7FFF
7C1F
780F
6003
4003
0000
0000
0000
0000
ENDCHAR

STARTCHAR cns1_214D
ENCODING 8525
SWIDTH 854 0
DWIDTH 16 0
BBX 16 18 0 -2
BITMAP
0000
0000
0000
4001
6003
7007
780F
7FFF
7FFF
0000
0000
0000
0000
0000
0000
0000
0000
0000
ENDCHAR

STARTCHAR cns1_214E
ENCODING 8526
SWIDTH 854 0
DWIDTH 16 0
BBX 16 18 0 -2
BITMAP
0000
0009
0012
0012
0024
0024
0048
0048
0090
0090
0048
0048
0024
0022
0012
0009
0009
0000
ENDCHAR

STARTCHAR cns1_214F
ENCODING 8527
SWIDTH 854 0
DWIDTH 16 0
BBX 16 18 0 -2
BITMAP
0000
2400
1200
1200
0900
0900
0480
0480
0240
0240
0480
0480
0900
0900
1200
1200
2400
0000
ENDCHAR

STARTCHAR cns1_2150
ENCODING 8528
SWIDTH 854 0
DWIDTH 16 0
BBX 16 18 0 -2
BITMAP
0000
0000
0000
0000
0000
0000
0000
01C0
0630
188C
6363
0C18
3006
4001
0000
0000
0000
0000
ENDCHAR

STARTCHAR cns1_2151
ENCODING 8529
SWIDTH 854 0
DWIDTH 16 0
BBX 16 18 0 -2
BITMAP
0000
0000
0000
4001
3006
0C18
4361
3086
0C18
0360
0080
0000
0000
0000
0000
0000
0000
0000
ENDCHAR

STARTCHAR cns1_2152
ENCODING 8530
SWIDTH 854 0
DWIDTH 16 0
BBX 16 18 0 -2
BITMAP
0000
0001
0002
0002
0004
0004
0008
0008
0010
0010
0008
0008
0004
0004
0002
0002
0001
0000
ENDCHAR

STARTCHAR cns1_2153
ENCODING 8531
SWIDTH 854 0
DWIDTH 16 0
BBX 16 18 0 -2
BITMAP
0000
4000
2000
2000
1000
1000
0800
0800
0400
0400
0800
0800
1000
1000
2000
2000
4000
0000
ENDCHAR

STARTCHAR cns1_2154
ENCODING 8532
SWIDTH 854 0
DWIDTH 16 0
BBX 16 18 0 -2
BITMAP
0000
0000
0000
0000
0000
0000
0000
0000
0000
0080
01C0
0360
0630
0C18
180C
7007
0000
0000
ENDCHAR

STARTCHAR cns1_2155
ENCODING 8533
SWIDTH 854 0
DWIDTH 16 0
BBX 16 18 0 -2
BITMAP
0000
0000
0000
7007
0C18
0630
0360
01C0
0080
0000
0000
0000
0000
0000
0000
0000
0000
0000
ENDCHAR

STARTCHAR cns1_2156
ENCODING 8534
SWIDTH 854 0
DWIDTH 16 0
BBX 16 18 0 -2
BITMAP
0000
007F
0040
0040
0040
0040
0040
0040
0040
0040
0040
0000
0000
0000
0000
0000
0000
0000
ENDCHAR

STARTCHAR cns1_2157
ENCODING 8535
SWIDTH 854 0
DWIDTH 16 0
BBX 16 18 0 -2
BITMAP
0000
0000
0000
0000
0000
0000
0000
0100
0100
0100
0100
0100
0100
0100
0100
0100
3F00
0000
ENDCHAR

STARTCHAR cns1_2158
ENCODING 8536
SWIDTH 854 0
DWIDTH 16 0
BBX 16 18 0 -2
BITMAP
0000
0000
0000
0000
0000
0000
0000
0000
0000
7FFE
0002
0002
0002
0002
0002
0002
0000
0000
ENDCHAR

STARTCHAR cns1_2159
ENCODING 8537
SWIDTH 854 0
DWIDTH 16 0
BBX 16 18 0 -2
BITMAP
0000
0000
2000
2000
2000
2000
2000
3FFF
0000
0000
0000
0000
0000
0000
0000
0000
0000
0000
ENDCHAR

STARTCHAR cns1_215A
ENCODING 8538
SWIDTH 854 0
DWIDTH 16 0
BBX 16 18 0 -2
BITMAP
0000
00FE
0082
00BE
00A0
00A0
00A0
00A0
00A0
00A0
00A0
00E0
0000
0000
0000
0000
0000
0000
ENDCHAR

STARTCHAR cns1_215B
ENCODING 8539
SWIDTH 854 0
DWIDTH 16 0
BBX 16 18 0 -2
BITMAP
0000
0000
0000
0000
0000
0700
0500
0500
0500
0500
0500
0500
0500
0500
3D00
2100
3F00
0000
ENDCHAR

STARTCHAR cns1_215C
ENCODING 8540
SWIDTH 854 0
DWIDTH 16 0
BBX 16 18 0 -2
BITMAP
0000
0000
0000
0000
0000
0000
0000
0000
7FFE
4002
7FFA
000A
000A
000A
000E
0000
0000
0000
ENDCHAR

STARTCHAR cns1_215D
ENCODING 8541
SWIDTH 854 0
DWIDTH 16 0
BBX 16 18 0 -2
BITMAP
0000
0000
7000
5000
5000
5000
5FFE
4002
7FFE
0000
0000
0000
0000
0000
0000
0000
0000
0000
ENDCHAR

STARTCHAR cns1_215E
ENCODING 8542
SWIDTH 854 0
DWIDTH 16 0
BBX 16 18 0 -2
BITMAP
0000
0000
0000
0000
0002
0004
0004
000C
000C
000C
000C
000C
0004
0004
0002
0000
0000
0000
ENDCHAR

STARTCHAR cns1_215F
ENCODING 8543
SWIDTH 854 0
DWIDTH 16 0
BBX 16 18 0 -2
BITMAP
0000
0000
0000
0000
2000
3000
1000
1800
1800
1800
1800
1800
1000
3000
2000
0000
0000
0000
ENDCHAR

STARTCHAR cns1_2160
ENCODING 8544
SWIDTH 854 0
DWIDTH 16 0
BBX 16 18 0 -2
BITMAP
0000
0000
0000
0006
000C
0008
0008
0008
0010
0010
0008
0008
0008
000C
0006
0000
0000
0000
ENDCHAR

STARTCHAR cns1_2161
ENCODING 8545
SWIDTH 854 0
DWIDTH 16 0
BBX 16 18 0 -2
BITMAP
0000
0000
0000
1800
0C00
0400
0400
0400
0200
0200
0400
0400
0400
0C00
1800
0000
0000
0000
ENDCHAR

STARTCHAR cns1_2162
ENCODING 8546
SWIDTH 854 0
DWIDTH 16 0
BBX 16 18 0 -2
BITMAP
0000
0000
0000
0008
0010
0010
0010
0010
0010
0010
0010
0010
0010
0008
0000
0000
0000
0000
ENDCHAR

STARTCHAR cns1_2163
ENCODING 8547
SWIDTH 854 0
DWIDTH 16 0
BBX 16 18 0 -2
BITMAP
0000
0000
0000
0400
0200
0200
0200
0200
0200
0200
0200
0200
0200
0400
0000
0000
0000
0000
ENDCHAR

STARTCHAR cns1_2164
ENCODING 8548
SWIDTH 854 0
DWIDTH 16 0
BBX 16 18 0 -2
BITMAP
0000
00C0
00C0
0040
0020
0000
0000
0000
0000
0000
0000
0000
0000
0000
0000
0000
0000
0000
ENDCHAR

STARTCHAR cns1_2165
ENCODING 8549
SWIDTH 854 0
DWIDTH 16 0
BBX 16 18 0 -2
BITMAP
0000
00C0
00C0
0080
0080
0100
0000
0000
0000
0000
0000
0000
0000
0000
0000
0000
0000
0000
ENDCHAR

STARTCHAR cns1_2166
ENCODING 8550
SWIDTH 854 0
DWIDTH 16 0
BBX 16 18 0 -2
BITMAP
0000
01EF
039C
03DE
03DE
018C
0000
0000
0000
0000
0000
0000
0000
0000
0000
0000
0000
0000
ENDCHAR

STARTCHAR cns1_2167
ENCODING 8551
SWIDTH 854 0
DWIDTH 16 0
BBX 16 18 0 -2
BITMAP
0000
0330
0330
0330
0000
0000
0000
0000
0000
0000
0000
0000
0000
0000
0000
0000
0000
0000
ENDCHAR

STARTCHAR cns1_2168
ENCODING 8552
SWIDTH 854 0
DWIDTH 16 0
BBX 16 18 0 -2
BITMAP
0000
2600
7600
7700
1900
1D80
0400
0000
0000
0000
0000
0000
0000
0000
0000
0000
0000
0000
ENDCHAR

STARTCHAR cns1_2169
ENCODING 8553
SWIDTH 854 0
DWIDTH 16 0
BBX 16 18 0 -2
BITMAP
0000
03E0
02C0
02C0
0680
0680
0480
0480
0000
0000
0000
0000
0000
0000
0000
0000
0000
0000
ENDCHAR

STARTCHAR cns1_216A
ENCODING 8554
SWIDTH 854 0
DWIDTH 16 0
BBX 16 18 0 -2
BITMAP
0000
0C00
0E00
0E00
0600
0380
0180
00C0
0040
0000
0000
0000
0000
0000
0000
0000
0000
0000
ENDCHAR

STARTCHAR cns1_216B
ENCODING 8555
SWIDTH 854 0
DWIDTH 16 0
BBX 16 18 0 -2
BITMAP
0000
0000
0060
00F0
00E0
00E0
0180
0380
0200
0000
0000
0000
0000
0000
0000
0000
0000
0000
ENDCHAR

STARTCHAR cns1_216C
ENCODING 8556
SWIDTH 854 0
DWIDTH 16 0
BBX 16 18 0 -2
BITMAP
0000
0410
0410
0410
041E
07F0
3C10
0410
0410
0410
0410
041E
07F0
3C10
0410
0410
0410
0000
ENDCHAR

STARTCHAR cns1_216D
ENCODING 8557
SWIDTH 854 0
DWIDTH 16 0
BBX 16 18 0 -2
BITMAP
0000
0000
0300
0480
0480
0480
0500
0200
0300
0480
0844
0828
0810
0828
07C4
0000
0000
0000
ENDCHAR

STARTCHAR cns1_216E
ENCODING 8558
SWIDTH 854 0
DWIDTH 16 0
BBX 16 18 0 -2
BITMAP
0000
0000
0000
0080
0080
0888
0490
02A0
01C0
02A0
0490
0888
0080
0080
0000
0000
0000
0000
ENDCHAR

STARTCHAR cns1_216F
ENCODING 8559
SWIDTH 854 0
DWIDTH 16 0
BBX 16 18 0 -2
BITMAP
0000
0000
0080
11C6
19CC
0C98
0630
1364
39CE
39CE
13E4
0630
0C98
19CC
11C6
0080
0000
0000
ENDCHAR

STARTCHAR cns1_2170
ENCODING 8560
SWIDTH 854 0
DWIDTH 16 0
BBX 16 18 0 -2
BITMAP
0000
01C0
0620
0470
0420
0300
01C0
0760
0430
0710
0190
00E0
0030
0110
0310
0330
01C0
0000
ENDCHAR

STARTCHAR cns1_2171
ENCODING 8561
SWIDTH 854 0
DWIDTH 16 0
BBX 16 18 0 -2
BITMAP
0000
0000
0000
0000
0000
0000
039C
039C
0318
0738
0630
0630
0820
30C0
0000
0000
0000
0000
ENDCHAR

STARTCHAR cns1_2172
ENCODING 8562
SWIDTH 854 0
DWIDTH 16 0
BBX 16 18 0 -2
BITMAP
0000
0000
03E0
0C18
1004
1004
2002
2002
2002
2002
2002
1004
1004
0C18
03E0
0000
0000
0000
ENDCHAR

STARTCHAR cns1_2173
ENCODING 8563
SWIDTH 854 0
DWIDTH 16 0
BBX 16 18 0 -2
BITMAP
0000
0000
03E0
0FF8
1FFC
1FFC
3FFE
3FFE
3FFE
3FFE
3FFE
1FFC
1FFC
0FF8
03E0
0000
0000
0000
ENDCHAR

STARTCHAR cns1_2174
ENCODING 8564
SWIDTH 854 0
DWIDTH 16 0
BBX 16 18 0 -2
BITMAP
0000
0000
0080
0140
0140
0220
0220
0410
0808
0808
1004
1004
2002
3FFE
0000
0000
0000
0000
ENDCHAR

STARTCHAR cns1_2175
ENCODING 8565
SWIDTH 854 0
DWIDTH 16 0
BBX 16 18 0 -2
BITMAP
0000
0000
0080
01C0
01C0
03E0
03E0
07F0
0FF8
0FF8
1FFC
1FFC
3FFE
3FFE
0000
0000
0000
0000
ENDCHAR

STARTCHAR cns1_2176
ENCODING 8566
SWIDTH 854 0
DWIDTH 16 0
BBX 16 18 0 -2
BITMAP
0000
0000
03E0
0C18
1004
11C4
2222
2412
2412
2412
2222
11C4
1004
0C18
03E0
0000
0000
0000
ENDCHAR

STARTCHAR cns1_2177
ENCODING 8567
SWIDTH 854 0
DWIDTH 16 0
BBX 16 18 0 -2
BITMAP
0000
0080
0080
01C0
0140
0140
0220
7E3F
2002
180C
0410
0410
0888
0948
1634
180C
3006
0000
ENDCHAR

STARTCHAR cns1_2178
ENCODING 8568
SWIDTH 854 0
DWIDTH 16 0
BBX 16 18 0 -2
BITMAP
0000
0080
0080
01C0
01C0
01C0
03E0
7FFF
3FFE
1FFC
07F0
07F0
0FF8
0F78
1E3C
180C
3006
0000
ENDCHAR

STARTCHAR cns1_2179
ENCODING 8569
SWIDTH 854 0
DWIDTH 16 0
BBX 16 18 0 -2
BITMAP
0000
0080
01C0
0360
0630
0C18
180C
3006
6003
3006
180C
0C18
0630
0360
01C0
0080
0000
0000
ENDCHAR

STARTCHAR cns1_217A
ENCODING 8570
SWIDTH 854 0
DWIDTH 16 0
BBX 16 18 0 -2
BITMAP
0000
0080
01C0
03E0
07F0
0FF8
1FFC
3FFE
7FFF
3FFE
1FFC
0FF8
07F0
03E0
01C0
0080
0000
0000
ENDCHAR

STARTCHAR cns1_217B
ENCODING 8571
SWIDTH 854 0
DWIDTH 16 0
BBX 16 18 0 -2
BITMAP
0000
0000
3FFE
2002
2002
2002
2002
2002
2002
2002
2002
2002
2002
2002
2002
3FFE
0000
0000
ENDCHAR

STARTCHAR cns1_217C
ENCODING 8572
SWIDTH 854 0
DWIDTH 16 0
BBX 16 18 0 -2
BITMAP
0000
0000
3FFE
3FFE
3FFE
3FFE
3FFE
3FFE
3FFE
3FFE
3FFE
3FFE
3FFE
3FFE
3FFE
3FFE
0000
0000
ENDCHAR

STARTCHAR cns1_217D
ENCODING 8573
SWIDTH 854 0
DWIDTH 16 0
BBX 16 18 0 -2
BITMAP
0000
0000
0000
3FFE
2002
1004
1004
0808
0808
0410
0410
0220
0220
0140
0140
0080
0000
0000
ENDCHAR

STARTCHAR cns1_217E
ENCODING 8574
SWIDTH 854 0
DWIDTH 16 0
BBX 16 18 0 -2
BITMAP
0000
0000
0000
3FFE
3FFE
1FFC
1FFC
0FF8
0FF8
07F0
07F0
03E0
03E0
01C0
01C0
0080
0000
0000
ENDCHAR

STARTCHAR cns1_2221
ENCODING 8737
SWIDTH 854 0
DWIDTH 16 0
BBX 16 18 0 -2
BITMAP
0000
0000
03E0
0C18
1004
17F4
2082
2482
24F2
2482
2482
1FFC
1004
0C18
03E0
0000
0000
0000
ENDCHAR

STARTCHAR cns1_2222
ENCODING 8738
SWIDTH 854 0
DWIDTH 16 0
BBX 16 18 0 -2
BITMAP
0000
0E01
3102
2104
4008
4010
4020
4240
449E
3922
0241
0481
0882
1082
2084
4078
0000
0000
ENDCHAR

STARTCHAR cns1_2223
ENCODING 8739
SWIDTH 854 0
DWIDTH 16 0
BBX 16 18 0 -2
BITMAP
0000
7FFF
0000
0000
0000
0000
0000
0000
0000
0000
0000
0000
0000
0000
0000
0000
0000
0000
ENDCHAR

STARTCHAR cns1_2224
ENCODING 8740
SWIDTH 854 0
DWIDTH 16 0
BBX 16 18 0 -2
BITMAP
0000
7FFF
7FFF
0000
0000
0000
0000
0000
0000
0000
0000
0000
0000
0000
0000
0000
0000
0000
ENDCHAR

STARTCHAR cns1_2225
ENCODING 8741
SWIDTH 854 0
DWIDTH 16 0
BBX 16 18 0 -2
BITMAP
0000
0000
0000
0000
0000
0000
0000
0000
0000
0000
0000
0000
0000
0000
0000
0000
7FFF
0000
ENDCHAR

STARTCHAR cns1_2226
ENCODING 8742
SWIDTH 854 0
DWIDTH 16 0
BBX 16 18 0 -2
BITMAP
0000
0000
0000
0000
0000
0000
0000
0000
0000
0000
0000
0000
0000
0000
0000
0000
7FFF
0000
ENDCHAR

STARTCHAR cns1_2227
ENCODING 8743
SWIDTH 854 0
DWIDTH 16 0
BBX 16 18 0 -2
BITMAP
0000
71C7
0000
0000
0000
0000
0000
0000
0000
0000
0000
0000
0000
0000
0000
0000
0000
0000
ENDCHAR

STARTCHAR cns1_2228
ENCODING 8744
SWIDTH 854 0
DWIDTH 16 0
BBX 16 18 0 -2
BITMAP
0000
3EDF
0000
0000
0000
0000
0000
0000
0000
0000
0000
0000
0000
0000
0000
0000
0000
0000
ENDCHAR

STARTCHAR cns1_2229
ENCODING 8745
SWIDTH 854 0
DWIDTH 16 0
BBX 16 18 0 -2
BITMAP
0000
0000
0000
0000
0000
0000
0000
0000
0000
0000
0000
0000
0000
0000
0000
71C7
71C7
0000
ENDCHAR

STARTCHAR cns1_222A
ENCODING 8746
SWIDTH 854 0
DWIDTH 16 0
BBX 16 18 0 -2
BITMAP
0000
0000
0000
0000
0000
0000
0000
0000
0000
0000
0000
0000
0000
0000
0000
3EDF
3EDF
0000
ENDCHAR

STARTCHAR cns1_222B
ENCODING 8747
SWIDTH 854 0
DWIDTH 16 0
BBX 16 18 0 -2
BITMAP
0000
0000
0000
0C18
1224
2142
4081
0000
0000
0000
0000
0000
0000
0000
0000
0000
0000
0000
ENDCHAR

STARTCHAR cns1_222C
ENCODING 8748
SWIDTH 854 0
DWIDTH 16 0
BBX 16 18 0 -2
BITMAP
0000
0000
0000
0C18
1E3C
3366
61C3
0000
0000
0000
0000
0000
0000
0000
0000
0000
0000
0000
ENDCHAR

STARTCHAR cns1_222D
ENCODING 8749
SWIDTH 854 0
DWIDTH 16 0
BBX 16 18 0 -2
BITMAP
0000
0000
0000
0240
0240
0240
0FF0
0240
0240
0FF0
0240
0240
0240
0000
0000
0000
0000
0000
ENDCHAR

STARTCHAR cns1_222E
ENCODING 8750
SWIDTH 854 0
DWIDTH 16 0
BBX 16 18 0 -2
BITMAP
0000
0000
0000
0000
0000
0380
0440
0480
0300
0380
04D8
0870
0C70
07D8
0000
0000
0000
0000
ENDCHAR

STARTCHAR cns1_222F
ENCODING 8751
SWIDTH 854 0
DWIDTH 16 0
BBX 16 18 0 -2
BITMAP
0000
2082
1084
0888
0888
0490
02A0
01C0
0080
0080
01C0
02A0
0490
0888
0888
1084
2082
0000
ENDCHAR

STARTCHAR cns1_2230
ENCODING 8752
SWIDTH 854 0
DWIDTH 16 0
BBX 16 18 0 -2
BITMAP
0000
0000
0000
0080
0080
0080
0080
0080
1FFC
0080
0080
0080
0080
0080
0000
0000
0000
0000
ENDCHAR

STARTCHAR cns1_2231
ENCODING 8753
SWIDTH 854 0
DWIDTH 16 0
BBX 16 18 0 -2
BITMAP
0000
0000
0000
0000
0000
0000
0000
0000
1FFC
0000
0000
0000
0000
0000
0000
0000
0000
0000
ENDCHAR

STARTCHAR cns1_2232
ENCODING 8754
SWIDTH 854 0
DWIDTH 16 0
BBX 16 18 0 -2
BITMAP
0000
0000
0000
1004
0808
0410
0220
0140
0080
0140
0220
0410
0808
1004
0000
0000
0000
0000
ENDCHAR

STARTCHAR cns1_2233
ENCODING 8755
SWIDTH 854 0
DWIDTH 16 0
BBX 16 18 0 -2
BITMAP
0000
0000
0000
0000
0180
0180
0000
0000
7FFE
0000
0000
0180
0180
0000
0000
0000
0000
0000
ENDCHAR

STARTCHAR cns1_2234
ENCODING 8756
SWIDTH 854 0
DWIDTH 16 0
BBX 16 18 0 -2
BITMAP
0000
0000
0080
0080
0080
0080
0080
3FFE
0080
0080
0080
0080
0080
0000
0000
3FFE
0000
0000
ENDCHAR

STARTCHAR cns1_2235
ENCODING 8757
SWIDTH 854 0
DWIDTH 16 0
BBX 16 18 0 -2
BITMAP
0000
0000
0000
01FF
0100
0200
0200
0400
0400
4400
4800
2800
3000
1000
0000
0000
0000
0000
ENDCHAR

STARTCHAR cns1_2236
ENCODING 8758
SWIDTH 854 0
DWIDTH 16 0
BBX 16 18 0 -2
BITMAP
0000
0000
0000
000C
0030
00C0
0300
0C00
3000
0C00
0300
00C0
0030
000C
0000
0000
0000
0000
ENDCHAR

STARTCHAR cns1_2237
ENCODING 8759
SWIDTH 854 0
DWIDTH 16 0
BBX 16 18 0 -2
BITMAP
0000
0000
0000
1800
0600
0180
0060
0018
0006
0018
0060
0180
0600
1800
0000
0000
0000
0000
ENDCHAR

STARTCHAR cns1_2238
ENCODING 8760
SWIDTH 854 0
DWIDTH 16 0
BBX 16 18 0 -2
BITMAP
0000
0000
0000
0000
0000
0000
0000
1FFC
0000
0000
1FFC
0000
0000
0000
0000
0000
0000
0000
ENDCHAR

STARTCHAR cns1_2239
ENCODING 8761
SWIDTH 854 0
DWIDTH 16 0
BBX 16 18 0 -2
BITMAP
0000
0000
0006
0038
03C0
1C00
6000
1C00
03C0
0038
0006
0000
7FFE
0000
0000
7FFE
0000
0000
ENDCHAR

STARTCHAR cns1_223A
ENCODING 8762
SWIDTH 854 0
DWIDTH 16 0
BBX 16 18 0 -2
BITMAP
0000
0000
3000
0E00
01E0
001C
0003
001C
01E0
0E00
3000
0000
3FFF
0000
0000
3FFF
0000
0000
ENDCHAR

STARTCHAR cns1_223B
ENCODING 8763
SWIDTH 854 0
DWIDTH 16 0
BBX 16 18 0 -2
BITMAP
0000
0000
0008
0008
0010
0020
0020
7FFF
0080
0080
0100
7FFF
0200
0400
0800
0800
1000
0000
ENDCHAR

STARTCHAR cns1_223C
ENCODING 8764
SWIDTH 854 0
DWIDTH 16 0
BBX 16 18 0 -2
BITMAP
0000
0000
0000
0000
0000
0000
1C38
22C4
4182
4182
2244
1C38
0000
0000
0000
0000
0000
0000
ENDCHAR

STARTCHAR cns1_223D
ENCODING 8765
SWIDTH 854 0
DWIDTH 16 0
BBX 16 18 0 -2
BITMAP
0000
0000
0000
0000
1800
1800
0000
7FFF
0000
0000
0000
7FFF
0000
000C
000C
0000
0000
0000
ENDCHAR

STARTCHAR cns1_223E
ENCODING 8766
SWIDTH 854 0
DWIDTH 16 0
BBX 16 18 0 -2
BITMAP
0000
0000
0000
0000
0000
7FFF
0000
0000
7FFF
0000
0000
7FFF
0000
0000
0000
0000
0000
0000
ENDCHAR

STARTCHAR cns1_223F
ENCODING 8767
SWIDTH 854 0
DWIDTH 16 0
BBX 16 18 0 -2
BITMAP
0000
0000
0000
0000
0000
0040
0040
0040
07FC
0040
0040
0040
0000
0000
0000
0000
0000
0000
ENDCHAR

STARTCHAR cns1_2240
ENCODING 8768
SWIDTH 854 0
DWIDTH 16 0
BBX 16 18 0 -2
BITMAP
0000
0000
0000
0000
0000
0000
0000
0000
07F8
0000
0000
0000
0000
0000
0000
0000
0000
0000
ENDCHAR

STARTCHAR cns1_2241
ENCODING 8769
SWIDTH 854 0
DWIDTH 16 0
BBX 16 18 0 -2
BITMAP
0000
0000
0000
0000
0000
0040
0080
0300
0400
0800
0400
0300
0080
0040
0000
0000
0000
0000
ENDCHAR

STARTCHAR cns1_2242
ENCODING 8770
SWIDTH 854 0
DWIDTH 16 0
BBX 16 18 0 -2
BITMAP
0000
0000
0000
0000
0000
0080
0040
0030
0008
0004
0008
0030
0040
0080
0000
0000
0000
0000
ENDCHAR

STARTCHAR cns1_2243
ENCODING 8771
SWIDTH 854 0
DWIDTH 16 0
BBX 16 18 0 -2
BITMAP
0000
0000
0000
0000
0000
0000
07F8
0000
0000
0000
07F8
0000
0000
0000
0000
0000
0000
0000
ENDCHAR

STARTCHAR cns1_2244
ENCODING 8772
SWIDTH 854 0
DWIDTH 16 0
BBX 16 18 0 -2
BITMAP
0000
0000
0000
0000
0000
0000
0000
0000
0400
1B83
606C
0010
0000
0000
0000
0000
0000
0000
ENDCHAR

STARTCHAR cns1_2245
ENCODING 8773
SWIDTH 854 0
DWIDTH 16 0
BBX 16 18 0 -2
BITMAP
0000
0000
03E0
0410
0808
0808
1004
1004
1004
1004
1004
1004
1004
1004
1004
1004
0000
0000
ENDCHAR

STARTCHAR cns1_2246
ENCODING 8774
SWIDTH 854 0
DWIDTH 16 0
BBX 16 18 0 -2
BITMAP
0000
0000
1004
1004
1004
1004
1004
1004
1004
1004
1004
0808
0808
0410
03E0
0000
0000
0000
ENDCHAR

STARTCHAR cns1_2247
ENCODING 8775
SWIDTH 854 0
DWIDTH 16 0
BBX 16 18 0 -2
BITMAP
0000
0000
0000
0080
0080
0080
0080
0080
0080
0080
0080
0080
0080
3FFE
0000
0000
0000
0000
ENDCHAR

STARTCHAR cns1_2248
ENCODING 8776
SWIDTH 854 0
DWIDTH 16 0
BBX 16 18 0 -2
BITMAP
0000
0000
0000
0004
0008
0010
0020
0040
0080
0100
0200
0400
0800
1FFE
0000
0000
0000
0000
ENDCHAR

STARTCHAR cns1_2249
ENCODING 8777
SWIDTH 854 0
DWIDTH 16 0
BBX 16 18 0 -2
BITMAP
0000
0000
0000
1000
1000
1000
1000
1000
1000
1000
1000
1000
1000
1FFE
0000
0000
0000
0000
ENDCHAR

STARTCHAR cns1_224A
ENCODING 8778
SWIDTH 854 0
DWIDTH 16 0
BBX 16 18 0 -2
BITMAP
0000
0000
0002
0006
000A
0012
0022
0042
0082
0102
0202
0402
0802
1002
3FFE
0000
0000
0000
ENDCHAR

STARTCHAR cns1_224B
ENCODING 8779
SWIDTH 854 0
DWIDTH 16 0
BBX 16 18 0 -2
BITMAP
0000
0000
6000
2000
2000
2000
2000
273E
2524
28A4
289C
28B8
28A4
2542
7742
003C
0000
0000
ENDCHAR

STARTCHAR cns1_224C
ENCODING 8780
SWIDTH 854 0
DWIDTH 16 0
BBX 16 18 0 -2
BITMAP
0000
0000
3000
1000
1000
1000
13B8
10EC
1084
1084
1084
1084
1084
1084
39CE
0000
0000
0000
ENDCHAR

STARTCHAR cns1_224D
ENCODING 8781
SWIDTH 854 0
DWIDTH 16 0
BBX 16 18 0 -2
BITMAP
0000
001C
0022
0022
0020
0040
0040
0040
0040
0080
0080
0080
0080
0100
1100
1100
0E00
0000
ENDCHAR

STARTCHAR cns1_224E
ENCODING 8782
SWIDTH 854 0
DWIDTH 16 0
BBX 16 18 0 -2
BITMAP
0000
007C
0042
0082
0080
0080
07F0
0C98
1084
1084
0C98
03E0
0080
0080
2080
2100
1E00
0000
ENDCHAR

STARTCHAR cns1_224F
ENCODING 8783
SWIDTH 854 0
DWIDTH 16 0
BBX 16 18 0 -2
BITMAP
0000
0000
0000
0000
1806
3C0F
1806
0000
0000
0000
0000
00C0
01E0
00C0
0000
0000
0000
0000
ENDCHAR

STARTCHAR cns1_2250
ENCODING 8784
SWIDTH 854 0
DWIDTH 16 0
BBX 16 18 0 -2
BITMAP
0000
0000
0000
00C0
01E0
00C0
0000
0000
0000
0000
0000
1806
3C0F
1806
0000
0000
0000
0000
ENDCHAR

STARTCHAR cns1_2251
ENCODING 8785
SWIDTH 854 0
DWIDTH 16 0
BBX 16 18 0 -2
BITMAP
0000
01C0
0220
0410
0410
0410
0220
01C0
0080
0080
0080
3FFE
0080
0080
0080
0080
0080
0000
ENDCHAR

STARTCHAR cns1_2252
ENCODING 8786
SWIDTH 854 0
DWIDTH 16 0
BBX 16 18 0 -2
BITMAP
0000
0080
01C0
02A0
0490
0888
1084
0080
0080
0080
01C0
0220
0410
0410
0410
0220
01C0
0000
ENDCHAR

STARTCHAR cns1_2253
ENCODING 8787
SWIDTH 854 0
DWIDTH 16 0
BBX 16 18 0 -2
BITMAP
0000
0000
03E0
0C98
1084
1084
2082
2082
3FFE
2082
2082
1084
1084
0C98
03E0
0000
0000
0000
ENDCHAR

STARTCHAR cns1_2254
ENCODING 8788
SWIDTH 854 0
DWIDTH 16 0
BBX 16 18 0 -2
BITMAP
0000
0000
03E0
0C18
1004
1004
2002
2082
21C2
2082
2002
1004
1004
0C18
03E0
0000
0000
0000
ENDCHAR

STARTCHAR cns1_2255
ENCODING 8789
SWIDTH 854 0
DWIDTH 16 0
BBX 16 18 0 -2
BITMAP
0000
0080
01C0
02A0
0490
0888
1084
2082
0080
0080
0080
0080
0080
0080
0080
0080
0000
0000
ENDCHAR

STARTCHAR cns1_2256
ENCODING 8790
SWIDTH 854 0
DWIDTH 16 0
BBX 16 18 0 -2
BITMAP
0000
0080
0080
0080
0080
0080
0080
0080
0080
0080
1084
0888
0490
02A0
01C0
0080
0000
0000
ENDCHAR

STARTCHAR cns1_2257
ENCODING 8791
SWIDTH 854 0
DWIDTH 16 0
BBX 16 18 0 -2
BITMAP
0000
0000
0000
0020
0010
0008
0004
0002
7FFF
0002
0004
0008
0010
0020
0000
0000
0000
0000
ENDCHAR

STARTCHAR cns1_2258
ENCODING 8792
SWIDTH 854 0
DWIDTH 16 0
BBX 16 18 0 -2
BITMAP
0000
0000
0000
0200
0400
0800
1000
2000
7FFF
2000
1000
0800
0400
0200
0000
0000
0000
0000
ENDCHAR

STARTCHAR cns1_2259
ENCODING 8793
SWIDTH 854 0
DWIDTH 16 0
BBX 16 18 0 -2
BITMAP
0000
0000
0000
1F80
1800
1400
1200
1100
1080
0040
0020
0010
0008
0004
0002
0000
0000
0000
ENDCHAR

STARTCHAR cns1_225A
ENCODING 8794
SWIDTH 854 0
DWIDTH 16 0
BBX 16 18 0 -2
BITMAP
0000
0000
0000
007E
0006
000A
0012
0022
0042
0080
0100
0200
0400
0800
1000
0000
0000
0000
ENDCHAR

STARTCHAR cns1_225B
ENCODING 8795
SWIDTH 854 0
DWIDTH 16 0
BBX 16 18 0 -2
BITMAP
0000
0000
0002
0004
0008
0010
0020
0040
1080
1100
1200
1400
1800
1FC0
0000
0000
0000
0000
ENDCHAR

STARTCHAR cns1_225C
ENCODING 8796
SWIDTH 854 0
DWIDTH 16 0
BBX 16 18 0 -2
BITMAP
0000
0000
0000
0800
0400
0200
0100
0080
0042
0022
0012
000A
0006
007E
0000
0000
0000
0000
ENDCHAR

STARTCHAR cns1_225D
ENCODING 8797
SWIDTH 854 0
DWIDTH 16 0
BBX 16 18 0 -2
BITMAP
0000
0120
0120
0120
0120
0120
0120
0120
0120
0120
0120
0120
0120
0120
0120
0120
0120
0000
ENDCHAR

STARTCHAR cns1_225E
ENCODING 8798
SWIDTH 854 0
DWIDTH 16 0
BBX 16 18 0 -2
BITMAP
0000
00C0
00C0
00C0
00C0
00C0
00C0
00C0
00C0
00C0
00C0
00C0
00C0
00C0
00C0
00C0
00C0
0000
ENDCHAR

STARTCHAR cns1_225F
ENCODING 8799
SWIDTH 854 0
DWIDTH 16 0
BBX 16 18 0 -2
BITMAP
0000
0001
0002
0004
0008
0010
0020
0040
0080
0100
0200
0400
0800
1000
2000
4000
0000
0000
ENDCHAR

STARTCHAR cns1_2260
ENCODING 8800
SWIDTH 854 0
DWIDTH 16 0
BBX 16 18 0 -2
BITMAP
0000
0000
0000
2000
1000
0800
0400
0200
0100
0080
0040
0020
0010
0008
0004
0000
0000
0000
ENDCHAR

STARTCHAR cns1_2261
ENCODING 8801
SWIDTH 854 0
DWIDTH 16 0
BBX 16 18 0 -2
BITMAP
0000
0000
0000
0006
000C
0018
0030
0060
00C0
0180
0300
0600
0C00
1800
3000
6000
0000
0000
ENDCHAR

STARTCHAR cns1_2262
ENCODING 8802
SWIDTH 854 0
DWIDTH 16 0
BBX 16 18 0 -2
BITMAP
0000
0000
6000
7000
3800
1C00
0E00
0700
0380
01C0
00E0
0070
0038
001C
000E
0006
0000
0000
ENDCHAR

STARTCHAR cns1_2263
ENCODING 8803
SWIDTH 854 0
DWIDTH 16 0
BBX 16 18 0 -2
BITMAP
0000
0080
01C0
02A0
0490
0490
0480
0280
01C0
00A0
0090
0488
0888
0888
0490
03E0
0080
0000
ENDCHAR

STARTCHAR cns1_2264
ENCODING 8804
SWIDTH 854 0
DWIDTH 16 0
BBX 16 18 0 -2
BITMAP
0000
0000
3C1E
0808
0410
0220
0220
0140
3FFE
0080
0080
3FFE
0080
0080
0080
03E0
0000
0000
ENDCHAR

STARTCHAR cns1_2265
ENCODING 8805
SWIDTH 854 0
DWIDTH 16 0
BBX 16 18 0 -2
BITMAP
0000
0000
0000
3FFE
0000
0000
3FFE
0080
0080
0080
0080
0080
0080
0080
0080
0080
0080
0000
ENDCHAR

STARTCHAR cns1_2266
ENCODING 8806
SWIDTH 854 0
DWIDTH 16 0
BBX 16 18 0 -2
BITMAP
0000
0010
0010
01F0
0228
0448
0448
0840
0880
0880
0900
0910
0510
0660
0380
0400
0C00
0000
ENDCHAR

STARTCHAR cns1_2267
ENCODING 8807
SWIDTH 854 0
DWIDTH 16 0
BBX 16 18 0 -2
BITMAP
0000
0000
00F0
0308
020C
060C
0400
3FE0
0400
0200
0100
1F02
2182
2184
1264
1E18
0000
0000
ENDCHAR

STARTCHAR cns1_2268
ENCODING 8808
SWIDTH 854 0
DWIDTH 16 0
BBX 16 18 0 -2
BITMAP
0000
0C01
1202
2104
2108
2110
1220
0C40
0080
0118
0224
0442
0842
1042
2024
4018
0000
0000
ENDCHAR

STARTCHAR cns1_2269
ENCODING 8809
SWIDTH 854 0
DWIDTH 16 0
BBX 16 18 0 -2
BITMAP
0000
01C0
0630
0808
1004
20D2
2132
4212
4412
4422
4424
2269
21B1
1002
0804
0618
01E0
0000
ENDCHAR

STARTCHAR cns1_226A
ENCODING 8810
SWIDTH 854 0
DWIDTH 16 0
BBX 16 18 0 -2
BITMAP
0000
1800
2400
24F2
258A
1A06
0202
0402
0400
0400
0400
0400
0202
0204
0108
00F0
0000
0000
ENDCHAR

STARTCHAR cns1_226B
ENCODING 8811
SWIDTH 854 0
DWIDTH 16 0
BBX 16 18 0 -2
BITMAP
0000
1800
2402
25FE
2502
1902
0100
0108
01F8
0108
0100
0100
0100
0100
0100
03C0
0000
0000
ENDCHAR

STARTCHAR cns1_226C
ENCODING 8812
SWIDTH 854 0
DWIDTH 16 0
BBX 16 18 0 -2
BITMAP
0000
0000
0080
01C0
02A0
0490
0490
0280
01C0
00A0
0490
0490
02A0
01C0
0080
0000
0000
0000
ENDCHAR

STARTCHAR cns1_226D
ENCODING 8813
SWIDTH 854 0
DWIDTH 16 0
BBX 16 18 0 -2
BITMAP
0000
0000
0000
0000
0004
0608
0910
0920
0640
00B0
0148
0248
0430
0800
0000
0000
0000
0000
ENDCHAR

STARTCHAR cns1_226E
ENCODING 8814
SWIDTH 854 0
DWIDTH 16 0
BBX 16 18 0 -2
BITMAP
0000
0000
0000
0000
01F0
0238
04E4
0524
0524
0524
056C
04B4
0208
01F0
0000
0000
0000
0000
ENDCHAR

STARTCHAR cns1_226F
ENCODING 8815
SWIDTH 854 0
DWIDTH 16 0
BBX 16 18 0 -2
BITMAP
0000
0000
0026
0062
0022
0002
0022
7622
4922
4922
4922
4922
4922
4922
4922
0000
0000
0000
ENDCHAR

STARTCHAR cns1_2270
ENCODING 8816
SWIDTH 854 0
DWIDTH 16 0
BBX 16 18 0 -2
BITMAP
0000
0000
0000
0000
0000
0000
7676
4949
4949
4949
4949
4949
4949
4949
4949
0000
0000
0000
ENDCHAR

STARTCHAR cns1_2271
ENCODING 8817
SWIDTH 854 0
DWIDTH 16 0
BBX 16 18 0 -2
BITMAP
0000
0000
0000
0000
0000
0000
1C76
2249
4249
4049
4049
4049
4049
2249
1C49
0000
0000
0000
ENDCHAR

STARTCHAR cns1_2272
ENCODING 8818
SWIDTH 854 0
DWIDTH 16 0
BBX 16 18 0 -2
BITMAP
0000
0000
4000
4000
4000
4000
4600
44F6
4849
4849
7849
4449
4449
4249
4349
0000
0000
0000
ENDCHAR

STARTCHAR cns1_2273
ENCODING 8819
SWIDTH 854 0
DWIDTH 16 0
BBX 16 18 0 -2
BITMAP
0000
0000
67C1
4241
4463
4855
5055
6049
6049
5041
4841
4441
4241
4141
67C1
0000
0000
0000
ENDCHAR

STARTCHAR cns1_2274
ENCODING 8820
SWIDTH 854 0
DWIDTH 16 0
BBX 16 18 0 -2
BITMAP
0000
0038
0044
0008
0010
0020
007C
3B00
2480
2480
2480
2480
2480
2480
2480
0000
0000
0000
ENDCHAR

STARTCHAR cns1_2275
ENCODING 8821
SWIDTH 854 0
DWIDTH 16 0
BBX 16 18 0 -2
BITMAP
0000
0000
0000
0000
0000
0000
003B
7644
4944
4944
4928
4910
4928
4946
4941
0041
003E
0000
ENDCHAR

STARTCHAR cns1_2276
ENCODING 8822
SWIDTH 854 0
DWIDTH 16 0
BBX 16 18 0 -2
BITMAP
0000
0000
0000
4000
4000
4000
4077
4488
4888
5088
6050
5020
4850
448C
4282
0082
007C
0000
ENDCHAR

STARTCHAR cns1_2277
ENCODING 8823
SWIDTH 854 0
DWIDTH 16 0
BBX 16 18 0 -2
BITMAP
0000
0000
0000
0000
0000
1C1C
2222
4242
4040
4040
4040
4040
4040
2222
1C1C
0000
0000
0000
ENDCHAR

STARTCHAR cns1_2278
ENCODING 8824
SWIDTH 854 0
DWIDTH 16 0
BBX 16 18 0 -2
BITMAP
0000
1800
2400
2400
1800
0000
0000
0000
0000
0000
0000
0000
0000
0000
0000
0000
0000
0000
ENDCHAR

STARTCHAR cns1_2279
ENCODING 8825
SWIDTH 854 0
DWIDTH 16 0
BBX 16 18 0 -2
BITMAP
0000
0800
0810
7F10
0810
0810
3E10
22FE
2210
2210
3E10
1410
1410
1410
2411
2401
47FF
0000
ENDCHAR

STARTCHAR cns1_227A
ENCODING 8826
SWIDTH 854 0
DWIDTH 16 0
BBX 16 18 0 -2
BITMAP
0000
0800
0806
7F78
0808
0808
3E08
2208
22FF
2208
3E08
1408
1408
1408
2408
2401
47FF
0000
ENDCHAR

STARTCHAR cns1_227B
ENCODING 8827
SWIDTH 854 0
DWIDTH 16 0
BBX 16 18 0 -2
BITMAP
0000
0800
080C
7F70
0820
0820
3E3E
22E0
2220
2220
3E3E
15E0
1420
1422
243E
2401
47FF
0000
ENDCHAR

STARTCHAR cns1_227C
ENCODING 8828
SWIDTH 854 0
DWIDTH 16 0
BBX 16 18 0 -2
BITMAP
0000
0800
081C
7F44
0842
0882
3E81
2201
22FE
2222
3E22
1422
1442
1442
258C
2401
47FF
0000
ENDCHAR

STARTCHAR cns1_227D
ENCODING 8829
SWIDTH 854 0
DWIDTH 16 0
BBX 16 18 0 -2
BITMAP
0000
0800
0800
7EFF
0808
0808
3E7E
2242
2242
227E
3E42
1442
147E
1442
2400
2401
47FF
0000
ENDCHAR

STARTCHAR cns1_227E
ENCODING 8830
SWIDTH 854 0
DWIDTH 16 0
BBX 16 18 0 -2
BITMAP
0000
1000
11FF
7D00
117E
1152
7D7E
4552
457E
4510
7D10
2A7E
2A10
2A10
2AFE
4801
4FFF
0000
ENDCHAR

STARTCHAR cns1_2321
ENCODING 8993
SWIDTH 854 0
DWIDTH 16 0
BBX 16 18 0 -2
BITMAP
0000
0800
7F7E
0942
1142
1142
637E
0080
0360
0C18
77F7
0000
1FFC
1224
1FFC
1224
1224
0000
ENDCHAR

STARTCHAR cns1_2322
ENCODING 8994
SWIDTH 854 0
DWIDTH 16 0
BBX 16 18 0 -2
BITMAP
0000
0000
7F06
1038
10D0
1010
1E10
1210
22FF
2A10
2A10
2A10
2210
2611
3A11
6201
01FF
0000
ENDCHAR

STARTCHAR cns1_2323
ENCODING 8995
SWIDTH 854 0
DWIDTH 16 0
BBX 16 18 0 -2
BITMAP
0000
1000
11FF
5500
397F
1149
7D49
117F
3149
3949
557F
5508
5108
127F
1208
1408
10FF
0000
ENDCHAR

STARTCHAR cns1_2324
ENCODING 8996
SWIDTH 854 0
DWIDTH 16 0
BBX 16 18 0 -2
BITMAP
0000
0000
0000
0000
0000
0000
0000
0000
0000
0000
0000
0000
0000
0000
0000
7FFF
7FFF
0000
ENDCHAR

STARTCHAR cns1_2325
ENCODING 8997
SWIDTH 854 0
DWIDTH 16 0
BBX 16 18 0 -2
BITMAP
0000
0000
0000
0000
0000
0000
0000
0000
0000
0000
0000
0000
0000
7FFF
7FFF
7FFF
7FFF
0000
ENDCHAR

STARTCHAR cns1_2326
ENCODING 8998
SWIDTH 854 0
DWIDTH 16 0
BBX 16 18 0 -2
BITMAP
0000
0000
0000
0000
0000
0000
0000
0000
0000
0000
0000
7FFF
7FFF
7FFF
7FFF
7FFF
7FFF
0000
ENDCHAR

STARTCHAR cns1_2327
ENCODING 8999
SWIDTH 854 0
DWIDTH 16 0
BBX 16 18 0 -2
BITMAP
0000
0000
0000
0000
0000
0000
0000
0000
0000
7FFF
7FFF
7FFF
7FFF
7FFF
7FFF
7FFF
7FFF
0000
ENDCHAR

STARTCHAR cns1_2328
ENCODING 9000
SWIDTH 854 0
DWIDTH 16 0
BBX 16 18 0 -2
BITMAP
0000
0000
0000
0000
0000
0000
0000
7FFF
7FFF
7FFF
7FFF
7FFF
7FFF
7FFF
7FFF
7FFF
7FFF
0000
ENDCHAR

STARTCHAR cns1_2329
ENCODING 9001
SWIDTH 854 0
DWIDTH 16 0
BBX 16 18 0 -2
BITMAP
0000
0000
0000
0000
0000
7FFF
7FFF
7FFF
7FFF
7FFF
7FFF
7FFF
7FFF
7FFF
7FFF
7FFF
7FFF
0000
ENDCHAR

STARTCHAR cns1_232A
ENCODING 9002
SWIDTH 854 0
DWIDTH 16 0
BBX 16 18 0 -2
BITMAP
0000
0000
0000
7FFF
7FFF
7FFF
7FFF
7FFF
7FFF
7FFF
7FFF
7FFF
7FFF
7FFF
7FFF
7FFF
7FFF
0000
ENDCHAR

STARTCHAR cns1_232B
ENCODING 9003
SWIDTH 854 0
DWIDTH 16 0
BBX 16 18 0 -2
BITMAP
0000
7FFF
7FFF
7FFF
7FFF
7FFF
7FFF
7FFF
7FFF
7FFF
7FFF
7FFF
7FFF
7FFF
7FFF
7FFF
7FFF
0000
ENDCHAR

STARTCHAR cns1_232C
ENCODING 9004
SWIDTH 854 0
DWIDTH 16 0
BBX 16 18 0 -2
BITMAP
0000
6000
6000
6000
6000
6000
6000
6000
6000
6000
6000
6000
6000
6000
6000
6000
6000
0000
ENDCHAR

STARTCHAR cns1_232D
ENCODING 9005
SWIDTH 854 0
DWIDTH 16 0
BBX 16 18 0 -2
BITMAP
0000
7800
7800
7800
7800
7800
7800
7800
7800
7800
7800
7800
7800
7800
7800
7800
7800
0000
ENDCHAR

STARTCHAR cns1_232E
ENCODING 9006
SWIDTH 854 0
DWIDTH 16 0
BBX 16 18 0 -2
BITMAP
0000
7E00
7E00
7E00
7E00
7E00
7E00
7E00
7E00
7E00
7E00
7E00
7E00
7E00
7E00
7E00
7E00
0000
ENDCHAR

STARTCHAR cns1_232F
ENCODING 9007
SWIDTH 854 0
DWIDTH 16 0
BBX 16 18 0 -2
BITMAP
0000
7F80
7F80
7F80
7F80
7F80
7F80
7F80
7F80
7F80
7F80
7F80
7F80
7F80
7F80
7F80
7F80
0000
ENDCHAR

STARTCHAR cns1_2330
ENCODING 9008
SWIDTH 854 0
DWIDTH 16 0
BBX 16 18 0 -2
BITMAP
0000
7FE0
7FE0
7FE0
7FE0
7FE0
7FE0
7FE0
7FE0
7FE0
7FE0
7FE0
7FE0
7FE0
7FE0
7FE0
7FE0
0000
ENDCHAR

STARTCHAR cns1_2331
ENCODING 9009
SWIDTH 854 0
DWIDTH 16 0
BBX 16 18 0 -2
BITMAP
0000
7FF8
7FF8
7FF8
7FF8
7FF8
7FF8
7FF8
7FF8
7FF8
7FF8
7FF8
7FF8
7FF8
7FF8
7FF8
7FF8
0000
ENDCHAR

STARTCHAR cns1_2332
ENCODING 9010
SWIDTH 854 0
DWIDTH 16 0
BBX 16 18 0 -2
BITMAP
0000
7FFE
7FFE
7FFE
7FFE
7FFE
7FFE
7FFE
7FFE
7FFE
7FFE
7FFE
7FFE
7FFE
7FFE
7FFE
7FFE
0000
ENDCHAR

STARTCHAR cns1_2333
ENCODING 9011
SWIDTH 854 0
DWIDTH 16 0
BBX 16 18 0 -2
BITMAP
0180
0180
0180
0180
0180
0180
0180
0180
FFFF
FFFF
0180
0180
0180
0180
0180
0180
0180
0180
ENDCHAR

STARTCHAR cns1_2334
ENCODING 9012
SWIDTH 854 0
DWIDTH 16 0
BBX 16 18 0 -2
BITMAP
0180
0180
0180
0180
0180
0180
0180
0180
FFFF
FFFF
0000
0000
0000
0000
0000
0000
0000
0000
ENDCHAR

STARTCHAR cns1_2335
ENCODING 9013
SWIDTH 854 0
DWIDTH 16 0
BBX 16 18 0 -2
BITMAP
0000
0000
0000
0000
0000
0000
0000
0000
FFFF
FFFF
0180
0180
0180
0180
0180
0180
0180
0180
ENDCHAR

STARTCHAR cns1_2336
ENCODING 9014
SWIDTH 854 0
DWIDTH 16 0
BBX 16 18 0 -2
BITMAP
0180
0180
0180
0180
0180
0180
0180
0180
FF80
FF80
0180
0180
0180
0180
0180
0180
0180
0180
ENDCHAR

STARTCHAR cns1_2337
ENCODING 9015
SWIDTH 854 0
DWIDTH 16 0
BBX 16 18 0 -2
BITMAP
0180
0180
0180
0180
0180
0180
0180
0180
01FF
01FF
0180
0180
0180
0180
0180
0180
0180
0180
ENDCHAR

STARTCHAR cns1_2338
ENCODING 9016
SWIDTH 854 0
DWIDTH 16 0
BBX 16 18 0 -2
BITMAP
0000
7FFF
7FFF
0000
0000
0000
0000
0000
0000
0000
0000
0000
0000
0000
0000
0000
0000
0000
ENDCHAR

STARTCHAR cns1_2339
ENCODING 9017
SWIDTH 854 0
DWIDTH 16 0
BBX 16 18 0 -2
BITMAP
0000
0000
0000
0000
0000
0000
0000
0000
FFFF
FFFF
0000
0000
0000
0000
0000
0000
0000
0000
ENDCHAR

STARTCHAR cns1_233A
ENCODING 9018
SWIDTH 854 0
DWIDTH 16 0
BBX 16 18 0 -2
BITMAP
0180
0180
0180
0180
0180
0180
0180
0180
0180
0180
0180
0180
0180
0180
0180
0180
0180
0180
ENDCHAR

STARTCHAR cns1_233B
ENCODING 9019
SWIDTH 854 0
DWIDTH 16 0
BBX 16 18 0 -2
BITMAP
0000
0003
0003
0003
0003
0003
0003
0003
0003
0003
0003
0003
0003
0003
0003
0003
0003
0000
ENDCHAR

STARTCHAR cns1_233C
ENCODING 9020
SWIDTH 854 0
DWIDTH 16 0
BBX 16 18 0 -2
BITMAP
0000
0000
0000
0000
0000
0000
0000
0000
01FF
01FF
0180
0180
0180
0180
0180
0180
0180
0180
ENDCHAR

STARTCHAR cns1_233D
ENCODING 9021
SWIDTH 854 0
DWIDTH 16 0
BBX 16 18 0 -2
BITMAP
0000
0000
0000
0000
0000
0000
0000
0000
FF80
FF80
0180
0180
0180
0180
0180
0180
0180
0180
ENDCHAR

STARTCHAR cns1_233E
ENCODING 9022
SWIDTH 854 0
DWIDTH 16 0
BBX 16 18 0 -2
BITMAP
0180
0180
0180
0180
0180
0180
0180
0180
01FF
01FF
0000
0000
0000
0000
0000
0000
0000
0000
ENDCHAR

STARTCHAR cns1_233F
ENCODING 9023
SWIDTH 854 0
DWIDTH 16 0
BBX 16 18 0 -2
BITMAP
0180
0180
0180
0180
0180
0180
0180
0180
FF80
FF80
0000
0000
0000
0000
0000
0000
0000
0000
ENDCHAR

STARTCHAR cns1_2340
ENCODING 9024
SWIDTH 854 0
DWIDTH 16 0
BBX 16 18 0 -2
BITMAP
0000
0000
0000
0000
0000
0000
0000
0000
0000
0007
0018
0060
0040
0080
0080
0080
0080
0080
ENDCHAR

STARTCHAR cns1_2341
ENCODING 9025
SWIDTH 854 0
DWIDTH 16 0
BBX 16 18 0 -2
BITMAP
0000
0000
0000
0000
0000
0000
0000
0000
0000
E000
1800
0600
0200
0100
0100
0080
0080
0080
ENDCHAR

STARTCHAR cns1_2342
ENCODING 9026
SWIDTH 854 0
DWIDTH 16 0
BBX 16 18 0 -2
BITMAP
0080
0080
0080
0080
0080
0040
0060
0018
0007
0000
0000
0000
0000
0000
0000
0000
0000
0000
ENDCHAR

STARTCHAR cns1_2343
ENCODING 9027
SWIDTH 854 0
DWIDTH 16 0
BBX 16 18 0 -2
BITMAP
0080
0080
0080
0100
0100
0200
0600
1800
E000
0000
0000
0000
0000
0000
0000
0000
0000
0000
ENDCHAR

STARTCHAR cns1_2344
ENCODING 9028
SWIDTH 854 0
DWIDTH 16 0
BBX 16 18 0 -2
BITMAP
0000
0000
0000
0000
0000
0000
FFFF
0000
0000
0000
0000
FFFF
0000
0000
0000
0000
0000
0000
ENDCHAR

STARTCHAR cns1_2345
ENCODING 9029
SWIDTH 854 0
DWIDTH 16 0
BBX 16 18 0 -2
BITMAP
0080
0080
0080
0080
0080
0080
00FF
0080
0080
0080
0080
00FF
0080
0080
0080
0080
0080
0080
ENDCHAR

STARTCHAR cns1_2346
ENCODING 9030
SWIDTH 854 0
DWIDTH 16 0
BBX 16 18 0 -2
BITMAP
0080
0080
0080
0080
0080
0080
FFFF
0080
0080
0080
0080
FFFF
0080
0080
0080
0080
0080
0080
ENDCHAR

STARTCHAR cns1_2347
ENCODING 9031
SWIDTH 854 0
DWIDTH 16 0
BBX 16 18 0 -2
BITMAP
0080
0080
0080
0080
0080
0080
FF80
0080
0080
0080
0080
FF80
0080
0080
0080
0080
0080
0080
ENDCHAR

STARTCHAR cns1_2348
ENCODING 9032
SWIDTH 854 0
DWIDTH 16 0
BBX 16 18 0 -2
BITMAP
0000
0000
0001
0003
0007
000F
001F
003F
007F
00FF
01FF
03FF
07FF
0FFF
1FFF
3FFF
7FFF
0000
ENDCHAR

STARTCHAR cns1_2349
ENCODING 9033
SWIDTH 854 0
DWIDTH 16 0
BBX 16 18 0 -2
BITMAP
0000
0000
4000
6000
7000
7800
7C00
7E00
7F00
7F80
7FC0
7FE0
7FF0
7FF8
7FFC
7FFE
7FFF
0000
ENDCHAR

STARTCHAR cns1_234A
ENCODING 9034
SWIDTH 854 0
DWIDTH 16 0
BBX 16 18 0 -2
BITMAP
0000
7FFF
3FFF
1FFF
0FFF
07FF
03FF
01FF
00FF
007F
003F
001F
000F
0007
0003
0001
0000
0000
ENDCHAR

STARTCHAR cns1_234B
ENCODING 9035
SWIDTH 854 0
DWIDTH 16 0
BBX 16 18 0 -2
BITMAP
0000
7FFF
7FFE
7FFC
7FF8
7FF0
7FE0
7FC0
7F80
7F00
7E00
7C00
7800
7000
6000
4000
0000
0000
ENDCHAR

STARTCHAR cns1_234C
ENCODING 9036
SWIDTH 854 0
DWIDTH 16 0
BBX 16 18 0 -2
BITMAP
0000
0001
0002
0004
0008
0010
0020
0040
0080
0100
0200
0400
0800
1000
2000
4000
0000
0000
ENDCHAR

STARTCHAR cns1_234D
ENCODING 9037
SWIDTH 854 0
DWIDTH 16 0
BBX 16 18 0 -2
BITMAP
0000
4000
2000
1000
0800
0400
0200
0100
0080
0040
0020
0010
0008
0004
0002
0001
0000
0000
ENDCHAR

STARTCHAR cns1_234E
ENCODING 9038
SWIDTH 854 0
DWIDTH 16 0
BBX 16 18 0 -2
BITMAP
0000
4001
2002
1004
0808
0410
0220
0140
0080
0140
0220
0410
0808
1004
2002
4001
0000
0000
ENDCHAR

STARTCHAR cns1_234F
ENCODING 9039
SWIDTH 854 0
DWIDTH 16 0
BBX 16 18 0 -2
BITMAP
0000
0000
2004
0000
0000
0000
0000
0000
0000
0000
0000
0000
0000
0000
0000
2004
0000
0000
ENDCHAR

STARTCHAR cns1_2421
ENCODING 9249
SWIDTH 854 0
DWIDTH 16 0
BBX 16 18 0 -2
BITMAP
0000
0000
03E0
0410
0808
0808
0808
0808
0808
0808
0808
0808
0808
0808
0410
03E0
0000
0000
ENDCHAR

STARTCHAR cns1_2422
ENCODING 9250
SWIDTH 854 0
DWIDTH 16 0
BBX 16 18 0 -2
BITMAP
0000
0000
0080
0180
0280
0080
0080
0080
0080
0080
0080
0080
0080
0080
0080
03E0
0000
0000
ENDCHAR

STARTCHAR cns1_2423
ENCODING 9251
SWIDTH 854 0
DWIDTH 16 0
BBX 16 18 0 -2
BITMAP
0000
0000
03E0
0410
0808
0808
0008
0010
0020
00C0
0100
0200
0400
0800
0808
0FF8
0000
0000
ENDCHAR

STARTCHAR cns1_2424
ENCODING 9252
SWIDTH 854 0
DWIDTH 16 0
BBX 16 18 0 -2
BITMAP
0000
0000
03E0
0410
0808
0008
0008
0010
00E0
0010
0008
0008
0008
0808
0410
03E0
0000
0000
ENDCHAR

STARTCHAR cns1_2425
ENCODING 9253
SWIDTH 854 0
DWIDTH 16 0
BBX 16 18 0 -2
BITMAP
0000
0000
0040
00C0
0140
0140
0240
0240
0440
0840
0840
1040
1FF8
0040
0040
01F0
0000
0000
ENDCHAR

STARTCHAR cns1_2426
ENCODING 9254
SWIDTH 854 0
DWIDTH 16 0
BBX 16 18 0 -2
BITMAP
0000
0000
0FF0
0800
0800
0800
0800
0BE0
0C10
0808
0008
0008
0008
0808
0410
03E0
0000
0000
ENDCHAR

STARTCHAR cns1_2427
ENCODING 9255
SWIDTH 854 0
DWIDTH 16 0
BBX 16 18 0 -2
BITMAP
0000
0000
03E0
0410
0808
0800
0800
0BE0
0C10
0808
0808
0808
0808
0808
0410
03E0
0000
0000
ENDCHAR

STARTCHAR cns1_2428
ENCODING 9256
SWIDTH 854 0
DWIDTH 16 0
BBX 16 18 0 -2
BITMAP
0000
0000
0FF8
0808
0808
0810
0010
0020
0020
0040
0040
0040
0040
0040
0040
0040
0000
0000
ENDCHAR

STARTCHAR cns1_2429
ENCODING 9257
SWIDTH 854 0
DWIDTH 16 0
BBX 16 18 0 -2
BITMAP
0000
0000
03E0
0410
0808
0808
0808
0410
03E0
0410
0808
0808
0808
0808
0410
03E0
0000
0000
ENDCHAR

STARTCHAR cns1_242A
ENCODING 9258
SWIDTH 854 0
DWIDTH 16 0
BBX 16 18 0 -2
BITMAP
0000
0000
03E0
0410
0808
0808
0808
0808
0808
0418
03E8
0008
0008
0808
0410
03E0
0000
0000
ENDCHAR

STARTCHAR cns1_242B
ENCODING 9259
SWIDTH 854 0
DWIDTH 16 0
BBX 16 18 0 -2
BITMAP
0000
0000
07F0
0080
0080
0080
0080
0080
0080
0080
0080
0080
0080
0080
07F0
0000
0000
0000
ENDCHAR

STARTCHAR cns1_242C
ENCODING 9260
SWIDTH 854 0
DWIDTH 16 0
BBX 16 18 0 -2
BITMAP
0000
0000
07FC
0110
0110
0110
0110
0110
0110
0110
0110
0110
0110
0110
07FC
0000
0000
0000
ENDCHAR

STARTCHAR cns1_242D
ENCODING 9261
SWIDTH 854 0
DWIDTH 16 0
BBX 16 18 0 -2
BITMAP
0000
0000
1FFC
0888
0888
0888
0888
0888
0888
0888
0888
0888
0888
0888
1FFC
0000
0000
0000
ENDCHAR

STARTCHAR cns1_242E
ENCODING 9262
SWIDTH 854 0
DWIDTH 16 0
BBX 16 18 0 -2
BITMAP
0000
0000
7F83
1101
1082
1082
1082
1044
1044
1044
1028
1028
1028
1010
7C10
0000
0000
0000
ENDCHAR

STARTCHAR cns1_242F
ENCODING 9263
SWIDTH 854 0
DWIDTH 16 0
BBX 16 18 0 -2
BITMAP
0000
0000
3C0F
0804
0408
0408
0208
0210
0210
0110
0120
00A0
00A0
0040
0040
0000
0000
0000
ENDCHAR

STARTCHAR cns1_2430
ENCODING 9264
SWIDTH 854 0
DWIDTH 16 0
BBX 16 18 0 -2
BITMAP
0000
0000
79FE
2048
1088
1088
1088
1108
0908
0908
0A08
0A08
0608
0408
043E
0000
0000
0000
ENDCHAR

STARTCHAR cns1_2431
ENCODING 9265
SWIDTH 854 0
DWIDTH 16 0
BBX 16 18 0 -2
BITMAP
0000
0000
7BFF
3192
3192
1112
1112
1112
0A12
0A12
0A12
0A12
0E12
0412
047F
0000
0000
0000
ENDCHAR

STARTCHAR cns1_2432
ENCODING 9266
SWIDTH 854 0
DWIDTH 16 0
BBX 16 18 0 -2
BITMAP
0000
0000
7BFF
20AA
20AA
112A
112A
112A
0A2A
0A2A
0A2A
0A2A
0A2A
042A
047F
0000
0000
0000
ENDCHAR

STARTCHAR cns1_2433
ENCODING 9267
SWIDTH 854 0
DWIDTH 16 0
BBX 16 18 0 -2
BITMAP
0000
0000
7F87
0902
0984
0884
0848
0828
0838
0844
0844
0844
0882
0882
7FCF
0000
0000
0000
ENDCHAR

STARTCHAR cns1_2434
ENCODING 9268
SWIDTH 854 0
DWIDTH 16 0
BBX 16 18 0 -2
BITMAP
0000
0000
780F
1002
0804
0408
0230
0140
00C0
0120
0210
0C08
1004
2002
780F
0000
0000
0000
ENDCHAR

STARTCHAR cns1_2435
ENCODING 9269
SWIDTH 854 0
DWIDTH 16 0
BBX 16 18 0 -2
BITMAP
0000
0000
0080
00C0
0080
0080
0080
0080
0080
0080
0080
0080
0080
0080
0080
0080
0000
0000
ENDCHAR

STARTCHAR cns1_2436
ENCODING 9270
SWIDTH 854 0
DWIDTH 16 0
BBX 16 18 0 -2
BITMAP
0000
0000
0020
0030
0220
0320
0220
0220
0220
0220
0220
0220
0220
0020
0020
0000
0000
0000
ENDCHAR

STARTCHAR cns1_2437
ENCODING 9271
SWIDTH 854 0
DWIDTH 16 0
BBX 16 18 0 -2
BITMAP
0000
0000
0008
000C
0808
0C88
08C8
0888
0888
0888
0888
0888
0888
0808
0008
0008
0000
0000
ENDCHAR

STARTCHAR cns1_2438
ENCODING 9272
SWIDTH 854 0
DWIDTH 16 0
BBX 16 18 0 -2
BITMAP
0000
0000
0000
2002
100F
0804
0408
0210
0120
00C0
00C0
0120
0210
0C08
3007
0000
0000
0000
ENDCHAR

STARTCHAR cns1_2439
ENCODING 9273
SWIDTH 854 0
DWIDTH 16 0
BBX 16 18 0 -2
BITMAP
0000
0000
0000
01CC
0208
0210
0320
01E0
0110
0310
0208
0408
0408
0410
0610
0230
03E0
0000
ENDCHAR

STARTCHAR cns1_243A
ENCODING 9274
SWIDTH 854 0
DWIDTH 16 0
BBX 16 18 0 -2
BITMAP
0000
0000
0000
0000
0100
0180
0100
0100
0100
0104
7FFE
0000
0000
0000
0000
0000
0000
0000
ENDCHAR

STARTCHAR cns1_243B
ENCODING 9275
SWIDTH 854 0
DWIDTH 16 0
BBX 16 18 0 -2
BITMAP
0000
0000
0000
0100
0180
0100
0102
7FFF
0000
0000
0004
3FFC
0000
0000
0000
0000
0000
0000
ENDCHAR

STARTCHAR cns1_243C
ENCODING 9276
SWIDTH 854 0
DWIDTH 16 0
BBX 16 18 0 -2
BITMAP
0000
0000
0100
0180
0100
0108
3FFE
0000
0000
0010
07F8
0000
0000
0004
3FFF
0000
0000
0000
ENDCHAR

STARTCHAR cns1_243D
ENCODING 9277
SWIDTH 854 0
DWIDTH 16 0
BBX 16 18 0 -2
BITMAP
0000
0000
0180
0300
0404
0FFE
0806
0C0C
0618
0330
0160
01C0
0360
0630
0C1C
180E
0000
0000
ENDCHAR

STARTCHAR cns1_243E
ENCODING 9278
SWIDTH 854 0
DWIDTH 16 0
BBX 16 18 0 -2
BITMAP
0000
0000
0080
00C0
0080
0080
0082
0087
3FFE
0080
0080
0080
0080
0080
0080
0080
0000
0000
ENDCHAR

STARTCHAR cns1_243F
ENCODING 9279
SWIDTH 854 0
DWIDTH 16 0
BBX 16 18 0 -2
BITMAP
0000
0000
0210
0318
0210
0210
0210
0212
3FFF
0210
0210
0210
0210
0210
0000
0000
0000
0000
ENDCHAR

STARTCHAR cns1_2440
ENCODING 9280
SWIDTH 854 0
DWIDTH 16 0
BBX 16 18 0 -2
BITMAP
0000
0000
0000
0888
0888
0888
0888
088A
7FFF
0888
0888
0888
0888
0888
0888
0000
0000
0000
ENDCHAR

STARTCHAR cns1_2441
ENCODING 9281
SWIDTH 854 0
DWIDTH 16 0
BBX 16 18 0 -2
BITMAP
0000
0000
0080
0080
0140
0140
0220
0220
0220
0410
07F0
0410
0808
0808
3C1E
0000
0000
0000
ENDCHAR

STARTCHAR cns1_2442
ENCODING 9282
SWIDTH 854 0
DWIDTH 16 0
BBX 16 18 0 -2
BITMAP
0000
0000
1FE0
0410
0408
0408
0408
0410
07E0
0410
0408
0408
0408
0410
1FE0
0000
0000
0000
ENDCHAR

STARTCHAR cns1_2443
ENCODING 9283
SWIDTH 854 0
DWIDTH 16 0
BBX 16 18 0 -2
BITMAP
0000
0000
01E8
0210
0408
0400
0800
0800
0800
0800
0800
0404
0404
0208
01F0
0000
0000
0000
ENDCHAR

STARTCHAR cns1_2444
ENCODING 9284
SWIDTH 854 0
DWIDTH 16 0
BBX 16 18 0 -2
BITMAP
0000
0000
1FE0
0410
0408
0408
0404
0404
0404
0404
0404
0408
0408
0410
1FE0
0000
0000
0000
ENDCHAR

STARTCHAR cns1_2445
ENCODING 9285
SWIDTH 854 0
DWIDTH 16 0
BBX 16 18 0 -2
BITMAP
0000
0000
1FF8
0408
0404
0400
0420
0420
07E0
0420
0420
0400
0404
0408
1FF8
0000
0000
0000
ENDCHAR

STARTCHAR cns1_2446
ENCODING 9286
SWIDTH 854 0
DWIDTH 16 0
BBX 16 18 0 -2
BITMAP
0000
0000
1FF0
0410
0408
0400
0420
0420
07E0
0420
0420
0400
0400
0400
1F00
0000
0000
0000
ENDCHAR

STARTCHAR cns1_2447
ENCODING 9287
SWIDTH 854 0
DWIDTH 16 0
BBX 16 18 0 -2
BITMAP
0000
0000
03F0
0410
0808
0800
1000
1000
1000
107C
1010
0810
0810
0430
03D0
0000
0000
0000
ENDCHAR

STARTCHAR cns1_2448
ENCODING 9288
SWIDTH 854 0
DWIDTH 16 0
BBX 16 18 0 -2
BITMAP
0000
0000
1F3E
0408
0408
0408
0408
0408
07F8
0408
0408
0408
0408
0408
1F3E
0000
0000
0000
ENDCHAR

STARTCHAR cns1_2449
ENCODING 9289
SWIDTH 854 0
DWIDTH 16 0
BBX 16 18 0 -2
BITMAP
0000
0000
03E0
0080
0080
0080
0080
0080
0080
0080
0080
0080
0080
0080
03E0
0000
0000
0000
ENDCHAR

STARTCHAR cns1_244A
ENCODING 9290
SWIDTH 854 0
DWIDTH 16 0
BBX 16 18 0 -2
BITMAP
0000
0000
00F8
0020
0020
0020
0020
0020
0020
0020
0020
0020
0620
0420
03C0
0000
0000
0000
ENDCHAR

STARTCHAR cns1_244B
ENCODING 9291
SWIDTH 854 0
DWIDTH 16 0
BBX 16 18 0 -2
BITMAP
0000
0000
3E3C
0810
0820
0840
0880
0900
0A80
0C80
0840
0820
0820
0810
3E3C
0000
0000
0000
ENDCHAR

STARTCHAR cns1_244C
ENCODING 9292
SWIDTH 854 0
DWIDTH 16 0
BBX 16 18 0 -2
BITMAP
0000
0000
1F00
0400
0400
0400
0400
0400
0400
0400
0400
0400
0404
0408
1FF8
0000
0000
0000
ENDCHAR

STARTCHAR cns1_244D
ENCODING 9293
SWIDTH 854 0
DWIDTH 16 0
BBX 16 18 0 -2
BITMAP
0000
0000
780F
180C
1414
1414
1414
1224
1224
1224
1144
1144
1144
1084
7C9F
0000
0000
0000
ENDCHAR

STARTCHAR cns1_244E
ENCODING 9294
SWIDTH 854 0
DWIDTH 16 0
BBX 16 18 0 -2
BITMAP
0000
0000
3C3E
0C08
0A08
0A08
0908
0908
0888
0848
0848
0828
0828
0818
3E08
0000
0000
0000
ENDCHAR

STARTCHAR cns1_244F
ENCODING 9295
SWIDTH 854 0
DWIDTH 16 0
BBX 16 18 0 -2
BITMAP
0000
0000
03E0
0410
0808
0808
1004
1004
1004
1004
1004
0808
0808
0410
03E0
0000
0000
0000
ENDCHAR

STARTCHAR cns1_2450
ENCODING 9296
SWIDTH 854 0
DWIDTH 16 0
BBX 16 18 0 -2
BITMAP
0000
0000
1FE0
0410
0408
0408
0408
0410
07E0
0400
0400
0400
0400
0400
1F00
0000
0000
0000
ENDCHAR

STARTCHAR cns1_2451
ENCODING 9297
SWIDTH 854 0
DWIDTH 16 0
BBX 16 18 0 -2
BITMAP
0000
0000
03E0
0410
0808
0808
1004
1004
1004
1004
1004
0988
0A48
0432
03CC
0000
0000
0000
ENDCHAR

STARTCHAR cns1_2452
ENCODING 9298
SWIDTH 854 0
DWIDTH 16 0
BBX 16 18 0 -2
BITMAP
0000
0000
1FE0
0410
0408
0408
0408
0410
07E0
0480
0440
0420
0420
0410
1F1C
0000
0000
0000
ENDCHAR

STARTCHAR cns1_2453
ENCODING 9299
SWIDTH 854 0
DWIDTH 16 0
BBX 16 18 0 -2
BITMAP
0000
0000
03D0
0430
0810
0800
0800
0600
01C0
0030
0008
0808
0808
0610
05E0
0000
0000
0000
ENDCHAR

STARTCHAR cns1_2454
ENCODING 9300
SWIDTH 854 0
DWIDTH 16 0
BBX 16 18 0 -2
BITMAP
0000
0000
0FF8
0888
1084
1084
0080
0080
0080
0080
0080
0080
0080
0080
03E0
0000
0000
0000
ENDCHAR

STARTCHAR cns1_2455
ENCODING 9301
SWIDTH 854 0
DWIDTH 16 0
BBX 16 18 0 -2
BITMAP
0000
0000
3E3E
0808
0808
0808
0808
0808
0808
0808
0808
0808
0408
0410
03E0
0000
0000
0000
ENDCHAR

STARTCHAR cns1_2456
ENCODING 9302
SWIDTH 854 0
DWIDTH 16 0
BBX 16 18 0 -2
BITMAP
0000
0000
3E3E
0808
0408
0410
0410
0220
0220
0220
0140
0140
0140
0080
0080
0000
0000
0000
ENDCHAR

STARTCHAR cns1_2457
ENCODING 9303
SWIDTH 854 0
DWIDTH 16 0
BBX 16 18 0 -2
BITMAP
0000
0000
71C7
2082
2082
1084
1144
1144
1144
0A28
0A28
0A28
0410
0410
0410
0000
0000
0000
ENDCHAR

STARTCHAR cns1_2458
ENCODING 9304
SWIDTH 854 0
DWIDTH 16 0
BBX 16 18 0 -2
BITMAP
0000
0000
1E3C
0410
0220
0220
0140
0080
0080
0140
0140
0220
0220
0410
1E3C
0000
0000
0000
ENDCHAR

STARTCHAR cns1_2459
ENCODING 9305
SWIDTH 854 0
DWIDTH 16 0
BBX 16 18 0 -2
BITMAP
0000
0000
1F3E
0408
0410
0210
0220
0120
0140
0080
0080
0080
0080
0080
03E0
0000
0000
0000
ENDCHAR

STARTCHAR cns1_245A
ENCODING 9306
SWIDTH 854 0
DWIDTH 16 0
BBX 16 18 0 -2
BITMAP
0000
0000
07F8
0410
0820
0020
0040
0040
0080
0100
0100
0208
0208
0410
0FF0
0000
0000
0000
ENDCHAR

STARTCHAR cns1_245B
ENCODING 9307
SWIDTH 854 0
DWIDTH 16 0
BBX 16 18 0 -2
BITMAP
0000
0000
0000
0000
0000
0000
01C0
0220
0420
00E0
0320
0420
0420
0460
03B0
0000
0000
0000
ENDCHAR

STARTCHAR cns1_245C
ENCODING 9308
SWIDTH 854 0
DWIDTH 16 0
BBX 16 18 0 -2
BITMAP
0000
0000
0600
0200
0200
0200
02E0
0310
0208
0208
0208
0208
0208
0310
02E0
0000
0000
0000
ENDCHAR

STARTCHAR cns1_245D
ENCODING 9309
SWIDTH 854 0
DWIDTH 16 0
BBX 16 18 0 -2
BITMAP
0000
0000
0000
0000
0000
0000
01C0
0220
0410
0400
0400
0400
0410
0220
01C0
0000
0000
0000
ENDCHAR

STARTCHAR cns1_245E
ENCODING 9310
SWIDTH 854 0
DWIDTH 16 0
BBX 16 18 0 -2
BITMAP
0000
0000
00E0
0020
0020
0020
03A0
0460
0820
0820
0820
0820
0820
0460
03B0
0000
0000
0000
ENDCHAR

STARTCHAR cns1_245F
ENCODING 9311
SWIDTH 854 0
DWIDTH 16 0
BBX 16 18 0 -2
BITMAP
0000
0000
0000
0000
0000
0000
01C0
0220
0410
07F0
0400
0400
0400
0210
01E0
0000
0000
0000
ENDCHAR

STARTCHAR cns1_2460
ENCODING 9312
SWIDTH 854 0
DWIDTH 16 0
BBX 16 18 0 -2
BITMAP
0000
0000
0040
00A0
0100
0100
07C0
0100
0100
0100
0100
0100
0100
0100
07C0
0000
0000
0000
ENDCHAR

STARTCHAR cns1_2461
ENCODING 9313
SWIDTH 854 0
DWIDTH 16 0
BBX 16 18 0 -2
BITMAP
0000
0000
0000
0000
0000
0000
0390
0468
0820
0440
0380
0400
03C0
0420
0810
0410
03E0
0000
ENDCHAR

STARTCHAR cns1_2462
ENCODING 9314
SWIDTH 854 0
DWIDTH 16 0
BBX 16 18 0 -2
BITMAP
0000
0000
0600
0200
0200
0200
02C0
0320
0210
0210
0210
0210
0210
0210
0738
0000
0000
0000
ENDCHAR

STARTCHAR cns1_2463
ENCODING 9315
SWIDTH 854 0
DWIDTH 16 0
BBX 16 18 0 -2
BITMAP
0000
0000
0080
0000
0000
0000
0180
0080
0080
0080
0080
0080
0080
0080
01C0
0000
0000
0000
ENDCHAR

STARTCHAR cns1_2464
ENCODING 9316
SWIDTH 854 0
DWIDTH 16 0
BBX 16 18 0 -2
BITMAP
0000
0000
0040
0000
0000
0000
00C0
0040
0040
0040
0040
0040
0040
0040
0040
0240
0180
0000
ENDCHAR

STARTCHAR cns1_2465
ENCODING 9317
SWIDTH 854 0
DWIDTH 16 0
BBX 16 18 0 -2
BITMAP
0000
0000
0C00
0400
0400
0400
0470
0420
0440
0480
0500
0680
0440
0420
0E38
0000
0000
0000
ENDCHAR

STARTCHAR cns1_2466
ENCODING 9318
SWIDTH 854 0
DWIDTH 16 0
BBX 16 18 0 -2
BITMAP
0000
0000
0180
0080
0080
0080
0080
0080
0080
0080
0080
0080
0080
0080
01C0
0000
0000
0000
ENDCHAR

STARTCHAR cns1_2467
ENCODING 9319
SWIDTH 854 0
DWIDTH 16 0
BBX 16 18 0 -2
BITMAP
0000
0000
0000
0000
0000
0000
3630
1948
1084
1084
1084
1084
1084
1084
39CE
0000
0000
0000
ENDCHAR

STARTCHAR cns1_2468
ENCODING 9320
SWIDTH 854 0
DWIDTH 16 0
BBX 16 18 0 -2
BITMAP
0000
0000
0000
0000
0000
0000
06C0
0320
0210
0210
0210
0210
0210
0210
0738
0000
0000
0000
ENDCHAR

STARTCHAR cns1_2469
ENCODING 9321
SWIDTH 854 0
DWIDTH 16 0
BBX 16 18 0 -2
BITMAP
0000
0000
0000
0000
0000
0000
01C0
0220
0410
0410
0410
0410
0410
0220
01C0
0000
0000
0000
ENDCHAR

STARTCHAR cns1_246A
ENCODING 9322
SWIDTH 854 0
DWIDTH 16 0
BBX 16 18 0 -2
BITMAP
0000
0000
0000
0000
0000
0000
06E0
0310
0208
0208
0208
0208
0208
0310
02E0
0200
0700
0000
ENDCHAR

STARTCHAR cns1_246B
ENCODING 9323
SWIDTH 854 0
DWIDTH 16 0
BBX 16 18 0 -2
BITMAP
0000
0000
0000
0000
0000
0000
03A0
0460
0820
0820
0820
0820
0820
0460
03A0
0020
0070
0000
ENDCHAR

STARTCHAR cns1_246C
ENCODING 9324
SWIDTH 854 0
DWIDTH 16 0
BBX 16 18 0 -2
BITMAP
0000
0000
0000
0000
0000
0000
0360
0190
0100
0100
0100
0100
0100
0100
03C0
0000
0000
0000
ENDCHAR

STARTCHAR cns1_246D
ENCODING 9325
SWIDTH 854 0
DWIDTH 16 0
BBX 16 18 0 -2
BITMAP
0000
0000
0000
0000
0000
0000
03C0
0420
0400
0200
01C0
0020
0410
0410
03E0
0000
0000
0000
ENDCHAR

STARTCHAR cns1_246E
ENCODING 9326
SWIDTH 854 0
DWIDTH 16 0
BBX 16 18 0 -2
BITMAP
0000
0000
0080
0080
0080
0080
03E0
0080
0080
0080
0080
0080
0080
0090
0060
0000
0000
0000
ENDCHAR

STARTCHAR cns1_246F
ENCODING 9327
SWIDTH 854 0
DWIDTH 16 0
BBX 16 18 0 -2
BITMAP
0000
0000
0000
0000
0000
0000
0C70
0410
0410
0410
0410
0410
0410
0230
01D8
0000
0000
0000
ENDCHAR

STARTCHAR cns1_2470
ENCODING 9328
SWIDTH 854 0
DWIDTH 16 0
BBX 16 18 0 -2
BITMAP
0000
0000
0000
0000
0000
0000
0E38
0410
0410
0220
0220
0140
0140
0080
0080
0000
0000
0000
ENDCHAR

STARTCHAR cns1_2471
ENCODING 9329
SWIDTH 854 0
DWIDTH 16 0
BBX 16 18 0 -2
BITMAP
0000
0000
0000
0000
0000
0000
39CE
1084
1144
0948
0A28
0A28
0A28
0410
0410
0000
0000
0000
ENDCHAR

STARTCHAR cns1_2472
ENCODING 9330
SWIDTH 854 0
DWIDTH 16 0
BBX 16 18 0 -2
BITMAP
0000
0000
0000
0000
0000
0000
0E38
0410
0220
0140
0080
0140
0220
0410
0E38
0000
0000
0000
ENDCHAR

STARTCHAR cns1_2473
ENCODING 9331
SWIDTH 854 0
DWIDTH 16 0
BBX 16 18 0 -2
BITMAP
0000
0000
0000
0000
0000
0000
0E38
0410
0420
0220
0240
0140
0140
0080
0100
0900
0600
0000
ENDCHAR

STARTCHAR cns1_2474
ENCODING 9332
SWIDTH 854 0
DWIDTH 16 0
BBX 16 18 0 -2
BITMAP
0000
0000
0000
0000
0000
0000
03F0
0220
0440
0040
0080
0100
0110
0220
07E0
0000
0000
0000
ENDCHAR

STARTCHAR cns1_2475
ENCODING 9333
SWIDTH 854 0
DWIDTH 16 0
BBX 16 18 0 -2
BITMAP
0000
0000
0080
0080
0140
0140
0220
0220
0220
0410
07F0
0410
0808
0808
1004
3C1E
0000
0000
ENDCHAR

STARTCHAR cns1_2476
ENCODING 9334
SWIDTH 854 0
DWIDTH 16 0
BBX 16 18 0 -2
BITMAP
0000
0000
1FE0
0418
0404
0404
0404
0408
07F0
0408
0404
0402
0402
0402
0402
1FFC
0000
0000
ENDCHAR

STARTCHAR cns1_2477
ENCODING 9335
SWIDTH 854 0
DWIDTH 16 0
BBX 16 18 0 -2
BITMAP
0000
0000
1FFF
0403
0401
0401
0400
0400
0400
0400
0400
0400
0400
0400
0400
1F80
0000
0000
ENDCHAR

STARTCHAR cns1_2478
ENCODING 9336
SWIDTH 854 0
DWIDTH 16 0
BBX 16 18 0 -2
BITMAP
0000
0000
00C0
00C0
0120
0120
0210
0210
0408
0408
0804
0804
1002
1002
2001
3FFF
0000
0000
ENDCHAR

STARTCHAR cns1_2479
ENCODING 9337
SWIDTH 854 0
DWIDTH 16 0
BBX 16 18 0 -2
BITMAP
0000
0000
1FFC
0804
0804
0800
0820
0820
0FE0
0820
0820
0800
0800
0804
0804
1FFC
0000
0000
ENDCHAR

STARTCHAR cns1_247A
ENCODING 9338
SWIDTH 854 0
DWIDTH 16 0
BBX 16 18 0 -2
BITMAP
0000
0000
3FFC
2008
2010
2020
0020
0040
0080
0100
0200
0400
0404
0804
1004
3FFE
0000
0000
ENDCHAR

STARTCHAR cns1_247B
ENCODING 9339
SWIDTH 854 0
DWIDTH 16 0
BBX 16 18 0 -2
BITMAP
0000
0000
7C3E
1008
1008
1008
1008
1008
1FF8
1008
1008
1008
1008
1008
1008
7C3E
0000
0000
ENDCHAR

STARTCHAR cns1_247C
ENCODING 9340
SWIDTH 854 0
DWIDTH 16 0
BBX 16 18 0 -2
BITMAP
0000
0000
03E0
0C18
1004
1004
1004
1224
1224
13E4
1224
1224
1004
180C
0410
03E0
0000
0000
ENDCHAR

STARTCHAR cns1_247D
ENCODING 9341
SWIDTH 854 0
DWIDTH 16 0
BBX 16 18 0 -2
BITMAP
0000
0000
07F0
0080
0080
0080
0080
0080
0080
0080
0080
0080
0080
0080
0080
07F0
0000
0000
ENDCHAR

STARTCHAR cns1_247E
ENCODING 9342
SWIDTH 854 0
DWIDTH 16 0
BBX 16 18 0 -2
BITMAP
0000
0000
3E3C
0808
0810
0820
0840
0880
0FC0
0840
0820
0820
0810
0808
0808
3E3E
0000
0000
ENDCHAR

STARTCHAR cns1_2521
ENCODING 9505
SWIDTH 854 0
DWIDTH 16 0
BBX 16 18 0 -2
BITMAP
0000
0000
00C0
00C0
0120
0120
0210
0210
0210
0408
0408
0408
0804
0804
1002
3C1F
0000
0000
ENDCHAR

STARTCHAR cns1_2522
ENCODING 9506
SWIDTH 854 0
DWIDTH 16 0
BBX 16 18 0 -2
BITMAP
0000
0000
7807
1002
1806
140A
140A
1212
1212
1122
1122
10C2
1002
1002
1002
780F
0000
0000
ENDCHAR

STARTCHAR cns1_2523
ENCODING 9507
SWIDTH 854 0
DWIDTH 16 0
BBX 16 18 0 -2
BITMAP
0000
0000
1C1E
0C04
0A04
0A04
0904
0884
0884
0844
0844
0824
0814
0814
080C
1C04
0000
0000
ENDCHAR

STARTCHAR cns1_2524
ENCODING 9508
SWIDTH 854 0
DWIDTH 16 0
BBX 16 18 0 -2
BITMAP
0000
0000
0000
0FFF
1004
0000
0000
0004
07F8
0400
0000
0000
0000
0000
0006
3FF8
0000
0000
ENDCHAR

STARTCHAR cns1_2525
ENCODING 9509
SWIDTH 854 0
DWIDTH 16 0
BBX 16 18 0 -2
BITMAP
0000
0000
03F0
0C0C
1002
1002
1002
1002
1002
1002
1002
1002
1002
0804
0408
03F0
0000
0000
ENDCHAR

STARTCHAR cns1_2526
ENCODING 9510
SWIDTH 854 0
DWIDTH 16 0
BBX 16 18 0 -2
BITMAP
0000
0000
1FFE
0408
0408
0408
0408
0408
0408
0408
0408
0408
0408
0408
0408
1E1E
0000
0000
ENDCHAR

STARTCHAR cns1_2527
ENCODING 9511
SWIDTH 854 0
DWIDTH 16 0
BBX 16 18 0 -2
BITMAP
0000
0000
1FF0
040C
0404
0404
0404
0404
0404
0608
05F0
0400
0400
0400
0400
1F80
0000
0000
ENDCHAR

STARTCHAR cns1_2528
ENCODING 9512
SWIDTH 854 0
DWIDTH 16 0
BBX 16 18 0 -2
BITMAP
0000
0000
0FFC
0C02
0402
0600
0100
0180
0060
0080
0100
0200
0402
0402
0804
1FFC
0000
0000
ENDCHAR

STARTCHAR cns1_2529
ENCODING 9513
SWIDTH 854 0
DWIDTH 16 0
BBX 16 18 0 -2
BITMAP
0000
0000
1FFF
1041
1041
1041
0040
0040
0040
0040
0040
0040
0040
0040
0040
01F0
0000
0000
ENDCHAR

STARTCHAR cns1_252A
ENCODING 9514
SWIDTH 854 0
DWIDTH 16 0
BBX 16 18 0 -2
BITMAP
0000
0000
0E38
1144
2082
0080
0080
0080
0080
0080
0080
0080
0080
0080
0080
03E0
0000
0000
ENDCHAR

STARTCHAR cns1_252B
ENCODING 9515
SWIDTH 854 0
DWIDTH 16 0
BBX 16 18 0 -2
BITMAP
0000
0000
03E0
0080
07F0
388E
2082
4081
4081
4081
2082
2082
1C9C
03F0
0080
03E0
0000
0000
ENDCHAR

STARTCHAR cns1_252C
ENCODING 9516
SWIDTH 854 0
DWIDTH 16 0
BBX 16 18 0 -2
BITMAP
0000
0000
7E1F
2004
1008
0810
0420
0240
0180
0080
0140
0220
0410
0808
1004
7C1F
0000
0000
ENDCHAR

STARTCHAR cns1_252D
ENCODING 9517
SWIDTH 854 0
DWIDTH 16 0
BBX 16 18 0 -2
BITMAP
0000
0000
21C2
708F
5089
1088
1088
1088
1088
1088
1888
07F0
0080
0080
0080
03E0
0000
0000
ENDCHAR

STARTCHAR cns1_252E
ENCODING 9518
SWIDTH 854 0
DWIDTH 16 0
BBX 16 18 0 -2
BITMAP
0000
0000
01E0
0618
0408
0804
1002
1002
0804
0804
0408
0718
0120
1122
1122
1F3E
0000
0000
ENDCHAR

STARTCHAR cns1_252F
ENCODING 9519
SWIDTH 854 0
DWIDTH 16 0
BBX 16 18 0 -2
BITMAP
0000
0000
0000
0000
0000
0000
0000
03E8
043C
0410
0810
0810
0810
0830
0450
07CC
0000
0000
ENDCHAR

STARTCHAR cns1_2530
ENCODING 9520
SWIDTH 854 0
DWIDTH 16 0
BBX 16 18 0 -2
BITMAP
0000
0000
0070
01DC
0104
0204
0204
0278
0410
0418
0404
0C04
0808
1FF0
1000
1000
1000
0000
ENDCHAR

STARTCHAR cns1_2531
ENCODING 9521
SWIDTH 854 0
DWIDTH 16 0
BBX 16 18 0 -2
BITMAP
0000
0000
0000
0000
0000
0000
0000
0708
0888
08F0
0020
0040
0080
0100
0200
0400
0000
0000
ENDCHAR

STARTCHAR cns1_2532
ENCODING 9522
SWIDTH 854 0
DWIDTH 16 0
BBX 16 18 0 -2
BITMAP
0000
0000
03E0
0410
0300
00C0
0030
01D0
0210
0408
0808
0808
0810
0810
0420
03C0
0000
0000
ENDCHAR

STARTCHAR cns1_2533
ENCODING 9523
SWIDTH 854 0
DWIDTH 16 0
BBX 16 18 0 -2
BITMAP
0000
0000
0000
0000
0000
0000
00E0
0318
0408
0400
0400
03E0
0400
0400
0408
0210
01E0
0000
ENDCHAR

STARTCHAR cns1_2534
ENCODING 9524
SWIDTH 854 0
DWIDTH 16 0
BBX 16 18 0 -2
BITMAP
0000
0000
0180
0610
0410
03E0
0100
0200
0200
0400
0400
0400
0780
0060
0410
07F0
0000
0000
ENDCHAR

STARTCHAR cns1_2535
ENCODING 9525
SWIDTH 854 0
DWIDTH 16 0
BBX 16 18 0 -2
BITMAP
0000
0000
0000
0000
0000
0000
0000
0DF0
0408
0208
0408
0408
0410
0810
0810
0810
0010
0000
ENDCHAR

STARTCHAR cns1_2536
ENCODING 9526
SWIDTH 854 0
DWIDTH 16 0
BBX 16 18 0 -2
BITMAP
0000
0000
01E0
0210
0408
0408
0408
0808
0FF8
0808
0808
0810
0810
0820
0440
0380
0000
0000
ENDCHAR

STARTCHAR cns1_2537
ENCODING 9527
SWIDTH 854 0
DWIDTH 16 0
BBX 16 18 0 -2
BITMAP
0000
0000
0000
0000
0000
0000
0000
01C0
0100
0100
0200
0200
0400
0420
0440
0380
0000
0000
ENDCHAR

STARTCHAR cns1_2538
ENCODING 9528
SWIDTH 854 0
DWIDTH 16 0
BBX 16 18 0 -2
BITMAP
0000
0000
0000
0000
0000
0000
0000
0F30
0220
04C0
0540
0540
0540
0A44
0848
0830
0000
0000
ENDCHAR

STARTCHAR cns1_2539
ENCODING 9529
SWIDTH 854 0
DWIDTH 16 0
BBX 16 18 0 -2
BITMAP
0000
0000
0100
0080
0040
0040
0040
0040
0040
01E0
0120
0120
0120
0210
0211
0C0E
0000
0000
ENDCHAR

STARTCHAR cns1_253A
ENCODING 9530
SWIDTH 854 0
DWIDTH 16 0
BBX 16 18 0 -2
BITMAP
0000
0000
0000
0000
0000
0000
0000
0208
0208
0208
0410
0410
0410
0414
0634
05D8
0800
0000
ENDCHAR

STARTCHAR cns1_253B
ENCODING 9531
SWIDTH 854 0
DWIDTH 16 0
BBX 16 18 0 -2
BITMAP
0000
0000
0000
0000
0000
0000
0000
0708
0208
0208
0110
0110
0110
0220
02C0
0700
0000
0000
ENDCHAR

STARTCHAR cns1_253C
ENCODING 9532
SWIDTH 854 0
DWIDTH 16 0
BBX 16 18 0 -2
BITMAP
0000
0300
040C
0430
03C0
0401
0306
00F8
0100
0200
01C0
003E
0081
0102
00FC
0000
0000
0000
ENDCHAR

STARTCHAR cns1_253D
ENCODING 9533
SWIDTH 854 0
DWIDTH 16 0
BBX 16 18 0 -2
BITMAP
0000
0000
0000
0000
0000
0000
00E0
0110
0208
0408
0408
0408
0410
0410
0420
03C0
0000
0000
ENDCHAR

STARTCHAR cns1_253E
ENCODING 9534
SWIDTH 854 0
DWIDTH 16 0
BBX 16 18 0 -2
BITMAP
0000
0000
0000
0000
0000
0000
0004
07F8
0910
0210
0220
0420
0440
0448
0830
1020
0000
0000
ENDCHAR

STARTCHAR cns1_253F
ENCODING 9535
SWIDTH 854 0
DWIDTH 16 0
BBX 16 18 0 -2
BITMAP
0000
0000
0000
0000
0000
0000
0000
01F0
0208
0408
0408
0408
0400
0610
09E0
0800
0800
0000
ENDCHAR

STARTCHAR cns1_2540
ENCODING 9536
SWIDTH 854 0
DWIDTH 16 0
BBX 16 18 0 -2
BITMAP
0000
0000
0000
0000
0000
0000
0002
03FE
0420
0810
1010
1010
1010
1010
0820
07C0
0000
0000
ENDCHAR

STARTCHAR cns1_2541
ENCODING 9537
SWIDTH 854 0
DWIDTH 16 0
BBX 16 18 0 -2
BITMAP
0000
0000
0000
0000
0000
0000
0010
07F0
0900
0100
0200
0200
0400
0420
0440
0380
0000
0000
ENDCHAR

STARTCHAR cns1_2542
ENCODING 9538
SWIDTH 854 0
DWIDTH 16 0
BBX 16 18 0 -2
BITMAP
0000
0000
0000
0000
0000
0000
0000
0610
0108
0108
0208
0608
0410
0410
0220
01C0
0000
0000
ENDCHAR

STARTCHAR cns1_2543
ENCODING 9539
SWIDTH 854 0
DWIDTH 16 0
BBX 16 18 0 -2
BITMAP
0000
0000
0020
0070
0040
0040
01F0
0648
0448
0C44
0844
0848
0488
07F0
0100
0100
0300
0000
ENDCHAR

STARTCHAR cns1_2544
ENCODING 9540
SWIDTH 854 0
DWIDTH 16 0
BBX 16 18 0 -2
BITMAP
0000
0000
0000
0000
0000
0000
0000
071C
0108
0110
0090
0060
00C0
0340
0440
0842
083C
0000
ENDCHAR

STARTCHAR cns1_2545
ENCODING 9541
SWIDTH 854 0
DWIDTH 16 0
BBX 16 18 0 -2
BITMAP
0000
0000
0020
0040
0040
0040
0040
0758
0444
0844
0844
0848
0488
0490
03E0
0100
0100
0000
ENDCHAR

STARTCHAR cns1_2546
ENCODING 9542
SWIDTH 854 0
DWIDTH 16 0
BBX 16 18 0 -2
BITMAP
0000
0000
0000
0000
0000
0000
0000
0304
0404
0842
1042
1042
1044
0844
08D8
0760
0000
0000
ENDCHAR

STARTCHAR cns1_2547
ENCODING 9543
SWIDTH 854 0
DWIDTH 16 0
BBX 16 18 0 -2
BITMAP
0000
0000
0400
0400
0800
1000
1FFC
0004
0004
0008
0008
0010
0010
0220
0140
0080
0000
0000
ENDCHAR

STARTCHAR cns1_2548
ENCODING 9544
SWIDTH 854 0
DWIDTH 16 0
BBX 16 18 0 -2
BITMAP
0000
0000
0200
0200
0400
1FFC
0004
1008
0810
0420
0240
0180
0140
0630
180C
6003
0000
0000
ENDCHAR

STARTCHAR cns1_2549
ENCODING 9545
SWIDTH 854 0
DWIDTH 16 0
BBX 16 18 0 -2
BITMAP
0000
0000
0000
0000
1FFC
1004
1004
1004
1004
1004
1004
1004
1004
1004
1004
0000
0000
0000
ENDCHAR

STARTCHAR cns1_254A
ENCODING 9546
SWIDTH 854 0
DWIDTH 16 0
BBX 16 18 0 -2
BITMAP
0000
0000
0000
0000
1FFC
1000
1000
1000
1000
1000
1000
1000
1000
1000
1FFC
0000
0000
0000
ENDCHAR

STARTCHAR cns1_254B
ENCODING 9547
SWIDTH 854 0
DWIDTH 16 0
BBX 16 18 0 -2
BITMAP
0000
0000
0400
0400
0800
1FFC
0204
0204
0204
0404
0404
0808
0808
1090
2050
0020
0000
0000
ENDCHAR

STARTCHAR cns1_254C
ENCODING 9548
SWIDTH 854 0
DWIDTH 16 0
BBX 16 18 0 -2
BITMAP
0000
0000
0040
0040
0040
00FE
3F80
0080
0080
0100
0110
0208
0404
087E
3FC2
1002
0000
0000
ENDCHAR

STARTCHAR cns1_254D
ENCODING 9549
SWIDTH 854 0
DWIDTH 16 0
BBX 16 18 0 -2
BITMAP
0000
0000
1FF0
0010
0020
0040
00FE
0004
0004
0004
0008
0008
0010
0110
00A0
0040
0000
0000
ENDCHAR

STARTCHAR cns1_254E
ENCODING 9550
SWIDTH 854 0
DWIDTH 16 0
BBX 16 18 0 -2
BITMAP
0000
0000
0420
0420
0840
1040
1FFC
0084
0104
0208
0208
0410
0810
1020
6140
0080
0000
0000
ENDCHAR

STARTCHAR cns1_254F
ENCODING 9551
SWIDTH 854 0
DWIDTH 16 0
BBX 16 18 0 -2
BITMAP
0000
0000
0000
0210
0210
0420
0840
1080
2100
1080
0840
0420
0210
0210
0210
0000
0000
0000
ENDCHAR

STARTCHAR cns1_2550
ENCODING 9552
SWIDTH 854 0
DWIDTH 16 0
BBX 16 18 0 -2
BITMAP
0000
0000
1FFE
0080
0080
0100
0200
03FC
0004
0004
0008
0008
0010
0110
00A0
0040
0000
0000
ENDCHAR

STARTCHAR cns1_2551
ENCODING 9553
SWIDTH 854 0
DWIDTH 16 0
BBX 16 18 0 -2
BITMAP
0000
0000
07FE
0400
0400
0400
0400
0400
0400
0400
0800
0800
0800
1000
1000
2000
0000
0000
ENDCHAR

STARTCHAR cns1_2552
ENCODING 9554
SWIDTH 854 0
DWIDTH 16 0
BBX 16 18 0 -2
BITMAP
0000
0000
0010
0010
1010
1010
1010
1010
1030
10D0
1310
1C10
0010
0010
0010
0010
0000
0000
ENDCHAR

STARTCHAR cns1_2553
ENCODING 9555
SWIDTH 854 0
DWIDTH 16 0
BBX 16 18 0 -2
BITMAP
0000
0000
0040
0040
0080
0100
0200
0400
0800
0800
0400
0200
0100
0080
0040
0040
0000
0000
ENDCHAR

STARTCHAR cns1_2554
ENCODING 9556
SWIDTH 854 0
DWIDTH 16 0
BBX 16 18 0 -2
BITMAP
0000
0000
0000
3FFE
0080
0080
0080
0080
0080
0080
0080
0080
0080
0080
0080
0000
0000
0000
ENDCHAR

STARTCHAR cns1_2555
ENCODING 9557
SWIDTH 854 0
DWIDTH 16 0
BBX 16 18 0 -2
BITMAP
0000
0000
0000
0080
1084
1084
1084
1084
1FFC
0080
0080
0080
0080
3FFE
0000
0000
0000
0000
ENDCHAR

STARTCHAR cns1_2556
ENCODING 9558
SWIDTH 854 0
DWIDTH 16 0
BBX 16 18 0 -2
BITMAP
0000
0000
0040
0040
0088
0108
0610
1820
0040
00C0
0340
1C40
0040
0040
0040
0040
0000
0000
ENDCHAR

STARTCHAR cns1_2557
ENCODING 9559
SWIDTH 854 0
DWIDTH 16 0
BBX 16 18 0 -2
BITMAP
0000
0000
0000
0FFC
0004
0004
0004
07FC
0400
0400
0400
0400
0400
0800
0800
3000
0000
0000
ENDCHAR

STARTCHAR cns1_2558
ENCODING 9560
SWIDTH 854 0
DWIDTH 16 0
BBX 16 18 0 -2
BITMAP
0000
0000
0000
0FF8
0808
0808
0A08
0908
0888
0888
0808
0808
0808
0808
0FF8
0000
0000
0000
ENDCHAR

STARTCHAR cns1_2559
ENCODING 9561
SWIDTH 854 0
DWIDTH 16 0
BBX 16 18 0 -2
BITMAP
0000
0000
0000
3FF8
0808
0808
0808
0808
0910
0890
0860
0800
0800
0800
0800
0800
0000
0000
ENDCHAR

STARTCHAR cns1_255A
ENCODING 9562
SWIDTH 854 0
DWIDTH 16 0
BBX 16 18 0 -2
BITMAP
0000
0000
0100
0100
0100
1FFC
0100
0100
0200
07F8
0008
0010
0010
0020
0040
0080
0000
0000
ENDCHAR

STARTCHAR cns1_255B
ENCODING 9563
SWIDTH 854 0
DWIDTH 16 0
BBX 16 18 0 -2
BITMAP
0000
0000
0000
0100
0100
0100
0200
0200
0200
0420
0410
0808
10F8
3F04
0004
0000
0000
0000
ENDCHAR

STARTCHAR cns1_255C
ENCODING 9564
SWIDTH 854 0
DWIDTH 16 0
BBX 16 18 0 -2
BITMAP
0000
0000
0000
1004
0808
0410
0220
0140
0080
0080
0080
0080
0080
0080
0080
0080
0000
0000
ENDCHAR

STARTCHAR cns1_255D
ENCODING 9565
SWIDTH 854 0
DWIDTH 16 0
BBX 16 18 0 -2
BITMAP
0000
0000
0000
1FFC
0040
0040
0040
0040
03C0
0C00
1000
1000
1000
0830
07C0
0000
0000
0000
ENDCHAR

STARTCHAR cns1_255E
ENCODING 9566
SWIDTH 854 0
DWIDTH 16 0
BBX 16 18 0 -2
BITMAP
0000
0000
0040
0040
0040
3FFE
0040
0040
0040
03C0
0C00
1000
1000
0C18
03E0
0000
0000
0000
ENDCHAR

STARTCHAR cns1_255F
ENCODING 9567
SWIDTH 854 0
DWIDTH 16 0
BBX 16 18 0 -2
BITMAP
0000
0000
0000
0820
0820
0820
0820
3FFC
0820
0820
0820
0820
0800
0800
0800
07F0
0000
0000
ENDCHAR

STARTCHAR cns1_2560
ENCODING 9568
SWIDTH 854 0
DWIDTH 16 0
BBX 16 18 0 -2
BITMAP
0000
0000
0000
0FFC
0840
0840
0840
1080
2080
3FFC
0108
0108
0210
0410
0820
1040
0000
0000
ENDCHAR

STARTCHAR cns1_2561
ENCODING 9569
SWIDTH 854 0
DWIDTH 16 0
BBX 16 18 0 -2
BITMAP
0000
0000
0000
0600
0900
0900
1080
2080
0040
0040
0020
0020
0010
0008
0004
0002
0000
0000
ENDCHAR

STARTCHAR cns1_2562
ENCODING 9570
SWIDTH 854 0
DWIDTH 16 0
BBX 16 18 0 -2
BITMAP
0000
0000
0000
0100
0200
0420
0820
1040
0C80
0300
0200
0420
0810
10F8
3F08
0008
0000
0000
ENDCHAR

STARTCHAR cns1_2563
ENCODING 9571
SWIDTH 854 0
DWIDTH 16 0
BBX 16 18 0 -2
BITMAP
0000
0000
0000
1FFC
1004
0808
0410
0220
0140
0080
0140
0220
0410
1808
6006
0000
0000
0000
ENDCHAR

STARTCHAR cns1_2564
ENCODING 9572
SWIDTH 854 0
DWIDTH 16 0
BBX 16 18 0 -2
BITMAP
0000
0000
0000
1FF8
0410
0410
0410
0820
0820
1FFC
0004
0004
0004
0008
0008
0010
0020
0000
ENDCHAR

STARTCHAR cns1_2565
ENCODING 9573
SWIDTH 854 0
DWIDTH 16 0
BBX 16 18 0 -2
BITMAP
0000
0000
0000
0400
0400
0800
0800
1FF8
0008
0008
0008
0010
0010
0020
0040
0000
0000
0000
ENDCHAR

STARTCHAR cns1_2566
ENCODING 9574
SWIDTH 854 0
DWIDTH 16 0
BBX 16 18 0 -2
BITMAP
0000
0000
0080
0080
0080
0080
3FFC
0080
0080
0140
0140
0140
0240
0240
0440
183E
0000
0000
ENDCHAR

STARTCHAR cns1_2567
ENCODING 9575
SWIDTH 854 0
DWIDTH 16 0
BBX 16 18 0 -2
BITMAP
0000
0000
0000
0000
0000
0040
0040
0080
0100
0200
0400
0800
107C
1F80
0000
0000
0000
0000
ENDCHAR

STARTCHAR cns1_2568
ENCODING 9576
SWIDTH 854 0
DWIDTH 16 0
BBX 16 18 0 -2
BITMAP
0000
0000
0000
0440
0440
0440
0440
0440
0440
0840
0840
0840
1040
1040
203C
0000
0000
0000
ENDCHAR

STARTCHAR cns1_2569
ENCODING 9577
SWIDTH 854 0
DWIDTH 16 0
BBX 16 18 0 -2
BITMAP
0000
0000
0000
0000
0000
0000
0000
0000
3FFE
0000
0000
0000
0000
0000
0000
0000
0000
0000
ENDCHAR

STARTCHAR cns1_256A
ENCODING 9578
SWIDTH 854 0
DWIDTH 16 0
BBX 16 18 0 -2
BITMAP
0000
0000
0000
0004
0804
0608
0110
00A0
0040
00A0
0110
0208
0408
0804
3004
0000
0000
0000
ENDCHAR

STARTCHAR cns1_256B
ENCODING 9579
SWIDTH 854 0
DWIDTH 16 0
BBX 16 18 0 -2
BITMAP
0000
0000
0000
0000
1004
1004
1004
1004
1004
1004
1004
1004
1004
1FFC
0000
0000
0000
0000
ENDCHAR

STARTCHAR cns1_256C
ENCODING 9580
SWIDTH 854 0
DWIDTH 16 0
BBX 16 18 0 -2
BITMAP
0000
0000
0000
0000
0000
0000
0000
01C0
01C0
0080
0000
0000
0000
0000
0000
0000
0000
0000
ENDCHAR

STARTCHAR cns1_256D
ENCODING 9581
SWIDTH 854 0
DWIDTH 16 0
BBX 16 18 0 -2
BITMAP
0000
0000
0000
0000
0000
0000
0000
0000
0000
0000
0000
0000
0000
0000
0000
0000
0000
0000
ENDCHAR

STARTCHAR cns1_256E
ENCODING 9582
SWIDTH 854 0
DWIDTH 16 0
BBX 16 18 0 -2
BITMAP
0000
0000
0000
0000
0000
0010
0010
0020
0040
0080
0100
0600
1800
0000
0000
0000
0000
0000
ENDCHAR

STARTCHAR cns1_256F
ENCODING 9583
SWIDTH 854 0
DWIDTH 16 0
BBX 16 18 0 -2
BITMAP
0000
0000
0000
0000
0000
0004
0008
0810
0820
0440
0480
0300
0000
0000
0000
0000
0000
0000
ENDCHAR

STARTCHAR cns1_2570
ENCODING 9584
SWIDTH 854 0
DWIDTH 16 0
BBX 16 18 0 -2
BITMAP
0000
0000
0000
0000
0000
0200
0100
0080
0040
0040
0020
0020
0000
0000
0000
0000
0000
0000
ENDCHAR

STARTCHAR cns1_2621
ENCODING 9761
SWIDTH 854 0
DWIDTH 16 0
BBX 16 18 0 -2
BITMAP
0000
01C0
0630
0808
1084
2182
2082
4081
4081
4081
4081
4081
2082
23E2
1004
0C18
03E0
0000
ENDCHAR

STARTCHAR cns1_2622
ENCODING 9762
SWIDTH 854 0
DWIDTH 16 0
BBX 16 18 0 -2
BITMAP
0000
01C0
0630
0808
13C4
2422
2421
4041
4081
4081
4101
4221
2421
27C2
1004
0818
07E0
0000
ENDCHAR

STARTCHAR cns1_2623
ENCODING 9763
SWIDTH 854 0
DWIDTH 16 0
BBX 16 18 0 -2
BITMAP
0000
01C0
0630
0808
1384
2442
2041
4041
4181
4041
4021
4021
2021
2442
1384
0818
07E0
0000
ENDCHAR

STARTCHAR cns1_2624
ENCODING 9764
SWIDTH 854 0
DWIDTH 16 0
BBX 16 18 0 -2
BITMAP
0000
01C0
0630
080C
1086
2182
4181
4281
4281
4481
4481
4FE1
2082
2082
13E4
0C18
03E0
0000
ENDCHAR

STARTCHAR cns1_2625
ENCODING 9765
SWIDTH 854 0
DWIDTH 16 0
BBX 16 18 0 -2
BITMAP
0000
01C0
0630
080C
13E6
2202
4201
4201
4381
4041
4041
4021
2022
2442
1384
0818
07E0
0000
ENDCHAR

STARTCHAR cns1_2626
ENCODING 9766
SWIDTH 854 0
DWIDTH 16 0
BBX 16 18 0 -2
BITMAP
0000
01C0
0630
080C
11C6
2222
4401
4401
4BC1
4821
4821
4821
2422
2442
1384
0818
07E0
0000
ENDCHAR

STARTCHAR cns1_2627
ENCODING 9767
SWIDTH 854 0
DWIDTH 16 0
BBX 16 18 0 -2
BITMAP
0000
01C0
0630
080C
13F6
2412
4421
4021
4041
4041
4081
4081
2082
2082
1084
0818
07E0
0000
ENDCHAR

STARTCHAR cns1_2628
ENCODING 9768
SWIDTH 854 0
DWIDTH 16 0
BBX 16 18 0 -2
BITMAP
0000
01C0
0630
080C
1186
2242
4241
4241
4181
4241
4421
4421
2422
2242
1184
0818
07E0
0000
ENDCHAR

STARTCHAR cns1_2629
ENCODING 9769
SWIDTH 854 0
DWIDTH 16 0
BBX 16 18 0 -2
BITMAP
0000
01C0
0630
080C
1386
2442
4821
4821
4821
4421
43C1
4041
2042
2442
1384
0818
07E0
0000
ENDCHAR

STARTCHAR cns1_262A
ENCODING 9770
SWIDTH 854 0
DWIDTH 16 0
BBX 16 18 0 -2
BITMAP
0000
01C0
0630
080C
1002
2472
4489
4489
4489
4489
4489
4489
248A
2E72
1004
0C18
03E0
0000
ENDCHAR

STARTCHAR cns1_262B
ENCODING 9771
SWIDTH 854 0
DWIDTH 16 0
BBX 16 18 0 -2
BITMAP
0000
0000
0808
1184
2084
2082
2082
4081
4081
4081
4081
4081
2082
2082
13E4
1804
0000
0000
ENDCHAR

STARTCHAR cns1_262C
ENCODING 9772
SWIDTH 854 0
DWIDTH 16 0
BBX 16 18 0 -2
BITMAP
0000
0000
0808
11C4
2224
2412
2212
4021
4021
4041
4081
4101
2112
2212
17E4
1804
0000
0000
ENDCHAR

STARTCHAR cns1_262D
ENCODING 9773
SWIDTH 854 0
DWIDTH 16 0
BBX 16 18 0 -2
BITMAP
0000
0000
0800
11C4
2224
2232
2022
4021
41C1
40E1
4031
4011
2612
2632
1264
1984
0000
0000
ENDCHAR

STARTCHAR cns1_262E
ENCODING 9774
SWIDTH 854 0
DWIDTH 16 0
BBX 16 18 0 -2
BITMAP
0000
0000
0808
1044
2044
20C2
20C2
4141
4141
4241
4441
47F1
2042
2062
10B4
1804
0000
0000
ENDCHAR

STARTCHAR cns1_262F
ENCODING 9775
SWIDTH 854 0
DWIDTH 16 0
BBX 16 18 0 -2
BITMAP
0000
0000
0808
13E4
2204
2202
2202
4281
4361
4021
4031
4031
2632
2222
13C4
1804
0000
0000
ENDCHAR

STARTCHAR cns1_2630
ENCODING 9776
SWIDTH 854 0
DWIDTH 16 0
BBX 16 18 0 -2
BITMAP
0000
0000
0808
10E4
2134
2202
2202
4201
47E1
4631
4611
4611
2232
2222
1164
18C4
0000
0000
ENDCHAR

STARTCHAR cns1_2631
ENCODING 9777
SWIDTH 854 0
DWIDTH 16 0
BBX 16 18 0 -2
BITMAP
0000
0000
0808
13F4
2214
2422
2022
4041
4041
4081
4081
4101
2102
2102
1304
1804
0000
0000
ENDCHAR

STARTCHAR cns1_2632
ENCODING 9778
SWIDTH 854 0
DWIDTH 16 0
BBX 16 18 0 -2
BITMAP
0000
0000
0808
11C4
2224
2232
2232
4321
41C1
41E1
4231
4611
2612
2212
1124
18C4
0000
0000
ENDCHAR

STARTCHAR cns1_2633
ENCODING 9779
SWIDTH 854 0
DWIDTH 16 0
BBX 16 18 0 -2
BITMAP
0000
0000
0808
11C4
2264
2222
2632
4631
4631
4251
41F1
4021
2022
2222
1244
1984
0000
0000
ENDCHAR

STARTCHAR cns1_2634
ENCODING 9780
SWIDTH 854 0
DWIDTH 16 0
BBX 16 18 0 -2
BITMAP
0000
0000
0800
1204
2634
224A
224A
4285
4285
4285
4285
4289
224A
224A
1F34
1804
0000
0000
ENDCHAR

STARTCHAR cns1_2635
ENCODING 9781
SWIDTH 854 0
DWIDTH 16 0
BBX 16 18 0 -2
BITMAP
0000
0000
0000
0080
0080
0000
0000
0180
0080
0080
0080
0080
0080
0080
03E0
0000
0000
0000
ENDCHAR

STARTCHAR cns1_2636
ENCODING 9782
SWIDTH 854 0
DWIDTH 16 0
BBX 16 18 0 -2
BITMAP
0000
0000
0000
0CC0
0CC0
0000
0000
0CC0
0440
0440
0440
0440
0440
0440
0EE0
0000
0000
0000
ENDCHAR

STARTCHAR cns1_2637
ENCODING 9783
SWIDTH 854 0
DWIDTH 16 0
BBX 16 18 0 -2
BITMAP
0000
0000
0000
1110
1110
0000
0000
3330
1110
1110
1110
1110
1110
1110
3BB8
0000
0000
0000
ENDCHAR

STARTCHAR cns1_2638
ENCODING 9784
SWIDTH 854 0
DWIDTH 16 0
BBX 16 18 0 -2
BITMAP
0000
0000
0000
1000
1000
0000
0000
339C
1108
1090
1090
10A0
1060
1040
3840
0000
0000
0000
ENDCHAR

STARTCHAR cns1_2639
ENCODING 9785
SWIDTH 854 0
DWIDTH 16 0
BBX 16 18 0 -2
BITMAP
0000
0000
0000
0000
0000
0000
0000
0E70
0420
0420
0240
0240
0240
0180
0180
0000
0000
0000
ENDCHAR

STARTCHAR cns1_263A
ENCODING 9786
SWIDTH 854 0
DWIDTH 16 0
BBX 16 18 0 -2
BITMAP
0000
0000
0000
0008
0008
0000
0000
1DD8
0888
0888
0508
0508
0508
0608
021C
0000
0000
0000
ENDCHAR

STARTCHAR cns1_263B
ENCODING 9787
SWIDTH 854 0
DWIDTH 16 0
BBX 16 18 0 -2
BITMAP
0000
0000
0000
0044
0044
0000
0000
77CC
2244
2244
2444
1444
1444
1844
08EE
0000
0000
0000
ENDCHAR

STARTCHAR cns1_263C
ENCODING 9788
SWIDTH 854 0
DWIDTH 16 0
BBX 16 18 0 -2
BITMAP
0000
0000
0000
0052
0052
0000
0000
7752
2252
1252
1452
1452
1452
0852
0852
0000
0000
0000
ENDCHAR

STARTCHAR cns1_263D
ENCODING 9789
SWIDTH 854 0
DWIDTH 16 0
BBX 16 18 0 -2
BITMAP
0000
0000
0000
1000
1800
0000
0000
33B8
1110
10A0
1040
1040
10A0
1110
3BB8
0000
0000
0000
ENDCHAR

STARTCHAR cns1_263E
ENCODING 9790
SWIDTH 854 0
DWIDTH 16 0
BBX 16 18 0 -2
BITMAP
0000
0000
0000
0000
0000
0000
0000
0E70
0240
0240
0180
0180
0240
0240
0420
0E70
0000
0000
ENDCHAR

STARTCHAR cns1_2721
ENCODING 10017
SWIDTH 854 0
DWIDTH 16 0
BBX 16 18 0 -2
BITMAP
0000
0000
0000
0000
0000
0000
0000
0000
0000
7FFF
0000
0000
0000
0000
0000
0000
0000
0000
ENDCHAR

STARTCHAR cns1_2722
ENCODING 10018
SWIDTH 854 0
DWIDTH 16 0
BBX 16 18 0 -2
BITMAP
0000
0100
0100
0100
0100
0100
0100
0100
0100
0100
0100
0100
0100
0100
0100
0100
0100
0000
ENDCHAR

STARTCHAR cns1_2723
ENCODING 10019
SWIDTH 854 0
DWIDTH 16 0
BBX 16 18 0 -2
BITMAP
0000
0000
0000
0000
0000
0000
0200
0300
0180
00C0
00C0
0040
0000
0000
0000
0000
0000
0000
ENDCHAR

STARTCHAR cns1_2724
ENCODING 10020
SWIDTH 854 0
DWIDTH 16 0
BBX 16 18 0 -2
BITMAP
0000
0080
0080
0080
0080
0080
0080
0080
0100
0100
0100
0100
0100
0100
0200
0200
0400
0000
ENDCHAR

STARTCHAR cns1_2725
ENCODING 10021
SWIDTH 854 0
DWIDTH 16 0
BBX 16 18 0 -2
BITMAP
0000
0000
7FF8
0010
0020
0040
0080
0100
0200
0400
0800
1001
2001
4001
4001
3FFE
0000
0000
ENDCHAR

STARTCHAR cns1_2726
ENCODING 10022
SWIDTH 854 0
DWIDTH 16 0
BBX 16 18 0 -2
BITMAP
0000
0080
0080
0080
0080
0080
0080
0080
0080
0080
0080
0080
0080
0080
0080
0880
0700
0000
ENDCHAR

STARTCHAR cns1_2727
ENCODING 10023
SWIDTH 854 0
DWIDTH 16 0
BBX 16 18 0 -2
BITMAP
0000
0000
0000
0000
1FFC
0000
0000
0000
0000
0000
0000
0000
0000
0000
7FFF
0000
0000
0000
ENDCHAR

STARTCHAR cns1_2728
ENCODING 10024
SWIDTH 854 0
DWIDTH 16 0
BBX 16 18 0 -2
BITMAP
0000
0000
0000
0080
0080
0080
7FFF
0000
0000
0000
0000
0000
0000
0000
0000
0000
0000
0000
ENDCHAR

STARTCHAR cns1_2729
ENCODING 10025
SWIDTH 854 0
DWIDTH 16 0
BBX 16 18 0 -2
BITMAP
0000
0000
0100
0100
0100
0100
0100
0100
0280
0280
0440
0440
0820
1010
2008
4004
8002
0000
ENDCHAR

STARTCHAR cns1_272A
ENCODING 10026
SWIDTH 854 0
DWIDTH 16 0
BBX 16 18 0 -2
BITMAP
0000
0410
0410
0410
0410
0410
0410
0410
0410
0410
0810
0810
0811
1011
1011
2011
400E
0000
ENDCHAR

STARTCHAR cns1_272B
ENCODING 10027
SWIDTH 854 0
DWIDTH 16 0
BBX 16 18 0 -2
BITMAP
0000
0080
1F80
0080
0080
0080
0080
0140
0140
0220
0220
0410
0810
1008
2004
4003
0000
0000
ENDCHAR

STARTCHAR cns1_272C
ENCODING 10028
SWIDTH 854 0
DWIDTH 16 0
BBX 16 18 0 -2
BITMAP
0000
0020
01E0
0420
0420
0420
0420
0810
0810
0810
0808
1008
1004
1004
2002
2002
4001
0000
ENDCHAR

STARTCHAR cns1_272D
ENCODING 10029
SWIDTH 854 0
DWIDTH 16 0
BBX 16 18 0 -2
BITMAP
0000
0000
7FFE
4002
4002
4002
4002
4002
4002
4002
4002
4002
4002
4002
4002
4002
401C
0000
ENDCHAR

STARTCHAR cns1_272E
ENCODING 10030
SWIDTH 854 0
DWIDTH 16 0
BBX 16 18 0 -2
BITMAP
0000
0000
0000
0000
3FFE
2002
4004
0000
0000
0000
0000
0000
0000
0000
0000
0000
0000
0000
ENDCHAR

STARTCHAR cns1_272F
ENCODING 10031
SWIDTH 854 0
DWIDTH 16 0
BBX 16 18 0 -2
BITMAP
0000
0000
0400
0200
0100
0000
0000
0080
0080
0100
0100
0200
0200
0400
0400
0000
0000
0000
ENDCHAR

STARTCHAR cns1_2730
ENCODING 10032
SWIDTH 854 0
DWIDTH 16 0
BBX 16 18 0 -2
BITMAP
0000
0000
07E0
0420
0420
0420
0420
0420
0420
0820
0820
0820
1021
1021
2021
2021
401E
0000
ENDCHAR

STARTCHAR cns1_2731
ENCODING 10033
SWIDTH 854 0
DWIDTH 16 0
BBX 16 18 0 -2
BITMAP
0000
4002
4002
4002
4002
4002
4002
4002
4002
4002
4002
4002
4002
4002
7FFE
4002
0000
0000
ENDCHAR

STARTCHAR cns1_2732
ENCODING 10034
SWIDTH 854 0
DWIDTH 16 0
BBX 16 18 0 -2
BITMAP
0000
0000
7FFE
0202
0202
0202
0202
0202
0202
0402
0402
0402
0802
0802
1002
1002
207C
0000
ENDCHAR

STARTCHAR cns1_2733
ENCODING 10035
SWIDTH 854 0
DWIDTH 16 0
BBX 16 18 0 -2
BITMAP
0000
0100
0100
0100
0100
3FFE
0102
0102
0102
0102
0202
0202
0202
0402
0402
0802
107C
0000
ENDCHAR

STARTCHAR cns1_2734
ENCODING 10036
SWIDTH 854 0
DWIDTH 16 0
BBX 16 18 0 -2
BITMAP
0000
0800
0800
0800
1FFE
1002
2002
4002
0002
0002
0002
0002
0002
0002
0002
0002
003C
0000
ENDCHAR

STARTCHAR cns1_2735
ENCODING 10037
SWIDTH 854 0
DWIDTH 16 0
BBX 16 18 0 -2
BITMAP
0000
1000
1000
1000
1008
1010
1020
10C0
1300
1C00
1000
1000
1002
1002
1002
0FFC
0000
0000
ENDCHAR

STARTCHAR cns1_2736
ENCODING 10038
SWIDTH 854 0
DWIDTH 16 0
BBX 16 18 0 -2
BITMAP
0000
0000
7FFF
4000
4000
4000
4000
4000
4000
4000
4000
4000
4000
4000
4000
7FFF
4000
0000
ENDCHAR

STARTCHAR cns1_2737
ENCODING 10039
SWIDTH 854 0
DWIDTH 16 0
BBX 16 18 0 -2
BITMAP
0000
0000
0000
0000
7FFF
1000
1000
1000
1000
1000
1000
1000
1000
1FFF
0000
0000
0000
0000
ENDCHAR

STARTCHAR cns1_2738
ENCODING 10040
SWIDTH 854 0
DWIDTH 16 0
BBX 16 18 0 -2
BITMAP
0000
0080
0080
0080
0080
0080
0080
0080
7FFF
0080
0080
0080
0080
0080
0080
0080
0080
0000
ENDCHAR

STARTCHAR cns1_2739
ENCODING 10041
SWIDTH 854 0
DWIDTH 16 0
BBX 16 18 0 -2
BITMAP
0000
0100
0100
0100
0100
0100
0100
0100
01C0
0130
0108
0104
0100
0100
0100
0100
0100
0000
ENDCHAR

STARTCHAR cns1_273A
ENCODING 10042
SWIDTH 854 0
DWIDTH 16 0
BBX 16 18 0 -2
BITMAP
0000
07E0
0420
0420
0420
0420
0420
0420
0420
0420
0420
05C0
0400
0400
0400
0400
0400
0000
ENDCHAR

STARTCHAR cns1_273B
ENCODING 10043
SWIDTH 854 0
DWIDTH 16 0
BBX 16 18 0 -2
BITMAP
0000
0000
1FFF
1000
1000
1000
1000
1000
1000
1000
2000
2000
2000
2000
2000
4000
4000
0000
ENDCHAR

STARTCHAR cns1_273C
ENCODING 10044
SWIDTH 854 0
DWIDTH 16 0
BBX 16 18 0 -2
BITMAP
0000
0000
0100
0100
0100
0200
0200
0200
0400
0410
0808
0804
107E
7F81
2001
0000
0000
0000
ENDCHAR

STARTCHAR cns1_273D
ENCODING 10045
SWIDTH 854 0
DWIDTH 16 0
BBX 16 18 0 -2
BITMAP
0000
0000
7FFC
0808
0808
0808
0410
0410
0220
0220
0140
0080
0140
0220
0C18
7007
0000
0000
ENDCHAR

STARTCHAR cns1_273E
ENCODING 10046
SWIDTH 854 0
DWIDTH 16 0
BBX 16 18 0 -2
BITMAP
0000
0000
0000
0000
0000
0FF0
0810
0810
0810
0810
0810
0810
0FF0
0810
0000
0000
0000
0000
ENDCHAR

STARTCHAR cns1_273F
ENCODING 10047
SWIDTH 854 0
DWIDTH 16 0
BBX 16 18 0 -2
BITMAP
0000
0000
7FFE
4002
4002
4002
4002
4002
4002
4002
4002
4002
4002
4002
4002
7FFE
0000
0000
ENDCHAR

STARTCHAR cns1_2740
ENCODING 10048
SWIDTH 854 0
DWIDTH 16 0
BBX 16 18 0 -2
BITMAP
0000
0080
0080
0080
0080
0080
0080
1FFC
0080
0080
0080
0080
0080
0080
0080
7FFF
0000
0000
ENDCHAR

STARTCHAR cns1_2741
ENCODING 10049
SWIDTH 854 0
DWIDTH 16 0
BBX 16 18 0 -2
BITMAP
0000
0080
0080
0080
0080
0080
0080
7FFF
0080
0080
0080
0080
0080
0080
0080
1FFC
0000
0000
ENDCHAR

STARTCHAR cns1_2742
ENCODING 10050
SWIDTH 854 0
DWIDTH 16 0
BBX 16 18 0 -2
BITMAP
0000
0400
0400
0400
0800
0FFE
1020
1420
2420
4240
0240
0180
0080
0140
0630
180C
6003
0000
ENDCHAR

STARTCHAR cns1_2743
ENCODING 10051
SWIDTH 854 0
DWIDTH 16 0
BBX 16 18 0 -2
BITMAP
0000
0100
0100
0200
03FE
0404
0804
1408
2208
4110
0090
0020
0040
0080
0100
0600
3800
0000
ENDCHAR

STARTCHAR cns1_2744
ENCODING 10052
SWIDTH 854 0
DWIDTH 16 0
BBX 16 18 0 -2
BITMAP
0000
0080
0080
0080
0080
0080
7FFF
0080
0080
0140
0140
0220
0410
0808
1004
2002
4001
0000
ENDCHAR

STARTCHAR cns1_2745
ENCODING 10053
SWIDTH 854 0
DWIDTH 16 0
BBX 16 18 0 -2
BITMAP
0000
0200
0200
0200
0200
7FFF
0410
0410
0820
0820
1040
3E40
0180
0160
0618
1806
6000
0000
ENDCHAR

STARTCHAR cns1_2746
ENCODING 10054
SWIDTH 854 0
DWIDTH 16 0
BBX 16 18 0 -2
BITMAP
0000
0000
1FFC
0008
0030
00C0
0080
0080
0080
7FFF
0080
0080
0080
0080
0080
0080
0F00
0000
ENDCHAR

STARTCHAR cns1_2747
ENCODING 10055
SWIDTH 854 0
DWIDTH 16 0
BBX 16 18 0 -2
BITMAP
0000
0000
0080
1080
3FFE
2002
4004
0000
0000
0000
0000
0000
0000
0000
0000
0000
0000
0000
ENDCHAR

STARTCHAR cns1_2748
ENCODING 10056
SWIDTH 854 0
DWIDTH 16 0
BBX 16 18 0 -2
BITMAP
0000
0020
0020
0020
0020
0020
7FFF
0020
1020
0820
0420
0420
0020
0020
0020
0020
03C0
0000
ENDCHAR

STARTCHAR cns1_2749
ENCODING 10057
SWIDTH 854 0
DWIDTH 16 0
BBX 16 18 0 -2
BITMAP
0000
0080
0080
0080
0080
0890
0890
1088
1088
2084
2084
4082
4082
0080
0080
0080
0F00
0000
ENDCHAR

STARTCHAR cns1_274A
ENCODING 10058
SWIDTH 854 0
DWIDTH 16 0
BBX 16 18 0 -2
BITMAP
0000
0080
0080
0080
0080
7FFF
0080
00C0
00C0
0140
0140
0240
0241
0441
0441
0841
103E
0000
ENDCHAR

STARTCHAR cns1_274B
ENCODING 10059
SWIDTH 854 0
DWIDTH 16 0
BBX 16 18 0 -2
BITMAP
0000
0000
1FFE
1002
1002
1002
1FFE
1000
1000
1000
1000
2000
2000
2000
2000
4000
4000
0000
ENDCHAR

STARTCHAR cns1_274C
ENCODING 10060
SWIDTH 854 0
DWIDTH 16 0
BBX 16 18 0 -2
BITMAP
0000
0080
0080
0082
4082
4082
4082
4082
4082
4082
7FFE
4082
0080
0080
0080
0080
0080
0000
ENDCHAR

STARTCHAR cns1_274D
ENCODING 10061
SWIDTH 854 0
DWIDTH 16 0
BBX 16 18 0 -2
BITMAP
0000
0080
0080
0080
2084
2084
2084
2084
2084
2084
2084
2084
2084
2084
2084
3FFC
2004
0000
ENDCHAR

STARTCHAR cns1_274E
ENCODING 10062
SWIDTH 854 0
DWIDTH 16 0
BBX 16 18 0 -2
BITMAP
0000
0888
0888
1110
1110
2220
2220
4440
4440
2220
2220
1110
1110
0888
0888
0444
0444
0000
ENDCHAR

STARTCHAR cns1_274F
ENCODING 10063
SWIDTH 854 0
DWIDTH 16 0
BBX 16 18 0 -2
BITMAP
0000
0000
0000
3FFE
0080
0080
0080
0080
0080
0080
0080
0080
0080
0080
0080
7FFF
0000
0000
ENDCHAR

STARTCHAR cns1_2750
ENCODING 10064
SWIDTH 854 0
DWIDTH 16 0
BBX 16 18 0 -2
BITMAP
0000
0000
7FFC
0004
0004
0004
0004
2004
3FFC
2004
2000
2000
2002
2002
2002
2002
1FFC
0000
ENDCHAR

STARTCHAR cns1_2751
ENCODING 10065
SWIDTH 854 0
DWIDTH 16 0
BBX 16 18 0 -2
BITMAP
0000
0100
0100
0100
0100
7FFE
4102
4102
4102
4102
4102
4102
4102
413C
4100
0100
0100
0000
ENDCHAR

STARTCHAR cns1_2752
ENCODING 10066
SWIDTH 854 0
DWIDTH 16 0
BBX 16 18 0 -2
BITMAP
0000
0000
3FFE
0080
0080
0080
0080
0080
7FFF
0080
0080
0080
0080
0080
0080
0080
0080
0000
ENDCHAR

STARTCHAR cns1_2753
ENCODING 10067
SWIDTH 854 0
DWIDTH 16 0
BBX 16 18 0 -2
BITMAP
0000
0080
0100
0200
0400
0800
3010
0820
0640
0040
0080
0100
0208
0404
0802
7FFF
4001
0000
ENDCHAR

STARTCHAR cns1_2754
ENCODING 10068
SWIDTH 854 0
DWIDTH 16 0
BBX 16 18 0 -2
BITMAP
0000
0080
0080
1FFF
1000
1000
1000
1000
1000
1000
1000
1000
2000
2000
2000
4000
4000
0000
ENDCHAR

STARTCHAR cns1_2755
ENCODING 10069
SWIDTH 854 0
DWIDTH 16 0
BBX 16 18 0 -2
BITMAP
0000
0000
7C00
0800
1000
1000
2000
3E00
0400
0400
4800
2800
1000
1000
2C00
2300
40FE
0000
ENDCHAR

STARTCHAR cns1_2756
ENCODING 10070
SWIDTH 854 0
DWIDTH 16 0
BBX 16 18 0 -2
BITMAP
0000
0420
0420
0420
0420
0420
0420
7FFF
0420
0420
0420
0820
0820
1020
1020
2020
4020
0000
ENDCHAR

STARTCHAR cns1_2757
ENCODING 10071
SWIDTH 854 0
DWIDTH 16 0
BBX 16 18 0 -2
BITMAP
0000
0200
0220
0210
0208
03FF
7D00
0100
0100
0100
0080
0080
0040
0041
0021
0011
000E
0000
ENDCHAR

STARTCHAR cns1_2758
ENCODING 10072
SWIDTH 854 0
DWIDTH 16 0
BBX 16 18 0 -2
BITMAP
0000
0000
1FF8
0008
0008
0008
3FF8
2000
2000
4000
7FFC
0004
0004
0004
0004
0004
0078
0000
ENDCHAR

STARTCHAR cns1_2759
ENCODING 10073
SWIDTH 854 0
DWIDTH 16 0
BBX 16 18 0 -2
BITMAP
0000
0000
0000
0000
0000
1FFC
0008
0008
0008
1FF8
0008
0008
0008
7FFF
0000
0000
0000
0000
ENDCHAR

STARTCHAR cns1_275A
ENCODING 10074
SWIDTH 854 0
DWIDTH 16 0
BBX 16 18 0 -2
BITMAP
0000
0020
0020
0040
0088
0308
0C10
0020
0040
0088
0108
0610
1820
0040
0080
0300
1C00
0000
ENDCHAR

STARTCHAR cns1_275B
ENCODING 10075
SWIDTH 854 0
DWIDTH 16 0
BBX 16 18 0 -2
BITMAP
0000
0008
0010
0020
00C0
0308
1C10
0020
00C0
0340
0C40
7040
0040
0040
0040
0040
0040
0000
ENDCHAR

STARTCHAR cns1_275C
ENCODING 10076
SWIDTH 854 0
DWIDTH 16 0
BBX 16 18 0 -2
BITMAP
0000
0000
0300
00C0
0020
0400
0400
0400
2404
2404
4402
4402
4400
0408
0408
0408
03F0
0000
ENDCHAR

STARTCHAR cns1_275D
ENCODING 10077
SWIDTH 854 0
DWIDTH 16 0
BBX 16 18 0 -2
BITMAP
0000
0200
0230
0208
0200
03FE
7E00
0204
0108
0110
00A0
0040
00C0
0321
0C11
3009
0006
0000
ENDCHAR

STARTCHAR cns1_275E
ENCODING 10078
SWIDTH 854 0
DWIDTH 16 0
BBX 16 18 0 -2
BITMAP
0000
001C
00E0
1F00
1000
1000
1FFE
1002
1002
1002
1FFE
1000
1000
2000
2000
2000
4000
0000
ENDCHAR

STARTCHAR cns1_275F
ENCODING 10079
SWIDTH 854 0
DWIDTH 16 0
BBX 16 18 0 -2
BITMAP
0000
000C
0070
3F80
0080
0080
3FFE
0080
0080
0080
7FFF
0080
0080
0080
0080
0080
0F00
0000
ENDCHAR

STARTCHAR cns1_2760
ENCODING 10080
SWIDTH 854 0
DWIDTH 16 0
BBX 16 18 0 -2
BITMAP
0000
0080
0080
0080
7FFF
0080
0080
0080
3FF8
0410
0410
0220
0140
0080
0360
0C18
7007
0000
ENDCHAR

STARTCHAR cns1_2761
ENCODING 10081
SWIDTH 854 0
DWIDTH 16 0
BBX 16 18 0 -2
BITMAP
0000
0200
0200
0200
03FC
0200
0200
0200
7FF0
0820
0820
0440
0280
0100
0660
1818
6007
0000
ENDCHAR

STARTCHAR cns1_2762
ENCODING 10082
SWIDTH 854 0
DWIDTH 16 0
BBX 16 18 0 -2
BITMAP
0000
0080
0080
0080
0080
7FFF
0410
0410
0220
0220
0140
0080
0140
0220
0410
180C
6003
0000
ENDCHAR

STARTCHAR cns1_2763
ENCODING 10083
SWIDTH 854 0
DWIDTH 16 0
BBX 16 18 0 -2
BITMAP
0000
0020
0020
0820
0420
0220
0120
1020
0820
0420
002F
01F0
FE20
0020
0020
0020
0020
0000
ENDCHAR

STARTCHAR cns1_2764
ENCODING 10084
SWIDTH 854 0
DWIDTH 16 0
BBX 16 18 0 -2
BITMAP
0000
000C
00F0
1F00
1000
1000
1000
1FFF
1020
1020
1020
1020
1020
2020
2020
2020
4020
0000
ENDCHAR

STARTCHAR cns1_2765
ENCODING 10085
SWIDTH 854 0
DWIDTH 16 0
BBX 16 18 0 -2
BITMAP
0000
0080
0080
0080
7FFF
0100
0100
0100
03FC
0204
0204
0404
0404
0804
0804
1004
20F8
0000
ENDCHAR

STARTCHAR cns1_2766
ENCODING 10086
SWIDTH 854 0
DWIDTH 16 0
BBX 16 18 0 -2
BITMAP
0000
0000
3FFC
0080
0080
0080
0100
7FFF
0100
0180
0280
0280
0480
0881
1081
2081
407E
0000
ENDCHAR

STARTCHAR cns1_2767
ENCODING 10087
SWIDTH 854 0
DWIDTH 16 0
BBX 16 18 0 -2
BITMAP
0000
0000
1FF8
1008
1008
1008
1008
1008
1FF8
1008
1008
1008
1008
1008
1FF8
1008
0000
0000
ENDCHAR

STARTCHAR cns1_2768
ENCODING 10088
SWIDTH 854 0
DWIDTH 16 0
BBX 16 18 0 -2
BITMAP
0000
0000
3FFC
2004
2004
2004
2004
2004
3FFC
2004
2004
2004
2004
2004
3FFC
2004
0000
0000
ENDCHAR

STARTCHAR cns1_2769
ENCODING 10089
SWIDTH 854 0
DWIDTH 16 0
BBX 16 18 0 -2
BITMAP
0000
0000
0FF8
0808
0808
0808
0FF8
0808
0808
0808
0FF8
1008
1008
1008
2008
2008
40F0
0000
ENDCHAR

STARTCHAR cns1_276A
ENCODING 10090
SWIDTH 854 0
DWIDTH 16 0
BBX 16 18 0 -2
BITMAP
0000
0080
0080
0080
0080
7FFF
02C0
02A0
04A0
0490
0890
0888
1088
2084
4082
0080
0080
0000
ENDCHAR

STARTCHAR cns1_276B
ENCODING 10091
SWIDTH 854 0
DWIDTH 16 0
BBX 16 18 0 -2
BITMAP
0000
0400
0400
0400
0800
0FFE
1084
1088
2080
4140
0140
0220
0220
0410
0810
1008
6006
0000
ENDCHAR

STARTCHAR cns1_276C
ENCODING 10092
SWIDTH 854 0
DWIDTH 16 0
BBX 16 18 0 -2
BITMAP
0000
0080
0080
0080
0080
0880
0880
08FE
0880
0880
0880
0880
0880
0880
0880
7FFF
0000
0000
ENDCHAR

STARTCHAR cns1_276D
ENCODING 10093
SWIDTH 854 0
DWIDTH 16 0
BBX 16 18 0 -2
BITMAP
0000
0000
7FFF
0100
0100
0200
03F8
0410
0C10
1210
2120
00A0
0040
0080
0100
0600
1800
0000
ENDCHAR

STARTCHAR cns1_276E
ENCODING 10094
SWIDTH 854 0
DWIDTH 16 0
BBX 16 18 0 -2
BITMAP
0000
0000
0FC0
0840
0842
1042
2042
403C
0000
7FF8
0810
0420
0240
0180
0660
1818
6006
0000
ENDCHAR

STARTCHAR cns1_276F
ENCODING 10095
SWIDTH 854 0
DWIDTH 16 0
BBX 16 18 0 -2
BITMAP
0000
0000
0FFC
0844
0844
0844
0844
0844
7FFF
0844
0844
0844
0884
0FFF
0104
0204
0438
0000
ENDCHAR

STARTCHAR cns1_2770
ENCODING 10096
SWIDTH 854 0
DWIDTH 16 0
BBX 16 18 0 -2
BITMAP
0000
1040
1040
1040
1040
1040
1043
134C
1C70
1040
1040
1040
1041
1041
1341
1C41
603E
0000
ENDCHAR

STARTCHAR cns1_2771
ENCODING 10097
SWIDTH 854 0
DWIDTH 16 0
BBX 16 18 0 -2
BITMAP
0000
0000
0038
03C0
3D00
010E
01F0
3F00
0100
010E
01F0
7F00
0100
0101
0101
0101
00FE
0000
ENDCHAR

STARTCHAR cns1_2772
ENCODING 10098
SWIDTH 854 0
DWIDTH 16 0
BBX 16 18 0 -2
BITMAP
0000
0000
003C
1FC0
1080
1080
1080
108E
1FF0
1040
1040
1020
1020
1191
1E11
6009
0006
0000
ENDCHAR

STARTCHAR cns1_2773
ENCODING 10099
SWIDTH 854 0
DWIDTH 16 0
BBX 16 18 0 -2
BITMAP
0000
1000
1000
3FFE
2000
4FF8
0000
3FF8
0008
0008
0008
0008
0008
0009
0009
0009
0006
0000
ENDCHAR

STARTCHAR cns1_2774
ENCODING 10100
SWIDTH 854 0
DWIDTH 16 0
BBX 16 18 0 -2
BITMAP
0000
0080
0080
0080
0080
00C4
3EC8
02B0
02A0
0290
0490
0488
0888
0884
1082
2080
0700
0000
ENDCHAR

STARTCHAR cns1_2775
ENCODING 10101
SWIDTH 854 0
DWIDTH 16 0
BBX 16 18 0 -2
BITMAP
0000
0080
0080
0080
0080
1086
1088
2090
2140
4140
0220
0220
0410
0410
0808
1004
6003
0000
ENDCHAR

STARTCHAR cns1_2776
ENCODING 10102
SWIDTH 854 0
DWIDTH 16 0
BBX 16 18 0 -2
BITMAP
0000
001E
1FE8
1108
1108
1108
1108
1108
1108
1108
1108
1108
2104
2104
2102
4102
4101
0000
ENDCHAR

STARTCHAR cns1_2777
ENCODING 10103
SWIDTH 854 0
DWIDTH 16 0
BBX 16 18 0 -2
BITMAP
0000
0000
0420
0810
1008
2004
4420
0420
0220
0240
0140
0080
0180
0660
1818
6006
0000
0000
ENDCHAR

STARTCHAR cns1_2778
ENCODING 10104
SWIDTH 854 0
DWIDTH 16 0
BBX 16 18 0 -2
BITMAP
0000
0006
1818
0660
0180
0660
381C
0400
0410
0210
0220
0120
0140
0080
0660
1818
6007
0000
ENDCHAR

STARTCHAR cns1_2779
ENCODING 10105
SWIDTH 854 0
DWIDTH 16 0
BBX 16 18 0 -2
BITMAP
0000
0208
0208
0208
0208
0208
03F8
0208
0008
0008
1FF8
0208
0208
0408
0408
0808
1008
0000
ENDCHAR

STARTCHAR cns1_277A
ENCODING 10106
SWIDTH 854 0
DWIDTH 16 0
BBX 16 18 0 -2
BITMAP
0000
1040
1040
1040
1040
1040
1FFF
1000
1000
1000
1FE0
1020
1020
1020
2020
2020
4020
0000
ENDCHAR

STARTCHAR cns1_277B
ENCODING 10107
SWIDTH 854 0
DWIDTH 16 0
BBX 16 18 0 -2
BITMAP
0000
0000
7FFF
0820
0820
0820
1020
1020
1FFF
0060
00A0
0120
0220
0420
0820
1020
03C0
0000
ENDCHAR

STARTCHAR cns1_277C
ENCODING 10108
SWIDTH 854 0
DWIDTH 16 0
BBX 16 18 0 -2
BITMAP
0000
0880
0880
1080
1080
3FFE
2080
4080
4080
0080
7FFF
0080
0080
0080
0080
0080
0080
0000
ENDCHAR

STARTCHAR cns1_277D
ENCODING 10109
SWIDTH 854 0
DWIDTH 16 0
BBX 16 18 0 -2
BITMAP
0000
0080
00A0
0090
0088
0080
7FFF
0080
0080
0140
0140
0220
0210
0408
0804
1002
6001
0000
ENDCHAR

STARTCHAR cns1_277E
ENCODING 10110
SWIDTH 854 0
DWIDTH 16 0
BBX 16 18 0 -2
BITMAP
0000
0100
0100
0100
7FFF
0200
0210
0410
3420
0C20
0440
0280
0110
0208
0404
7FFE
4002
0000
ENDCHAR

STARTCHAR cns1_2821
ENCODING 10273
SWIDTH 854 0
DWIDTH 16 0
BBX 16 18 0 -2
BITMAP
0000
0000
7FFE
0080
0080
0080
0080
0080
0080
3FFC
0080
0090
0088
0084
0080
7FFF
0000
0000
ENDCHAR

STARTCHAR cns1_2822
ENCODING 10274
SWIDTH 854 0
DWIDTH 16 0
BBX 16 18 0 -2
BITMAP
0000
001C
00E0
1F08
1108
1108
1108
1108
1108
1108
1108
1108
2124
2124
21D2
4E11
4000
0000
ENDCHAR

STARTCHAR cns1_2823
ENCODING 10275
SWIDTH 854 0
DWIDTH 16 0
BBX 16 18 0 -2
BITMAP
0000
0000
7FFF
0200
0200
0400
07F8
0410
0410
0510
0490
0450
0410
0431
05D1
0E11
080E
0000
ENDCHAR

STARTCHAR cns1_2824
ENCODING 10276
SWIDTH 854 0
DWIDTH 16 0
BBX 16 18 0 -2
BITMAP
0000
0410
0410
0410
0410
7FFF
0410
0410
0410
0410
07F0
0410
0410
0410
0410
07F0
0410
0000
ENDCHAR

STARTCHAR cns1_2825
ENCODING 10277
SWIDTH 854 0
DWIDTH 16 0
BBX 16 18 0 -2
BITMAP
0000
0880
0880
1080
1080
3FFE
2080
4080
4080
0080
1FFC
0080
0080
0080
0080
7FFF
0000
0000
ENDCHAR

STARTCHAR cns1_2826
ENCODING 10278
SWIDTH 854 0
DWIDTH 16 0
BBX 16 18 0 -2
BITMAP
0000
0000
3FFE
2082
2082
2082
3FFE
2082
2082
2082
3FFE
2082
2082
2082
2082
4082
408C
0000
ENDCHAR

STARTCHAR cns1_2827
ENCODING 10279
SWIDTH 854 0
DWIDTH 16 0
BBX 16 18 0 -2
BITMAP
0000
0000
7FFE
4102
4102
4102
4102
4102
4102
7FFE
4102
4102
4102
4102
4102
7FFE
0000
0000
ENDCHAR

STARTCHAR cns1_2828
ENCODING 10280
SWIDTH 854 0
DWIDTH 16 0
BBX 16 18 0 -2
BITMAP
0000
0000
7FFE
0084
0088
0080
0880
0884
10FC
1080
1080
2880
2480
4280
4180
007F
0000
0000
ENDCHAR

STARTCHAR cns1_2829
ENCODING 10281
SWIDTH 854 0
DWIDTH 16 0
BBX 16 18 0 -2
BITMAP
0000
0040
0040
1FFF
1000
5000
3000
1000
1000
1000
3000
5000
1000
1000
2000
2000
4000
0000
ENDCHAR

STARTCHAR cns1_282A
ENCODING 10282
SWIDTH 854 0
DWIDTH 16 0
BBX 16 18 0 -2
BITMAP
0000
0000
3F88
0112
22A4
1468
1818
6007
0000
0000
0000
0000
0000
0000
0000
0000
0000
0000
ENDCHAR

STARTCHAR cns1_282B
ENCODING 10283
SWIDTH 854 0
DWIDTH 16 0
BBX 16 18 0 -2
BITMAP
0000
0040
0080
0100
0200
7FFE
4002
4002
4002
4002
7FFE
4002
4002
4002
4002
7FFE
4002
0000
ENDCHAR

STARTCHAR cns1_282C
ENCODING 10284
SWIDTH 854 0
DWIDTH 16 0
BBX 16 18 0 -2
BITMAP
0000
0080
0080
1080
1FFF
1082
1084
1080
1FFC
1208
1208
1110
20A0
2040
21B0
460C
5803
0000
ENDCHAR

STARTCHAR cns1_282D
ENCODING 10285
SWIDTH 854 0
DWIDTH 16 0
BBX 16 18 0 -2
BITMAP
0000
0000
3FFE
2222
2222
2222
2222
2222
2222
2222
2222
2222
2222
2222
2222
7FFF
0000
0000
ENDCHAR

STARTCHAR cns1_282E
ENCODING 10286
SWIDTH 854 0
DWIDTH 16 0
BBX 16 18 0 -2
BITMAP
0000
0000
1FF8
1008
1008
1008
1008
1FF8
1008
1008
1008
1FF8
1008
1008
1008
1FF8
1008
0000
ENDCHAR

STARTCHAR cns1_282F
ENCODING 10287
SWIDTH 854 0
DWIDTH 16 0
BBX 16 18 0 -2
BITMAP
0000
0000
1FF8
0010
0220
0140
0080
7FFF
0184
0188
0290
0480
0880
1080
2080
4080
0700
0000
ENDCHAR

STARTCHAR cns1_2830
ENCODING 10288
SWIDTH 854 0
DWIDTH 16 0
BBX 16 18 0 -2
BITMAP
0000
0400
0400
0800
0FFC
1080
1080
2080
0080
7FFE
0140
0140
0220
0410
0808
1004
6003
0000
ENDCHAR

STARTCHAR cns1_2831
ENCODING 10289
SWIDTH 854 0
DWIDTH 16 0
BBX 16 18 0 -2
BITMAP
0000
0000
7FFE
0400
0400
0400
0800
0800
1FFC
1804
2804
4804
0804
0804
0804
0FFC
0804
0000
ENDCHAR

STARTCHAR cns1_2832
ENCODING 10290
SWIDTH 854 0
DWIDTH 16 0
BBX 16 18 0 -2
BITMAP
0000
0000
1FF8
0000
0000
0000
0000
7FFF
0080
0080
0890
1088
2084
4082
0080
0080
0F00
0000
ENDCHAR

STARTCHAR cns1_2833
ENCODING 10291
SWIDTH 854 0
DWIDTH 16 0
BBX 16 18 0 -2
BITMAP
0000
0100
0100
0100
7FFE
4202
4202
4242
4222
42F2
4F12
4802
4002
4002
4002
4002
403C
0000
ENDCHAR

STARTCHAR cns1_2834
ENCODING 10292
SWIDTH 854 0
DWIDTH 16 0
BBX 16 18 0 -2
BITMAP
0000
0000
0038
03C0
3C80
0080
0080
7FFF
02C0
02A0
04A0
0490
0890
0888
1084
2082
0080
0000
ENDCHAR

STARTCHAR cns1_2835
ENCODING 10293
SWIDTH 854 0
DWIDTH 16 0
BBX 16 18 0 -2
BITMAP
0000
0100
2100
3FFF
4002
0004
00E0
0220
0220
0410
0410
0808
0808
1004
1004
2002
4001
0000
ENDCHAR

STARTCHAR cns1_2836
ENCODING 10294
SWIDTH 854 0
DWIDTH 16 0
BBX 16 18 0 -2
BITMAP
0000
0100
0100
0100
0100
3FFF
0010
0810
0810
0810
0420
0420
0420
0420
0240
0240
7FFF
0000
ENDCHAR

STARTCHAR cns1_2837
ENCODING 10295
SWIDTH 854 0
DWIDTH 16 0
BBX 16 18 0 -2
BITMAP
0000
1020
1020
2040
2040
3F7F
4888
4888
0808
0808
0808
0808
0808
0808
0808
0808
0870
0000
ENDCHAR

STARTCHAR cns1_2838
ENCODING 10296
SWIDTH 854 0
DWIDTH 16 0
BBX 16 18 0 -2
BITMAP
0000
0080
0080
1088
0890
0890
04A0
7FFF
0180
02C0
04A0
0890
1088
2084
4083
0080
0080
0000
ENDCHAR

STARTCHAR cns1_2839
ENCODING 10297
SWIDTH 854 0
DWIDTH 16 0
BBX 16 18 0 -2
BITMAP
0000
0080
0100
0100
1210
0A20
0440
0284
0102
7FFF
4081
0080
08A0
1090
2088
4086
0080
0000
ENDCHAR

STARTCHAR cns1_283A
ENCODING 10298
SWIDTH 854 0
DWIDTH 16 0
BBX 16 18 0 -2
BITMAP
0000
0800
0800
1000
1FFE
2080
2080
4080
7FFF
0080
1084
1084
1084
1084
1084
1FFC
1004
0000
ENDCHAR

STARTCHAR cns1_283B
ENCODING 10299
SWIDTH 854 0
DWIDTH 16 0
BBX 16 18 0 -2
BITMAP
0000
0000
7FFE
4002
420A
420A
6492
5452
4822
4422
4A52
5252
608A
408A
4002
4002
400C
0000
ENDCHAR

STARTCHAR cns1_283C
ENCODING 10300
SWIDTH 854 0
DWIDTH 16 0
BBX 16 18 0 -2
BITMAP
0000
0810
0420
0420
7FFE
0080
0080
3FFC
0080
0080
7FFF
0080
0080
0080
0080
0080
0080
0000
ENDCHAR

STARTCHAR cns1_283D
ENCODING 10301
SWIDTH 854 0
DWIDTH 16 0
BBX 16 18 0 -2
BITMAP
0000
0000
7EFE
0202
2202
3262
1A32
0A32
021A
0202
1A1A
3232
6262
4242
0202
0202
1E1E
0000
ENDCHAR

STARTCHAR cns1_283E
ENCODING 10302
SWIDTH 854 0
DWIDTH 16 0
BBX 16 18 0 -2
BITMAP
0000
0202
0204
0208
3FD0
0220
0241
FFFF
0080
0300
0E18
7260
0382
0202
0202
0202
01FC
0000
ENDCHAR

STARTCHAR cns1_283F
ENCODING 10303
SWIDTH 854 0
DWIDTH 16 0
BBX 16 18 0 -2
BITMAP
0000
0000
7FFF
0100
0100
0200
3FFE
2222
2222
2222
2222
2222
2222
2222
2222
2222
201C
0000
ENDCHAR

STARTCHAR cns1_2840
ENCODING 10304
SWIDTH 854 0
DWIDTH 16 0
BBX 16 18 0 -2
BITMAP
0000
0080
0098
03E0
3C80
0080
3FFC
0080
0080
7FFF
02C0
04A0
0890
108C
2083
4080
0080
0000
ENDCHAR

STARTCHAR cns1_2841
ENCODING 10305
SWIDTH 854 0
DWIDTH 16 0
BBX 16 18 0 -2
BITMAP
0000
0000
7FFF
0810
0810
0810
0FF0
0810
0810
0FF0
0810
0810
081E
0FF0
7010
0010
0010
0000
ENDCHAR

STARTCHAR cns1_2842
ENCODING 10306
SWIDTH 854 0
DWIDTH 16 0
BBX 16 18 0 -2
BITMAP
0000
0080
0080
3FFC
0084
0084
7FFF
0084
1FFC
0080
0080
3FFE
0080
7FFF
0080
0080
0080
0000
ENDCHAR

STARTCHAR cns1_2843
ENCODING 10307
SWIDTH 854 0
DWIDTH 16 0
BBX 16 18 0 -2
BITMAP
0000
0780
0080
0080
7FFE
4142
4222
4412
480A
5082
4082
4142
4222
4412
480A
4002
400C
0000
ENDCHAR

STARTCHAR cns1_2844
ENCODING 10308
SWIDTH 854 0
DWIDTH 16 0
BBX 16 18 0 -2
BITMAP
0000
0000
7FFF
4100
4100
4100
4100
7FFC
4004
4004
7FFC
4100
4100
4100
4100
7FFF
0000
0000
ENDCHAR

STARTCHAR cns1_2845
ENCODING 10309
SWIDTH 854 0
DWIDTH 16 0
BBX 16 18 0 -2
BITMAP
0000
0080
0100
1FFC
1004
1004
1004
1FFC
1004
1004
1004
1FFC
1004
1004
1004
1FFC
1004
0000
ENDCHAR

STARTCHAR cns1_2846
ENCODING 10310
SWIDTH 854 0
DWIDTH 16 0
BBX 16 18 0 -2
BITMAP
0000
0000
7FFE
0200
0200
0410
0408
7FFC
0104
0100
0100
3FFC
0100
0100
0100
FFFF
0000
0000
ENDCHAR

STARTCHAR cns1_2847
ENCODING 10311
SWIDTH 854 0
DWIDTH 16 0
BBX 16 18 0 -2
BITMAP
0000
0000
0300
0C02
307E
2002
2002
2002
2002
3E3E
2002
2002
2002
2002
3FFE
2002
0000
0000
ENDCHAR

STARTCHAR cns1_2848
ENCODING 10312
SWIDTH 854 0
DWIDTH 16 0
BBX 16 18 0 -2
BITMAP
0000
001C
03E0
7C80
0080
0080
0080
7FFF
0080
0080
1FFC
1004
1004
1004
1004
1004
1FFC
0000
ENDCHAR

STARTCHAR cns1_2849
ENCODING 10313
SWIDTH 854 0
DWIDTH 16 0
BBX 16 18 0 -2
BITMAP
0000
0808
0808
1008
1208
3EFF
2288
6288
5488
0C88
0888
10FF
1088
2008
2008
4008
0008
0000
ENDCHAR

STARTCHAR cns1_284A
ENCODING 10314
SWIDTH 854 0
DWIDTH 16 0
BBX 16 18 0 -2
BITMAP
0000
0080
0100
0100
1FF8
1208
1188
1088
1008
7FFF
1108
1108
1108
1108
2108
2008
4070
0000
ENDCHAR

STARTCHAR cns1_284B
ENCODING 10315
SWIDTH 854 0
DWIDTH 16 0
BBX 16 18 0 -2
BITMAP
0000
1FF0
1010
1010
1010
1FF0
1010
1010
1010
1FF0
110C
1090
1060
1010
1308
1C04
6002
0000
ENDCHAR

STARTCHAR cns1_284C
ENCODING 10316
SWIDTH 854 0
DWIDTH 16 0
BBX 16 18 0 -2
BITMAP
0000
0200
0400
0FE0
1040
2080
7FFC
2084
2084
2084
3FFC
2004
2001
2001
2001
2001
1FFE
0000
ENDCHAR

STARTCHAR cns1_284D
ENCODING 10317
SWIDTH 854 0
DWIDTH 16 0
BBX 16 18 0 -2
BITMAP
0000
0808
0808
0808
4949
4949
4949
4949
4949
4949
7F7F
4949
0808
1008
1008
2008
4008
0000
ENDCHAR

STARTCHAR cns1_284E
ENCODING 10318
SWIDTH 854 0
DWIDTH 16 0
BBX 16 18 0 -2
BITMAP
0000
0100
0100
01F8
0100
3FFE
2002
2102
2100
2100
2FF8
2100
2102
2102
2102
40FC
4000
0000
ENDCHAR

STARTCHAR cns1_284F
ENCODING 10319
SWIDTH 854 0
DWIDTH 16 0
BBX 16 18 0 -2
BITMAP
0000
0080
0080
0080
3FFC
2084
2084
2084
2084
2084
3FFC
0080
0088
0084
00FE
7F02
0001
0000
ENDCHAR

STARTCHAR cns1_2850
ENCODING 10320
SWIDTH 854 0
DWIDTH 16 0
BBX 16 18 0 -2
BITMAP
0000
0080
0080
0100
0100
3FFE
2222
2222
2222
2222
2222
2222
2222
2222
2222
7FFF
0000
0000
ENDCHAR

STARTCHAR cns1_2851
ENCODING 10321
SWIDTH 854 0
DWIDTH 16 0
BBX 16 18 0 -2
BITMAP
0000
0800
0800
11FE
2400
4400
0800
17FF
3010
5010
1010
1010
1010
1010
1010
1010
10E0
0000
ENDCHAR

STARTCHAR cns1_2852
ENCODING 10322
SWIDTH 854 0
DWIDTH 16 0
BBX 16 18 0 -2
BITMAP
0000
0100
0100
0100
7FFF
0280
0280
0486
0848
1850
2820
4820
0810
08C8
0B04
1C03
6000
0000
ENDCHAR

STARTCHAR cns1_2853
ENCODING 10323
SWIDTH 854 0
DWIDTH 16 0
BBX 16 18 0 -2
BITMAP
0000
0000
7FFF
0420
0420
0420
7FFE
4422
4422
4422
47E2
4422
4002
4002
4002
4002
4002
0000
ENDCHAR

STARTCHAR cns1_2854
ENCODING 10324
SWIDTH 854 0
DWIDTH 16 0
BBX 16 18 0 -2
BITMAP
0000
1FF8
1008
1008
1FF8
1008
1008
1FF8
1008
1008
1FF8
0240
0240
0441
0441
0841
103E
0000
ENDCHAR

STARTCHAR cns1_2855
ENCODING 10325
SWIDTH 854 0
DWIDTH 16 0
BBX 16 18 0 -2
BITMAP
0000
0200
0400
0FE0
1040
2080
5FFC
1084
1084
1FFC
1084
1084
1FFC
1004
2004
2004
4038
0000
ENDCHAR

STARTCHAR cns1_2856
ENCODING 10326
SWIDTH 854 0
DWIDTH 16 0
BBX 16 18 0 -2
BITMAP
0000
0300
0180
0180
7FFF
0000
1FFC
0000
1FFC
0000
0FF8
0808
0808
0808
0808
0FF8
0000
0000
ENDCHAR

STARTCHAR cns1_2857
ENCODING 10327
SWIDTH 854 0
DWIDTH 16 0
BBX 16 18 0 -2
BITMAP
0000
0000
0810
1008
2084
4240
0420
0810
100C
2003
5FF8
1008
1008
1008
1008
1FF8
1008
0000
ENDCHAR

STARTCHAR cns1_2858
ENCODING 10328
SWIDTH 854 0
DWIDTH 16 0
BBX 16 18 0 -2
BITMAP
0000
0000
7FFE
0000
0000
1FF8
1008
1008
1008
1008
1FF8
0420
0420
0240
0240
7FFF
0000
0000
ENDCHAR

STARTCHAR cns1_2859
ENCODING 10329
SWIDTH 854 0
DWIDTH 16 0
BBX 16 18 0 -2
BITMAP
0000
0000
7FFF
0500
0900
1106
6088
0190
06A0
18A0
6190
0290
0C88
3084
0082
0080
0F00
0000
ENDCHAR

STARTCHAR cns1_285A
ENCODING 10330
SWIDTH 854 0
DWIDTH 16 0
BBX 16 18 0 -2
BITMAP
0000
0040
0180
0686
3C58
0260
0180
0640
7860
0090
0310
0C30
70D0
0310
0C10
3010
00E0
0000
ENDCHAR

STARTCHAR cns1_285B
ENCODING 10331
SWIDTH 854 0
DWIDTH 16 0
BBX 16 18 0 -2
BITMAP
0000
0000
1FF8
1008
1008
1008
1FF8
1008
1008
1FF8
1008
1008
1FF8
0440
0820
1018
6006
0000
ENDCHAR

STARTCHAR cns1_285C
ENCODING 10332
SWIDTH 854 0
DWIDTH 16 0
BBX 16 18 0 -2
BITMAP
0000
0080
0080
0080
3FFC
0080
0080
7FFF
0220
1220
1228
2428
2424
4422
0820
0820
11C0
0000
ENDCHAR

STARTCHAR cns1_285D
ENCODING 10333
SWIDTH 854 0
DWIDTH 16 0
BBX 16 18 0 -2
BITMAP
0000
0080
0080
0080
1FF8
0080
0080
7FFF
0080
1080
1080
10FC
2880
2480
4280
4180
007F
0000
ENDCHAR

STARTCHAR cns1_285E
ENCODING 10334
SWIDTH 854 0
DWIDTH 16 0
BBX 16 18 0 -2
BITMAP
0000
0000
1FF8
1008
1008
1008
1008
1FF8
0100
1100
1100
11FC
1100
1100
2D00
2380
407F
0000
ENDCHAR

STARTCHAR cns1_285F
ENCODING 10335
SWIDTH 854 0
DWIDTH 16 0
BBX 16 18 0 -2
BITMAP
0000
0080
0100
0FF0
0810
0810
0FF0
0813
0FF4
0818
09F0
7E30
00D0
0310
0C10
3010
00E0
0000
ENDCHAR

STARTCHAR cns1_2860
ENCODING 10336
SWIDTH 854 0
DWIDTH 16 0
BBX 16 18 0 -2
BITMAP
0000
0080
0080
7FFE
0080
1FFC
1084
1084
1FFC
1084
1084
1FFC
0080
0080
7FFF
0080
0080
0000
ENDCHAR

STARTCHAR cns1_2861
ENCODING 10337
SWIDTH 854 0
DWIDTH 16 0
BBX 16 18 0 -2
BITMAP
0000
0100
0100
3FFE
0410
0410
0220
0220
7FFF
0080
0080
0080
1FFC
0080
0080
0080
0080
0000
ENDCHAR

STARTCHAR cns1_2862
ENCODING 10338
SWIDTH 854 0
DWIDTH 16 0
BBX 16 18 0 -2
BITMAP
0000
0000
3FFE
2000
2000
2FFC
2000
2000
3FFF
2240
2226
2228
2210
2208
43C4
5C02
4001
0000
ENDCHAR

STARTCHAR cns1_2863
ENCODING 10339
SWIDTH 854 0
DWIDTH 16 0
BBX 16 18 0 -2
BITMAP
0000
0080
0120
0640
1990
0620
38C0
0300
3C80
0080
0880
08F8
1080
1080
2880
2680
41FE
0000
ENDCHAR

STARTCHAR cns1_2864
ENCODING 10340
SWIDTH 854 0
DWIDTH 16 0
BBX 16 18 0 -2
BITMAP
0000
0000
1FF8
1008
1008
1FF8
1008
0000
3FFC
2084
2084
3FFC
2004
2001
2001
2001
1FFE
0000
ENDCHAR

STARTCHAR cns1_2865
ENCODING 10341
SWIDTH 854 0
DWIDTH 16 0
BBX 16 18 0 -2
BITMAP
0000
0000
7FFF
0240
0240
0240
3FFE
2442
244A
244A
283A
3002
3FFE
2002
2002
3FFE
2002
0000
ENDCHAR

STARTCHAR cns1_2866
ENCODING 10342
SWIDTH 854 0
DWIDTH 16 0
BBX 16 18 0 -2
BITMAP
0000
001C
10E0
1F08
2084
2082
4082
0080
0080
7FFF
02C0
04A0
0890
108C
2083
4080
0080
0000
ENDCHAR

STARTCHAR cns1_2867
ENCODING 10343
SWIDTH 854 0
DWIDTH 16 0
BBX 16 18 0 -2
BITMAP
0000
0000
1FFC
1084
1084
1084
1FFC
1084
1084
1FFC
0080
0080
1FFC
0080
0080
7FFF
0000
0000
ENDCHAR

STARTCHAR cns1_2868
ENCODING 10344
SWIDTH 854 0
DWIDTH 16 0
BBX 16 18 0 -2
BITMAP
0000
0100
0100
0280
0440
0830
100C
2FF3
4100
0100
7FFE
1108
1108
0910
0910
0100
7FFF
0000
ENDCHAR

STARTCHAR cns1_2869
ENCODING 10345
SWIDTH 854 0
DWIDTH 16 0
BBX 16 18 0 -2
BITMAP
0000
0000
0FFC
0800
0800
0FF8
0800
0FF8
0800
7FFF
0904
0888
0850
0820
0B10
1C0C
6003
0000
ENDCHAR

STARTCHAR cns1_286A
ENCODING 10346
SWIDTH 854 0
DWIDTH 16 0
BBX 16 18 0 -2
BITMAP
0000
0000
7E7E
4242
4242
7E7E
4242
7E7E
4002
4002
4002
4002
4002
4002
4002
4002
403C
0000
ENDCHAR

STARTCHAR cns1_286B
ENCODING 10347
SWIDTH 854 0
DWIDTH 16 0
BBX 16 18 0 -2
BITMAP
0000
0100
0200
1FF8
1008
1008
1FF8
1000
1FFC
1004
1004
1FFC
0080
7FFF
0080
0080
0080
0000
ENDCHAR

STARTCHAR cns1_286C
ENCODING 10348
SWIDTH 854 0
DWIDTH 16 0
BBX 16 18 0 -2
BITMAP
0000
0100
0100
1FF8
0108
0108
7FFE
0108
3FF8
0100
1118
0960
0340
0D30
710E
0100
0E00
0000
ENDCHAR

STARTCHAR cns1_286D
ENCODING 10349
SWIDTH 854 0
DWIDTH 16 0
BBX 16 18 0 -2
BITMAP
0000
0820
0820
1040
1040
3FFE
3040
5040
1FFE
1040
1040
1040
1FFE
1040
1040
1FFF
1000
0000
ENDCHAR

STARTCHAR cns1_286E
ENCODING 10350
SWIDTH 854 0
DWIDTH 16 0
BBX 16 18 0 -2
BITMAP
0000
0000
7FFF
0080
0080
0080
7FFE
5082
48A2
4492
408A
50A2
4892
448A
4082
4082
409C
0000
ENDCHAR

STARTCHAR cns1_286F
ENCODING 10351
SWIDTH 854 0
DWIDTH 16 0
BBX 16 18 0 -2
BITMAP
0000
0080
0080
7FFE
0080
3FFC
0080
7FFF
0000
1FF8
1008
1FF8
1008
1FF8
1008
1008
1070
0000
ENDCHAR

STARTCHAR cns1_2870
ENCODING 10352
SWIDTH 854 0
DWIDTH 16 0
BBX 16 18 0 -2
BITMAP
0000
0240
0240
0240
027F
7E40
0240
0240
7E7E
0240
0240
0E40
727F
0440
0440
0840
3040
0000
ENDCHAR

STARTCHAR cns1_2871
ENCODING 10353
SWIDTH 854 0
DWIDTH 16 0
BBX 16 18 0 -2
BITMAP
0000
0000
7FFF
0100
0100
0200
3FFE
2222
2222
23E2
2222
2222
23E2
2222
2222
3FFE
2002
0000
ENDCHAR

STARTCHAR cns1_2872
ENCODING 10354
SWIDTH 854 0
DWIDTH 16 0
BBX 16 18 0 -2
BITMAP
0000
0420
0420
7FFF
0420
0420
07E0
0080
1FFC
1084
1084
1FFC
0080
7FFF
0080
0080
0080
0000
ENDCHAR

STARTCHAR cns1_2873
ENCODING 10355
SWIDTH 854 0
DWIDTH 16 0
BBX 16 18 0 -2
BITMAP
0000
0100
0100
3FF8
0210
7FFE
0000
1FF8
1008
1008
1FF8
0080
7FFC
2080
3FFE
0080
0080
0000
ENDCHAR

STARTCHAR cns1_2874
ENCODING 10356
SWIDTH 854 0
DWIDTH 16 0
BBX 16 18 0 -2
BITMAP
0000
0220
0220
0220
0220
3E3E
0220
0220
3E3E
0220
0220
0220
3E3E
0220
0220
7FFF
0000
0000
ENDCHAR

STARTCHAR cns1_2875
ENCODING 10357
SWIDTH 854 0
DWIDTH 16 0
BBX 16 18 0 -2
BITMAP
0000
0080
0080
7FFE
0810
0810
0420
0420
7FFF
0000
1FF8
1008
1008
1FF8
1008
1008
1FF8
0000
ENDCHAR

STARTCHAR cns1_2876
ENCODING 10358
SWIDTH 854 0
DWIDTH 16 0
BBX 16 18 0 -2
BITMAP
0000
0000
7FFF
0100
0100
1FF8
1008
1FF8
1008
1008
1FF8
1008
1008
1FF8
0630
180C
6003
0000
ENDCHAR

STARTCHAR cns1_2877
ENCODING 10359
SWIDTH 854 0
DWIDTH 16 0
BBX 16 18 0 -2
BITMAP
0000
0000
3FFC
2004
20F4
2F84
2084
2084
27E4
24A4
24A4
27E4
2484
20A4
41F5
4E15
4003
0000
ENDCHAR

STARTCHAR cns1_2878
ENCODING 10360
SWIDTH 854 0
DWIDTH 16 0
BBX 16 18 0 -2
BITMAP
0000
0000
3FF2
00D4
0718
3915
0913
090E
7FF0
0912
0914
0918
1116
1108
2109
2105
4106
0000
ENDCHAR

STARTCHAR cns1_2879
ENCODING 10361
SWIDTH 854 0
DWIDTH 16 0
BBX 16 18 0 -2
BITMAP
0000
0100
0100
02C0
0C30
33CC
0003
0FF0
0810
0FF0
0810
0FF0
0888
0850
09A0
0E18
7007
0000
ENDCHAR

STARTCHAR cns1_287A
ENCODING 10362
SWIDTH 854 0
DWIDTH 16 0
BBX 16 18 0 -2
BITMAP
0000
0810
0810
0420
7FFF
0100
0100
1FF8
1008
1008
1FF8
1008
1FF8
1008
1008
1FF8
1008
0000
ENDCHAR

STARTCHAR cns1_287B
ENCODING 10363
SWIDTH 854 0
DWIDTH 16 0
BBX 16 18 0 -2
BITMAP
0000
001C
03E0
3C80
0080
7FFF
02A0
0490
108C
2083
5FF8
1008
1FF8
1008
1008
1FF8
1008
0000
ENDCHAR

STARTCHAR cns1_287C
ENCODING 10364
SWIDTH 854 0
DWIDTH 16 0
BBX 16 18 0 -2
BITMAP
0000
0000
1FFC
1080
1080
1FF8
1080
1080
1FF8
1080
1080
1FFE
0922
2492
2482
4402
003C
0000
ENDCHAR

STARTCHAR cns1_287D
ENCODING 10365
SWIDTH 854 0
DWIDTH 16 0
BBX 16 18 0 -2
BITMAP
0000
0000
0FF8
0808
08F8
0888
7FFE
4002
4FF2
0810
0810
0FF0
0810
0FF0
0810
0810
08E0
0000
ENDCHAR

STARTCHAR cns1_287E
ENCODING 10366
SWIDTH 854 0
DWIDTH 16 0
BBX 16 18 0 -2
BITMAP
0000
0080
0080
7FFF
0000
0FF0
0810
0FF0
0000
7FFE
4002
47E2
4422
4422
47E2
4002
401C
0000
ENDCHAR

STARTCHAR cns1_2921
ENCODING 10529
SWIDTH 854 0
DWIDTH 16 0
BBX 16 18 0 -2
BITMAP
0000
0000
3F06
2008
2010
3E20
20C2
3E04
2008
2010
7E61
1002
2204
4218
7F60
4100
0000
0000
ENDCHAR

STARTCHAR cns1_2922
ENCODING 10530
SWIDTH 854 0
DWIDTH 16 0
BBX 16 18 0 -2
BITMAP
0000
0000
7E7E
4812
7E7E
4812
7E7E
4002
4002
4002
4002
4002
4002
4002
4002
4002
401C
0000
ENDCHAR

STARTCHAR cns1_2923
ENCODING 10531
SWIDTH 854 0
DWIDTH 16 0
BBX 16 18 0 -2
BITMAP
0000
0200
4914
4424
4244
5194
4A8C
4544
4924
7FFC
0000
1038
11C0
1E02
1002
1002
0FFC
0000
ENDCHAR

STARTCHAR cns1_2924
ENCODING 10532
SWIDTH 854 0
DWIDTH 16 0
BBX 16 18 0 -2
BITMAP
0000
0000
7FFE
0000
0FF8
0808
0808
0FF8
0000
7FFF
4411
4221
4141
47F1
4081
4081
408E
0000
ENDCHAR

STARTCHAR cns1_2925
ENCODING 10533
SWIDTH 854 0
DWIDTH 16 0
BBX 16 18 0 -2
BITMAP
0000
0100
0200
1FF8
1108
1108
1FF8
1108
1108
1FF8
0480
0490
0894
08A5
10DF
1081
207E
0000
ENDCHAR

STARTCHAR cns1_2926
ENCODING 10534
SWIDTH 854 0
DWIDTH 16 0
BBX 16 18 0 -2
BITMAP
0000
0200
0400
0FE0
1040
2080
5FFC
1084
1084
1FFC
1084
1084
1FFC
0000
1244
1222
2421
0000
ENDCHAR

STARTCHAR cns1_2927
ENCODING 10535
SWIDTH 854 0
DWIDTH 16 0
BBX 16 18 0 -2
BITMAP
0000
0100
0200
1FF8
1008
1FF8
1008
1FF8
1000
1FFE
1000
1FFE
0002
2922
2912
4482
001C
0000
ENDCHAR

STARTCHAR cns1_2928
ENCODING 10536
SWIDTH 854 0
DWIDTH 16 0
BBX 16 18 0 -2
BITMAP
0000
0100
0100
01FC
0100
7FFE
4202
5112
4C22
4242
5192
494A
4222
4512
4892
4002
7FFE
0000
ENDCHAR

STARTCHAR cns1_2929
ENCODING 10537
SWIDTH 854 0
DWIDTH 16 0
BBX 16 18 0 -2
BITMAP
0000
0040
0040
3FFF
2220
3FFE
2222
2222
3FFE
2000
2210
2213
23DC
2210
2211
4391
5C0E
0000
ENDCHAR

STARTCHAR cns1_292A
ENCODING 10538
SWIDTH 854 0
DWIDTH 16 0
BBX 16 18 0 -2
BITMAP
0000
0080
0080
7FFE
0888
1090
18A8
25C4
42A2
0418
1906
63F0
0420
0940
1080
0300
3C00
0000
ENDCHAR

STARTCHAR cns1_292B
ENCODING 10539
SWIDTH 854 0
DWIDTH 16 0
BBX 16 18 0 -2
BITMAP
0000
0080
0080
3FFF
2410
2410
3FFF
2410
2D34
2D34
4D54
5554
5555
5555
4493
4410
4410
0000
ENDCHAR

STARTCHAR cns1_292C
ENCODING 10540
SWIDTH 854 0
DWIDTH 16 0
BBX 16 18 0 -2
BITMAP
0000
0420
0420
7FFE
0420
07E0
0000
7FFF
0000
1FF8
1088
1FF8
1088
1FF8
0240
0C30
300C
0000
ENDCHAR

STARTCHAR cns1_292D
ENCODING 10541
SWIDTH 854 0
DWIDTH 16 0
BBX 16 18 0 -2
BITMAP
0000
0000
00F8
1F80
0080
7FFF
06A0
1898
6186
0660
1898
6087
0CB0
03C0
0CB0
708C
0703
0000
ENDCHAR

STARTCHAR cns1_292E
ENCODING 10542
SWIDTH 854 0
DWIDTH 16 0
BBX 16 18 0 -2
BITMAP
0000
0000
1FFC
1084
1494
14A4
12C4
1FFC
1084
0080
1FFC
0080
0080
7FFF
1144
2222
2222
0000
ENDCHAR

STARTCHAR cns1_292F
ENCODING 10543
SWIDTH 854 0
DWIDTH 16 0
BBX 16 18 0 -2
BITMAP
0000
0240
2244
1248
1248
FFFF
0918
3106
FFFD
2104
2514
2514
2924
2924
2924
2104
2118
0000
ENDCHAR

STARTCHAR cns1_2930
ENCODING 10544
SWIDTH 854 0
DWIDTH 16 0
BBX 16 18 0 -2
BITMAP
0000
0000
7FF8
4488
4488
7CF8
0480
7CF8
4488
4488
7CF8
4488
4488
7CF9
0481
0401
03FE
0000
ENDCHAR

STARTCHAR cns1_2931
ENCODING 10545
SWIDTH 854 0
DWIDTH 16 0
BBX 16 18 0 -2
BITMAP
0000
0000
47E2
4422
47E2
4422
47E2
4422
47E2
4002
7E7E
0240
7E7F
2244
2244
2244
4244
0000
ENDCHAR

STARTCHAR cns1_2932
ENCODING 10546
SWIDTH 854 0
DWIDTH 16 0
BBX 16 18 0 -2
BITMAP
0000
0810
0810
0810
3DFF
0810
7F10
0010
7F7E
4144
4144
7F28
2228
2210
1428
7EC4
0103
0000
ENDCHAR

STARTCHAR cns1_2933
ENCODING 10547
SWIDTH 854 0
DWIDTH 16 0
BBX 16 18 0 -2
BITMAP
0000
0C00
707C
4004
4004
7C7C
4004
7FFC
2110
39D0
2110
2110
39C8
2108
2D65
3385
4C03
0000
ENDCHAR

STARTCHAR cns1_2934
ENCODING 10548
SWIDTH 854 0
DWIDTH 16 0
BBX 16 18 0 -2
BITMAP
0000
0100
1FF8
1008
1FF8
1008
1FF8
1008
3FFC
2104
3FFC
2104
3FFC
0820
7FFF
0820
1020
0000
ENDCHAR

STARTCHAR cns1_2935
ENCODING 10549
SWIDTH 854 0
DWIDTH 16 0
BBX 16 18 0 -2
BITMAP
0000
0100
0100
7FFF
0222
7F5C
1494
1492
249D
4480
1808
1FF8
1008
1008
1FF8
2008
4008
0000
ENDCHAR

STARTCHAR cns1_2936
ENCODING 10550
SWIDTH 854 0
DWIDTH 16 0
BBX 16 18 0 -2
BITMAP
0000
0880
08FC
0880
7FFF
2212
2422
2A52
318A
3FFE
2422
2422
2A52
318A
2006
3FFE
0000
0000
ENDCHAR

STARTCHAR cns1_2937
ENCODING 10551
SWIDTH 854 0
DWIDTH 16 0
BBX 16 18 0 -2
BITMAP
0000
0840
0840
7F7C
2240
147E
7F02
007E
7E40
427E
7E40
4246
4278
7E41
4279
4241
4C3E
0000
ENDCHAR

STARTCHAR cns1_2938
ENCODING 10552
SWIDTH 854 0
DWIDTH 16 0
BBX 16 18 0 -2
BITMAP
0000
0400
0FC0
1080
3FFC
5244
1E7C
0240
7BFE
0A42
7E6A
0A52
7A6A
0A43
7FFF
0A01
79FF
0000
ENDCHAR

STARTCHAR cns1_2939
ENCODING 10553
SWIDTH 854 0
DWIDTH 16 0
BBX 16 18 0 -2
BITMAP
0000
0100
0280
0460
0818
37E7
C000
3DDE
2552
3DDE
0000
3FFE
2222
3FFE
2222
2222
222C
0000
ENDCHAR

STARTCHAR cns1_4221
ENCODING 16929
SWIDTH 854 0
DWIDTH 16 0
BBX 16 18 0 -2
BITMAP
0000
4552
6552
6552
5552
5552
5552
5552
5552
5552
5552
5552
5552
5552
4D52
4D52
449B
0000
ENDCHAR

STARTCHAR cns1_4222
ENCODING 16930
SWIDTH 854 0
DWIDTH 16 0
BBX 16 18 0 -2
BITMAP
0000
7CE0
1110
1200
1206
1202
1202
1112
10E7
0000
6897
5555
5155
495D
4555
5555
6897
0000
ENDCHAR

STARTCHAR cns1_4223
ENCODING 16931
SWIDTH 854 0
DWIDTH 16 0
BBX 16 18 0 -2
BITMAP
0000
7CE0
1110
1200
1206
1209
1202
1114
10E7
0000
6BE3
5495
5089
4889
4489
5495
68A3
0000
ENDCHAR

STARTCHAR cns1_4224
ENCODING 16932
SWIDTH 854 0
DWIDTH 16 0
BBX 16 18 0 -2
BITMAP
0000
7CE0
1110
1200
1206
1201
1202
1111
10E6
0000
7FE3
5095
5089
5C89
5089
5095
7CA3
0000
ENDCHAR

STARTCHAR cns1_4225
ENCODING 16933
SWIDTH 854 0
DWIDTH 16 0
BBX 16 18 0 -2
BITMAP
0000
7CE0
1110
1200
1202
1204
120A
111F
10E2
0000
6CDF
4929
4929
4D29
4929
4929
6CCB
0000
ENDCHAR

STARTCHAR cns1_4226
ENCODING 16934
SWIDTH 854 0
DWIDTH 16 0
BBX 16 18 0 -2
BITMAP
0000
7CE0
1110
1200
1207
1204
1207
1111
10E6
0000
7E2B
5335
52B5
5EB5
52BD
5277
7E2B
0000
ENDCHAR

STARTCHAR cns1_4227
ENCODING 16935
SWIDTH 854 0
DWIDTH 16 0
BBX 16 18 0 -2
BITMAP
0000
7CE0
1110
1200
1203
1204
1207
1115
10E2
0000
6893
4955
4919
5515
5D13
5551
7493
0000
ENDCHAR

STARTCHAR cns1_4228
ENCODING 16936
SWIDTH 854 0
DWIDTH 16 0
BBX 16 18 0 -2
BITMAP
0000
77A2
4AA2
4A22
4A22
4A22
4AA2
4AA2
72A2
4BA2
4AA2
4AA2
4A22
4A22
4A22
4AA2
77BB
0000
ENDCHAR

STARTCHAR cns1_4229
ENCODING 16937
SWIDTH 854 0
DWIDTH 16 0
BBX 16 18 0 -2
BITMAP
0000
7DF0
2100
2100
39E6
2109
2109
2109
21E6
0000
6E33
4949
4941
4E39
4905
4945
6E3B
0000
ENDCHAR

STARTCHAR cns1_422A
ENCODING 16938
SWIDTH 854 0
DWIDTH 16 0
BBX 16 18 0 -2
BITMAP
0000
7DE0
2100
2100
39E2
2106
2102
2102
21E7
0000
68BB
4891
4891
4F91
4891
4891
6893
0000
ENDCHAR

STARTCHAR cns1_422B
ENCODING 16939
SWIDTH 854 0
DWIDTH 16 0
BBX 16 18 0 -2
BITMAP
0000
7DE0
2100
2100
39E6
2109
2102
2104
21E7
0000
68FB
4821
4821
4839
4821
4921
6F23
0000
ENDCHAR

STARTCHAR cns1_422C
ENCODING 16940
SWIDTH 854 0
DWIDTH 16 0
BBX 16 18 0 -2
BITMAP
0000
7DE0
2100
2100
39E7
2101
2102
2101
21E7
0000
71BB
5111
5111
4A11
4A11
4411
6413
0000
ENDCHAR

STARTCHAR cns1_422D
ENCODING 16941
SWIDTH 854 0
DWIDTH 16 0
BBX 16 18 0 -2
BITMAP
0000
7DE0
2100
2100
39E2
2104
210A
211F
21E2
0000
6F7B
4421
4421
4739
4421
4421
6423
0000
ENDCHAR

STARTCHAR cns1_422E
ENCODING 16942
SWIDTH 854 0
DWIDTH 16 0
BBX 16 18 0 -2
BITMAP
0000
7DE0
2100
2100
39E7
2104
2107
2101
21E7
0000
6673
4949
5049
5071
5051
4949
6647
0000
ENDCHAR

STARTCHAR cns1_422F
ENCODING 16943
SWIDTH 854 0
DWIDTH 16 0
BBX 16 18 0 -2
BITMAP
0000
1818
2424
4242
4242
4042
4042
2042
1042
0842
0442
0242
0242
4242
4242
2224
1C18
0000
ENDCHAR

STARTCHAR cns1_4230
ENCODING 16944
SWIDTH 854 0
DWIDTH 16 0
BBX 16 18 0 -2
BITMAP
0000
183E
2408
4208
4008
4008
2008
1008
0808
0408
0208
0108
0108
4108
4108
2208
1C3E
0000
ENDCHAR

STARTCHAR cns1_4231
ENCODING 16945
SWIDTH 854 0
DWIDTH 16 0
BBX 16 18 0 -2
BITMAP
0000
7CE0
1110
1200
1207
1201
1209
1112
10E2
0000
7C9F
5291
5291
529D
5291
5291
7CFF
0000
ENDCHAR

STARTCHAR cns1_4232
ENCODING 16946
SWIDTH 854 0
DWIDTH 16 0
BBX 16 18 0 -2
BITMAP
0000
6000
5030
4848
4480
4480
4500
4500
4500
4500
4500
4506
4482
4482
484A
5032
6007
0000
ENDCHAR

STARTCHAR cns1_4233
ENCODING 16947
SWIDTH 854 0
DWIDTH 16 0
BBX 16 18 0 -2
BITMAP
0000
6000
5030
4848
4480
4480
4500
4500
4500
4500
4500
4507
4485
4481
484A
5034
6007
0000
ENDCHAR

STARTCHAR cns1_4234
ENCODING 16948
SWIDTH 854 0
DWIDTH 16 0
BBX 16 18 0 -2
BITMAP
0000
6000
5030
4848
4480
4480
4500
4500
4500
4500
4500
4507
4481
4482
484A
5031
6006
0000
ENDCHAR

STARTCHAR cns1_4235
ENCODING 16949
SWIDTH 854 0
DWIDTH 16 0
BBX 16 18 0 -2
BITMAP
0000
6000
5030
4848
4480
4480
4500
4500
4500
4500
4500
4500
4482
4486
484A
503F
6002
0000
ENDCHAR

STARTCHAR cns1_4236
ENCODING 16950
SWIDTH 854 0
DWIDTH 16 0
BBX 16 18 0 -2
BITMAP
0000
7CE0
1110
1200
1207
1205
1207
1115
10E7
0000
7953
5555
55B9
55B1
55F9
55B5
73B3
0000
ENDCHAR

STARTCHAR cns1_4237
ENCODING 16951
SWIDTH 854 0
DWIDTH 16 0
BBX 16 18 0 -2
BITMAP
0000
7CE0
1110
1200
1207
1205
1207
1111
10E6
0000
6AE7
56D5
5155
4955
4555
5555
694F
0000
ENDCHAR

STARTCHAR cns1_4238
ENCODING 16952
SWIDTH 854 0
DWIDTH 16 0
BBX 16 18 0 -2
BITMAP
0000
7CC0
1120
1200
1212
1215
1215
1135
10D2
0000
7FBB
5125
5125
5D39
5125
5125
7D3B
0000
ENDCHAR

STARTCHAR cns1_4239
ENCODING 16953
SWIDTH 854 0
DWIDTH 16 0
BBX 16 18 0 -2
BITMAP
0000
0119
1115
2A95
4695
4295
4295
4295
4295
4295
4395
4455
4455
4455
4455
2C55
1453
0000
ENDCHAR

STARTCHAR cns1_423A
ENCODING 16954
SWIDTH 854 0
DWIDTH 16 0
BBX 16 18 0 -2
BITMAP
0000
7DC7
20C6
20C6
20C6
20AA
20AA
24AA
24AA
3CAA
24AA
24AA
20AA
2092
2092
2092
7DD7
0000
ENDCHAR

STARTCHAR cns1_423B
ENCODING 16955
SWIDTH 854 0
DWIDTH 16 0
BBX 16 18 0 -2
BITMAP
0000
322E
4A2A
4229
4229
4229
4229
2229
222E
1229
0A29
0A29
0A29
4A29
4A29
4949
308E
0000
ENDCHAR

STARTCHAR cns1_423C
ENCODING 16956
SWIDTH 854 0
DWIDTH 16 0
BBX 16 18 0 -2
BITMAP
0000
7980
4246
4209
4209
4210
4110
4110
7090
4050
4050
4030
4030
4231
4229
4246
7980
0000
ENDCHAR

STARTCHAR cns1_423D
ENCODING 16957
SWIDTH 854 0
DWIDTH 16 0
BBX 16 18 0 -2
BITMAP
0000
7CE0
1110
1100
1081
1062
1015
1117
7CE1
0000
6F33
4449
4441
4731
4409
4449
6433
0000
ENDCHAR

STARTCHAR cns1_423E
ENCODING 16958
SWIDTH 854 0
DWIDTH 16 0
BBX 16 18 0 -2
BITMAP
0000
7CE0
1110
1100
1087
1061
1012
1111
7CE7
0000
6733
4849
5041
53B1
5109
4949
6733
0000
ENDCHAR

STARTCHAR cns1_423F
ENCODING 16959
SWIDTH 854 0
DWIDTH 16 0
BBX 16 18 0 -2
BITMAP
0000
7CE0
1110
1100
1086
1061
1012
1114
7CE7
0000
6E33
4949
4941
4E31
4A09
4949
68B3
0000
ENDCHAR

STARTCHAR cns1_4240
ENCODING 16960
SWIDTH 854 0
DWIDTH 16 0
BBX 16 18 0 -2
BITMAP
0000
7CE0
1110
1100
1086
1062
1012
1112
7CE7
0000
6933
4949
4941
4931
4909
4949
6633
0000
ENDCHAR

STARTCHAR cns1_4241
ENCODING 16961
SWIDTH 854 0
DWIDTH 16 0
BBX 16 18 0 -2
BITMAP
0000
71E8
4908
4908
4508
4508
4508
4508
45E8
4508
4508
4508
4508
4508
4909
5109
61EE
0000
ENDCHAR

STARTCHAR cns1_4421
ENCODING 17441
SWIDTH 854 0
DWIDTH 16 0
BBX 16 18 0 -2
BITMAP
0000
0000
0000
0000
0000
0000
0000
0000
7FFF
0000
0000
0000
0000
0000
0000
0000
0000
0000
ENDCHAR

STARTCHAR cns1_4422
ENCODING 17442
SWIDTH 854 0
DWIDTH 16 0
BBX 16 18 0 -2
BITMAP
0000
0000
3FFC
0008
0008
0010
0060
0080
0300
0400
0800
1000
2000
2002
1002
0FFE
0000
0000
ENDCHAR

STARTCHAR cns1_4423
ENCODING 17443
SWIDTH 854 0
DWIDTH 16 0
BBX 16 18 0 -2
BITMAP
0000
0000
7FFF
0040
0040
0040
0040
0040
0040
0040
0040
0040
0040
0040
0040
0040
0380
0000
ENDCHAR

STARTCHAR cns1_4424
ENCODING 17444
SWIDTH 854 0
DWIDTH 16 0
BBX 16 18 0 -2
BITMAP
0000
0400
0400
0400
0400
0400
7FFF
0400
0400
0400
0400
0400
0400
0402
0402
03FE
0000
0000
ENDCHAR

STARTCHAR cns1_4425
ENCODING 17445
SWIDTH 854 0
DWIDTH 16 0
BBX 16 18 0 -2
BITMAP
0000
0000
3FF8
0210
0210
0220
0220
023E
0242
0402
0402
0402
0802
0804
1004
2008
4070
0000
ENDCHAR

STARTCHAR cns1_4426
ENCODING 17446
SWIDTH 854 0
DWIDTH 16 0
BBX 16 18 0 -2
BITMAP
0000
0200
0200
0200
0200
7FF0
0210
0210
0210
0210
0210
0410
0410
0810
0811
1011
601F
0000
ENDCHAR

STARTCHAR cns1_4427
ENCODING 17447
SWIDTH 854 0
DWIDTH 16 0
BBX 16 18 0 -2
BITMAP
0000
0000
3FFE
0004
0008
0010
0020
00C0
0040
0040
0040
0040
0040
0040
0040
0240
01C0
0000
ENDCHAR

STARTCHAR cns1_4428
ENCODING 17448
SWIDTH 854 0
DWIDTH 16 0
BBX 16 18 0 -2
BITMAP
0000
0000
0000
0000
1FFC
0000
0000
0000
0000
0000
0000
0000
0000
7FFF
0000
0000
0000
0000
ENDCHAR

STARTCHAR cns1_4429
ENCODING 17449
SWIDTH 854 0
DWIDTH 16 0
BBX 16 18 0 -2
BITMAP
0000
0000
0040
0040
0040
0080
0080
0080
0140
0140
0220
0220
0410
0808
1004
2002
4001
0000
ENDCHAR

STARTCHAR cns1_442A
ENCODING 17450
SWIDTH 854 0
DWIDTH 16 0
BBX 16 18 0 -2
BITMAP
0000
0020
0420
0420
0420
0420
0420
0420
0420
0420
0420
0420
0820
0820
1021
2021
401F
0000
ENDCHAR

STARTCHAR cns1_442B
ENCODING 17451
SWIDTH 854 0
DWIDTH 16 0
BBX 16 18 0 -2
BITMAP
0000
0300
0100
0100
0100
0080
0080
0080
0140
0140
0220
0220
0410
0810
1008
2004
4003
0000
ENDCHAR

STARTCHAR cns1_442C
ENCODING 17452
SWIDTH 854 0
DWIDTH 16 0
BBX 16 18 0 -2
BITMAP
0000
0000
01E0
0020
0020
0020
0420
0410
0410
0410
0810
0808
0808
1004
1004
2002
4001
0000
ENDCHAR

STARTCHAR cns1_442D
ENCODING 17453
SWIDTH 854 0
DWIDTH 16 0
BBX 16 18 0 -2
BITMAP
0000
0000
0FF0
0810
0810
0810
0810
0810
0810
0810
0810
0810
0810
1010
1011
2011
401F
0000
ENDCHAR

STARTCHAR cns1_442E
ENCODING 17454
SWIDTH 854 0
DWIDTH 16 0
BBX 16 18 0 -2
BITMAP
0000
0000
3FFE
0102
0102
0102
0102
0102
0102
0102
0102
0202
0202
0402
0402
1804
6038
0000
ENDCHAR

STARTCHAR cns1_442F
ENCODING 17455
SWIDTH 854 0
DWIDTH 16 0
BBX 16 18 0 -2
BITMAP
0000
0000
1FFF
0001
0001
0001
0001
0011
0021
00C1
0301
0C01
0001
0001
0001
0002
000C
0000
ENDCHAR

STARTCHAR cns1_4430
ENCODING 17456
SWIDTH 854 0
DWIDTH 16 0
BBX 16 18 0 -2
BITMAP
0000
0100
0100
0100
0100
7FFE
0102
0102
0102
0102
0202
0202
0402
0402
0802
1004
6018
0000
ENDCHAR

STARTCHAR cns1_4431
ENCODING 17457
SWIDTH 854 0
DWIDTH 16 0
BBX 16 18 0 -2
BITMAP
0000
0000
0800
0800
0804
0808
0810
0860
0980
0E00
0800
0800
0800
0800
0802
0802
0FFE
0000
ENDCHAR

STARTCHAR cns1_4432
ENCODING 17458
SWIDTH 854 0
DWIDTH 16 0
BBX 16 18 0 -2
BITMAP
0000
0000
0080
0080
0080
0080
0080
0080
7FFF
0080
0080
0080
0080
0080
0080
0080
0080
0000
ENDCHAR

STARTCHAR cns1_4433
ENCODING 17459
SWIDTH 854 0
DWIDTH 16 0
BBX 16 18 0 -2
BITMAP
0000
0200
0200
0200
0200
0200
0300
02C0
0230
0208
0204
0200
0200
0200
0200
0200
0200
0000
ENDCHAR

STARTCHAR cns1_4434
ENCODING 17460
SWIDTH 854 0
DWIDTH 16 0
BBX 16 18 0 -2
BITMAP
0000
0000
3FFC
0004
0408
0408
0410
0210
0220
0220
0140
0080
0140
0630
180C
6003
0000
0000
ENDCHAR

STARTCHAR cns1_4435
ENCODING 17461
SWIDTH 854 0
DWIDTH 16 0
BBX 16 18 0 -2
BITMAP
0000
0000
0000
1FFC
0000
0000
0000
0000
0FF8
0000
0000
0000
0000
0000
7FFF
0000
0000
0000
ENDCHAR

STARTCHAR cns1_4436
ENCODING 17462
SWIDTH 854 0
DWIDTH 16 0
BBX 16 18 0 -2
BITMAP
0000
0000
7FFF
0080
0080
0080
0080
00E0
0090
0088
0084
0080
0080
0080
0080
0080
0080
0000
ENDCHAR

STARTCHAR cns1_4437
ENCODING 17463
SWIDTH 854 0
DWIDTH 16 0
BBX 16 18 0 -2
BITMAP
0000
0040
0040
0040
7FFF
0040
0040
0840
0840
0440
0480
0280
0100
0280
0460
1818
6007
0000
ENDCHAR

STARTCHAR cns1_4438
ENCODING 17464
SWIDTH 854 0
DWIDTH 16 0
BBX 16 18 0 -2
BITMAP
0000
0100
0100
0100
0100
0100
0100
01FC
0100
0100
0100
0100
0100
0100
0100
7FFF
0000
0000
ENDCHAR

STARTCHAR cns1_4439
ENCODING 17465
SWIDTH 854 0
DWIDTH 16 0
BBX 16 18 0 -2
BITMAP
0000
1001
0802
0404
0208
0110
00A0
0040
0040
0040
0040
0040
0040
0040
0040
0040
0040
0000
ENDCHAR

STARTCHAR cns1_443A
ENCODING 17466
SWIDTH 854 0
DWIDTH 16 0
BBX 16 18 0 -2
BITMAP
0000
0200
0200
0200
7FF0
0210
0210
1210
0A10
0410
0410
0610
0911
0891
1011
2011
400F
0000
ENDCHAR

STARTCHAR cns1_443B
ENCODING 17467
SWIDTH 854 0
DWIDTH 16 0
BBX 16 18 0 -2
BITMAP
0000
0000
0FF0
0810
0810
0810
0A10
0910
0910
0890
0890
0890
1010
1011
1011
2011
400F
0000
ENDCHAR

STARTCHAR cns1_443C
ENCODING 17468
SWIDTH 854 0
DWIDTH 16 0
BBX 16 18 0 -2
BITMAP
0000
0100
0100
0100
03F8
0208
0408
0810
1010
2020
0020
0060
0090
0108
0604
1802
6001
0000
ENDCHAR

STARTCHAR cns1_443D
ENCODING 17469
SWIDTH 854 0
DWIDTH 16 0
BBX 16 18 0 -2
BITMAP
0000
0100
0100
0200
0200
0400
0420
0820
0840
1040
1080
2080
4108
0104
023E
0FC1
0000
0000
ENDCHAR

STARTCHAR cns1_443E
ENCODING 17470
SWIDTH 854 0
DWIDTH 16 0
BBX 16 18 0 -2
BITMAP
0000
0040
0840
0840
0840
0840
085E
0BE2
7C42
0842
0842
0842
084C
0840
0800
0801
07FF
0000
ENDCHAR

STARTCHAR cns1_443F
ENCODING 17471
SWIDTH 854 0
DWIDTH 16 0
BBX 16 18 0 -2
BITMAP
0000
0400
0800
0800
1FFE
2000
4000
1FF0
0020
00C0
0300
0C00
1000
2001
1001
0FFE
0000
0000
ENDCHAR

STARTCHAR cns1_4440
ENCODING 17472
SWIDTH 854 0
DWIDTH 16 0
BBX 16 18 0 -2
BITMAP
0000
0000
3FFE
0080
0080
0080
0080
7FFF
0080
0080
0080
0080
0080
0080
0080
0080
0380
0000
ENDCHAR

STARTCHAR cns1_4441
ENCODING 17473
SWIDTH 854 0
DWIDTH 16 0
BBX 16 18 0 -2
BITMAP
0000
0080
0080
0080
7FFF
1000
1000
1000
1000
1000
1000
1000
1000
1000
1000
1000
0FFE
0000
ENDCHAR

STARTCHAR cns1_4442
ENCODING 17474
SWIDTH 854 0
DWIDTH 16 0
BBX 16 18 0 -2
BITMAP
0000
0000
7FFF
0240
0240
0240
0240
0240
0240
0240
0440
0440
0840
0840
1041
2041
403F
0000
ENDCHAR

STARTCHAR cns1_4443
ENCODING 17475
SWIDTH 854 0
DWIDTH 16 0
BBX 16 18 0 -2
BITMAP
0000
0000
3FFC
0084
0084
1084
0884
0504
0304
0104
0104
0208
0208
0408
0808
1010
6060
0000
ENDCHAR

STARTCHAR cns1_4444
ENCODING 17476
SWIDTH 854 0
DWIDTH 16 0
BBX 16 18 0 -2
BITMAP
0000
0400
0800
0800
1FFE
1002
2002
2002
4202
0102
0082
0082
0002
0002
0004
0004
0038
0000
ENDCHAR

STARTCHAR cns1_4445
ENCODING 17477
SWIDTH 854 0
DWIDTH 16 0
BBX 16 18 0 -2
BITMAP
0000
0000
0078
1F80
0080
0080
0080
0080
0080
7FFF
0080
0080
0080
0080
0080
0080
0080
0000
ENDCHAR

STARTCHAR cns1_4446
ENCODING 17478
SWIDTH 854 0
DWIDTH 16 0
BBX 16 18 0 -2
BITMAP
0000
0000
3FFC
0004
0908
0888
0410
0410
0220
0220
0140
0080
0140
0230
0C0C
7003
0000
0000
ENDCHAR

STARTCHAR cns1_4447
ENCODING 17479
SWIDTH 854 0
DWIDTH 16 0
BBX 16 18 0 -2
BITMAP
0000
0000
0000
1FFC
1004
1004
1004
1004
1004
1004
1004
1004
1004
1004
1FFC
1004
0000
0000
ENDCHAR

STARTCHAR cns1_4448
ENCODING 17480
SWIDTH 854 0
DWIDTH 16 0
BBX 16 18 0 -2
BITMAP
0000
0000
0080
0080
0080
0080
0080
1FFC
0080
0080
0080
0080
0080
0080
0080
7FFF
0000
0000
ENDCHAR

STARTCHAR cns1_4449
ENCODING 17481
SWIDTH 854 0
DWIDTH 16 0
BBX 16 18 0 -2
BITMAP
0000
0080
0080
0080
0080
0080
0080
7FFF
0080
0080
0080
0080
0080
0080
0080
0080
1FFE
0000
ENDCHAR

STARTCHAR cns1_444A
ENCODING 17482
SWIDTH 854 0
DWIDTH 16 0
BBX 16 18 0 -2
BITMAP
0000
0200
0200
03FC
0404
0404
0804
1808
2608
0110
0090
0060
0040
0080
0300
0C00
7000
0000
ENDCHAR

STARTCHAR cns1_444B
ENCODING 17483
SWIDTH 854 0
DWIDTH 16 0
BBX 16 18 0 -2
BITMAP
0000
0000
0080
0080
0080
7FFF
0080
0080
0140
0140
0120
0220
0210
0410
0808
1004
6003
0000
ENDCHAR

STARTCHAR cns1_444C
ENCODING 17484
SWIDTH 854 0
DWIDTH 16 0
BBX 16 18 0 -2
BITMAP
0000
0080
0080
0100
0100
0200
7FFF
0208
0408
0408
0C10
1310
00A0
00C0
0120
0610
3808
0000
ENDCHAR

STARTCHAR cns1_444D
ENCODING 17485
SWIDTH 854 0
DWIDTH 16 0
BBX 16 18 0 -2
BITMAP
0000
0000
1FFC
0010
0020
0040
0180
0080
0080
7FFF
0080
0080
0080
0080
0080
0080
0300
0000
ENDCHAR

STARTCHAR cns1_444E
ENCODING 17486
SWIDTH 854 0
DWIDTH 16 0
BBX 16 18 0 -2
BITMAP
0000
0000
1FFC
0008
0030
00C0
0081
0086
00B8
01C0
0E80
7080
0080
0080
0080
0080
0300
0000
ENDCHAR

STARTCHAR cns1_444F
ENCODING 17487
SWIDTH 854 0
DWIDTH 16 0
BBX 16 18 0 -2
BITMAP
0000
0000
0FFE
0004
0018
0060
0040
1840
0740
00E0
005C
0043
0040
0040
0040
0040
0180
0000
ENDCHAR

STARTCHAR cns1_4450
ENCODING 17488
SWIDTH 854 0
DWIDTH 16 0
BBX 16 18 0 -2
BITMAP
0000
0010
0010
0010
7FFF
0010
0010
0010
0810
0410
0210
0210
0010
0010
0010
0010
00E0
0000
ENDCHAR

STARTCHAR cns1_4451
ENCODING 17489
SWIDTH 854 0
DWIDTH 16 0
BBX 16 18 0 -2
BITMAP
0000
0080
0080
0080
0080
0490
0488
0888
0884
1084
1082
2082
4082
0080
0080
0080
0700
0000
ENDCHAR

STARTCHAR cns1_4452
ENCODING 17490
SWIDTH 854 0
DWIDTH 16 0
BBX 16 18 0 -2
BITMAP
0000
0080
0080
0080
0080
7FFF
0100
0140
0140
0140
0240
0240
0440
0440
0841
1041
607F
0000
ENDCHAR

STARTCHAR cns1_4453
ENCODING 17491
SWIDTH 854 0
DWIDTH 16 0
BBX 16 18 0 -2
BITMAP
0000
0000
1FFC
1004
1004
1004
1004
1FFC
1004
1000
1000
1000
1000
2000
2000
2000
4000
0000
ENDCHAR

STARTCHAR cns1_4454
ENCODING 17492
SWIDTH 854 0
DWIDTH 16 0
BBX 16 18 0 -2
BITMAP
0000
0080
0080
0080
0080
2082
2082
2082
2082
2082
2082
2082
2082
2082
2082
3FFE
2002
0000
ENDCHAR

STARTCHAR cns1_4455
ENCODING 17493
SWIDTH 854 0
DWIDTH 16 0
BBX 16 18 0 -2
BITMAP
0000
0802
0842
0842
0842
0842
0842
0842
0842
0842
0842
0842
0842
1042
1002
2002
4002
0000
ENDCHAR

STARTCHAR cns1_4456
ENCODING 17494
SWIDTH 854 0
DWIDTH 16 0
BBX 16 18 0 -2
BITMAP
0000
0000
0000
3FFE
0080
0080
0080
0080
0080
0080
0080
0080
0080
0080
0080
7FFF
0000
0000
ENDCHAR

STARTCHAR cns1_4457
ENCODING 17495
SWIDTH 854 0
DWIDTH 16 0
BBX 16 18 0 -2
BITMAP
0000
0000
7FFC
0004
0004
0004
0004
0004
3FFC
2004
2000
2000
2000
2001
2001
2001
1FFE
0000
ENDCHAR

STARTCHAR cns1_4458
ENCODING 17496
SWIDTH 854 0
DWIDTH 16 0
BBX 16 18 0 -2
BITMAP
0000
0000
3FFC
0004
0004
1004
1004
1FFC
1004
1000
1000
1000
1000
1001
1001
1FFF
0000
0000
ENDCHAR

STARTCHAR cns1_4459
ENCODING 17497
SWIDTH 854 0
DWIDTH 16 0
BBX 16 18 0 -2
BITMAP
0000
0000
1FFC
1004
1004
1004
1004
1004
1FFC
1004
1000
1000
1000
1000
1001
1001
0FFF
0000
ENDCHAR

STARTCHAR cns1_445A
ENCODING 17498
SWIDTH 854 0
DWIDTH 16 0
BBX 16 18 0 -2
BITMAP
0000
0080
0080
0080
1FFC
1084
1084
1084
1084
1084
1084
1084
1084
109C
0080
0080
0080
0000
ENDCHAR

STARTCHAR cns1_445B
ENCODING 17499
SWIDTH 854 0
DWIDTH 16 0
BBX 16 18 0 -2
BITMAP
0000
0000
3FFE
0080
0080
0080
0080
0080
7FFF
0080
0080
0080
0080
0080
0080
0080
0080
0000
ENDCHAR

STARTCHAR cns1_445C
ENCODING 17500
SWIDTH 854 0
DWIDTH 16 0
BBX 16 18 0 -2
BITMAP
0000
0210
0210
0210
0210
0210
0210
7FFF
0210
0210
0210
0410
0410
0810
1010
2010
0010
0000
ENDCHAR

STARTCHAR cns1_445D
ENCODING 17501
SWIDTH 854 0
DWIDTH 16 0
BBX 16 18 0 -2
BITMAP
0000
0200
0260
0210
0207
7FF8
0100
0100
0100
0100
0080
0080
0040
0021
0011
000D
0002
0000
ENDCHAR

STARTCHAR cns1_445E
ENCODING 17502
SWIDTH 854 0
DWIDTH 16 0
BBX 16 18 0 -2
BITMAP
0000
0000
3FFE
0002
0002
0002
1FFE
1000
1000
2000
3FFF
2001
0001
0001
0001
0002
007C
0000
ENDCHAR

STARTCHAR cns1_445F
ENCODING 17503
SWIDTH 854 0
DWIDTH 16 0
BBX 16 18 0 -2
BITMAP
0000
0040
0040
0040
0040
7FFF
0040
00C0
00C0
0140
0140
0240
0440
1840
6040
0040
01C0
0000
ENDCHAR

STARTCHAR cns1_4460
ENCODING 17504
SWIDTH 854 0
DWIDTH 16 0
BBX 16 18 0 -2
BITMAP
0000
0000
3FF8
0108
0108
0208
0208
0208
7FFF
0208
0208
0210
0410
0410
0410
7FFE
0000
0000
ENDCHAR

STARTCHAR cns1_4461
ENCODING 17505
SWIDTH 854 0
DWIDTH 16 0
BBX 16 18 0 -2
BITMAP
0000
0000
7FFF
0080
0080
1080
10FC
1080
1080
1080
1FFE
1002
1002
0002
0002
0004
0018
0000
ENDCHAR

STARTCHAR cns1_4462
ENCODING 17506
SWIDTH 854 0
DWIDTH 16 0
BBX 16 18 0 -2
BITMAP
0000
0000
7FFF
0040
0080
0180
0180
0290
0488
0884
3082
4082
0080
0080
0080
0080
0080
0000
ENDCHAR

STARTCHAR cns1_4463
ENCODING 17507
SWIDTH 854 0
DWIDTH 16 0
BBX 16 18 0 -2
BITMAP
0000
0080
0080
0080
3FFE
2082
2082
2082
2082
2082
2082
3FFE
2082
0080
0080
0080
0080
0000
ENDCHAR

STARTCHAR cns1_4464
ENCODING 17508
SWIDTH 854 0
DWIDTH 16 0
BBX 16 18 0 -2
BITMAP
0000
0080
00FC
0F80
0080
0080
0080
3FFE
0080
0080
0080
7FFF
0080
0080
0080
0080
0080
0000
ENDCHAR

STARTCHAR cns1_4465
ENCODING 17509
SWIDTH 854 0
DWIDTH 16 0
BBX 16 18 0 -2
BITMAP
0000
0000
0FF8
0808
0908
0888
0848
0848
0808
7FFF
0808
0808
0808
1008
1008
2008
4018
0000
ENDCHAR

STARTCHAR cns1_4466
ENCODING 17510
SWIDTH 854 0
DWIDTH 16 0
BBX 16 18 0 -2
BITMAP
0000
0080
0080
0080
3FFC
0008
0008
0010
0020
0040
0080
0100
0A00
0C00
1200
2180
407F
0000
ENDCHAR

STARTCHAR cns1_4467
ENCODING 17511
SWIDTH 854 0
DWIDTH 16 0
BBX 16 18 0 -2
BITMAP
0000
0000
3FF8
0108
0108
0108
7FFF
0108
0108
0108
3FF8
0208
0200
0400
0400
0800
7000
0000
ENDCHAR

STARTCHAR cns1_4468
ENCODING 17512
SWIDTH 854 0
DWIDTH 16 0
BBX 16 18 0 -2
BITMAP
0000
0000
1FFC
0008
0610
0120
00C0
0020
7FFF
0041
0042
0044
0040
0040
0040
0040
01C0
0000
ENDCHAR

STARTCHAR cns1_4469
ENCODING 17513
SWIDTH 854 0
DWIDTH 16 0
BBX 16 18 0 -2
BITMAP
0000
0000
1FFC
0000
0000
0000
0000
7FFF
0100
0100
0210
0208
0404
047C
3F82
0002
0000
0000
ENDCHAR

STARTCHAR cns1_446A
ENCODING 17514
SWIDTH 854 0
DWIDTH 16 0
BBX 16 18 0 -2
BITMAP
0000
0410
0410
0410
0410
3FFE
0410
0410
0410
0410
7FFF
0410
0410
0810
0810
1010
2010
0000
ENDCHAR

STARTCHAR cns1_446B
ENCODING 17515
SWIDTH 854 0
DWIDTH 16 0
BBX 16 18 0 -2
BITMAP
0000
0000
3FFE
0200
0200
0200
03F8
0208
0408
0408
0408
07F8
0410
0010
0010
0010
7FFF
0000
ENDCHAR

STARTCHAR cns1_446C
ENCODING 17516
SWIDTH 854 0
DWIDTH 16 0
BBX 16 18 0 -2
BITMAP
0000
0000
0000
3FFE
0080
0080
0080
0080
1FFC
0104
0104
0104
0104
0204
0204
7FFF
0000
0000
ENDCHAR

STARTCHAR cns1_446D
ENCODING 17517
SWIDTH 854 0
DWIDTH 16 0
BBX 16 18 0 -2
BITMAP
0000
0080
0080
7FFF
0000
0000
07E0
0420
0420
0420
0420
0420
0820
0820
1021
2021
403F
0000
ENDCHAR

STARTCHAR cns1_446E
ENCODING 17518
SWIDTH 854 0
DWIDTH 16 0
BBX 16 18 0 -2
BITMAP
0000
0200
0400
0400
09FE
0800
1800
1800
2800
4800
0800
0800
0800
0800
0BFF
0800
0800
0000
ENDCHAR

STARTCHAR cns1_446F
ENCODING 17519
SWIDTH 854 0
DWIDTH 16 0
BBX 16 18 0 -2
BITMAP
0000
0810
0810
0810
1010
1010
1810
2BFF
2810
4810
4810
0810
0810
0810
0810
0810
0810
0000
ENDCHAR

STARTCHAR cns1_4470
ENCODING 17520
SWIDTH 854 0
DWIDTH 16 0
BBX 16 18 0 -2
BITMAP
0000
0400
0BFF
0810
1010
1010
3010
3010
5010
1010
1010
1010
1010
1010
1010
1010
1070
0000
ENDCHAR

STARTCHAR cns1_4471
ENCODING 17521
SWIDTH 854 0
DWIDTH 16 0
BBX 16 18 0 -2
BITMAP
0000
0420
0420
0820
0820
1020
1830
2828
2824
4822
0821
0820
0820
0820
0820
0820
0820
0000
ENDCHAR

STARTCHAR cns1_4472
ENCODING 17522
SWIDTH 854 0
DWIDTH 16 0
BBX 16 18 0 -2
BITMAP
0000
0240
0440
0440
0840
0BFC
1844
1844
2844
2844
4844
0884
0884
0884
0904
0905
0A07
0000
ENDCHAR

STARTCHAR cns1_4473
ENCODING 17523
SWIDTH 854 0
DWIDTH 16 0
BBX 16 18 0 -2
BITMAP
0000
0800
0BF8
0888
1088
1090
2090
309E
5092
5082
1102
1102
1104
1104
1204
1404
1018
0000
ENDCHAR

STARTCHAR cns1_4474
ENCODING 17524
SWIDTH 854 0
DWIDTH 16 0
BBX 16 18 0 -2
BITMAP
0000
0080
0140
0220
0410
0808
1004
67F3
0000
0000
3FFC
0004
0008
0008
0010
0020
01C0
0000
ENDCHAR

STARTCHAR cns1_4475
ENCODING 17525
SWIDTH 854 0
DWIDTH 16 0
BBX 16 18 0 -2
BITMAP
0000
0080
0140
0220
0410
0808
1004
2412
4411
0410
0410
0410
0810
0810
0810
1010
2010
0000
ENDCHAR

STARTCHAR cns1_4476
ENCODING 17526
SWIDTH 854 0
DWIDTH 16 0
BBX 16 18 0 -2
BITMAP
0000
0000
3FFF
2000
2040
2040
2040
2040
20A0
20A0
20A0
2110
2110
2208
2404
4802
5001
0000
ENDCHAR

STARTCHAR cns1_4477
ENCODING 17527
SWIDTH 854 0
DWIDTH 16 0
BBX 16 18 0 -2
BITMAP
0000
0000
1FFC
0000
0000
0000
0000
7FFF
0220
0220
0220
0220
0220
0420
0421
1821
603F
0000
ENDCHAR

STARTCHAR cns1_4478
ENCODING 17528
SWIDTH 854 0
DWIDTH 16 0
BBX 16 18 0 -2
BITMAP
0000
0080
0080
0100
0108
0204
02FC
3F22
0222
0220
0220
0220
0420
0420
0821
1021
601F
0000
ENDCHAR

STARTCHAR cns1_4479
ENCODING 17529
SWIDTH 854 0
DWIDTH 16 0
BBX 16 18 0 -2
BITMAP
0000
0040
0040
0040
3FFF
2081
2081
2081
2141
2121
2211
2409
2805
3001
2001
2001
2007
0000
ENDCHAR

STARTCHAR cns1_447A
ENCODING 17530
SWIDTH 854 0
DWIDTH 16 0
BBX 16 18 0 -2
BITMAP
0000
0080
0080
0080
0080
7FFF
0000
0000
0410
0408
0404
0804
0802
1002
2002
4000
0000
0000
ENDCHAR

STARTCHAR cns1_447B
ENCODING 17531
SWIDTH 854 0
DWIDTH 16 0
BBX 16 18 0 -2
BITMAP
0000
01E0
0420
0410
0810
0808
17F6
2201
4200
07F8
0408
0808
0008
0008
0008
0010
0060
0000
ENDCHAR

STARTCHAR cns1_447C
ENCODING 17532
SWIDTH 854 0
DWIDTH 16 0
BBX 16 18 0 -2
BITMAP
0000
0070
0210
0208
0408
0804
1004
2082
4081
0100
0100
0208
0204
043E
3FC2
0002
0000
0000
ENDCHAR

STARTCHAR cns1_447D
ENCODING 17533
SWIDTH 854 0
DWIDTH 16 0
BBX 16 18 0 -2
BITMAP
0000
0000
7FFF
4001
4001
4002
07F0
0410
0410
0410
0410
0410
0410
0810
0810
1011
601F
0000
ENDCHAR

STARTCHAR cns1_447E
ENCODING 17534
SWIDTH 854 0
DWIDTH 16 0
BBX 16 18 0 -2
BITMAP
0000
2001
2005
2005
2C09
2209
2111
2091
2061
2041
20A1
2111
2209
2C09
2001
3FFF
2001
0000
ENDCHAR

STARTCHAR cns1_4521
ENCODING 17697
SWIDTH 854 0
DWIDTH 16 0
BBX 16 18 0 -2
BITMAP
0000
01E0
0020
0210
0410
0808
1004
2002
5FFD
0104
0104
0104
0204
0204
0404
1808
6030
0000
ENDCHAR

STARTCHAR cns1_4522
ENCODING 17698
SWIDTH 854 0
DWIDTH 16 0
BBX 16 18 0 -2
BITMAP
0000
1000
11FF
1011
1011
1711
7811
1011
1011
1021
1021
1021
1241
1E42
0082
0102
060C
0000
ENDCHAR

STARTCHAR cns1_4523
ENCODING 17699
SWIDTH 854 0
DWIDTH 16 0
BBX 16 18 0 -2
BITMAP
0000
0202
0202
0222
0222
0222
2222
1422
0C22
0422
0622
0922
1122
2002
4002
0002
000E
0000
ENDCHAR

STARTCHAR cns1_4524
ENCODING 17700
SWIDTH 854 0
DWIDTH 16 0
BBX 16 18 0 -2
BITMAP
0000
0800
0800
0800
1FFF
1001
1001
2001
43F1
0001
0001
0001
07F9
0001
0002
0002
000C
0000
ENDCHAR

STARTCHAR cns1_4525
ENCODING 17701
SWIDTH 854 0
DWIDTH 16 0
BBX 16 18 0 -2
BITMAP
0000
0400
0400
0800
0FFE
1002
2202
4202
0202
0402
0442
0822
08F2
3F12
0002
0004
0018
0000
ENDCHAR

STARTCHAR cns1_4526
ENCODING 17702
SWIDTH 854 0
DWIDTH 16 0
BBX 16 18 0 -2
BITMAP
0000
0400
0400
0800
0FFE
1122
2122
4222
0222
0422
0842
3042
0082
0102
0604
3804
0018
0000
ENDCHAR

STARTCHAR cns1_4527
ENCODING 17703
SWIDTH 854 0
DWIDTH 16 0
BBX 16 18 0 -2
BITMAP
0000
0480
0880
0880
1080
1082
308C
30F0
5080
1080
1080
1080
1080
1080
1080
1081
107F
0000
ENDCHAR

STARTCHAR cns1_4528
ENCODING 17704
SWIDTH 854 0
DWIDTH 16 0
BBX 16 18 0 -2
BITMAP
0000
0000
0000
3FFF
2220
2220
2220
2220
2220
2420
2422
281E
3000
2000
2000
3FFF
2000
0000
ENDCHAR

STARTCHAR cns1_4529
ENCODING 17705
SWIDTH 854 0
DWIDTH 16 0
BBX 16 18 0 -2
BITMAP
0000
0200
0200
0400
0FFC
1080
2080
0080
0080
7FFF
0080
0080
0080
0080
0080
0080
0080
0000
ENDCHAR

STARTCHAR cns1_452A
ENCODING 17706
SWIDTH 854 0
DWIDTH 16 0
BBX 16 18 0 -2
BITMAP
0000
0190
1E10
0210
0210
0210
0210
0210
7FFF
0210
0210
0210
0410
0410
0810
1010
6010
0000
ENDCHAR

STARTCHAR cns1_452B
ENCODING 17707
SWIDTH 854 0
DWIDTH 16 0
BBX 16 18 0 -2
BITMAP
0000
0888
0888
0888
0888
0888
0888
7FFF
0888
0888
0888
0888
0888
1088
1088
2088
4088
0000
ENDCHAR

STARTCHAR cns1_452C
ENCODING 17708
SWIDTH 854 0
DWIDTH 16 0
BBX 16 18 0 -2
BITMAP
0000
0200
0100
0080
7FFF
0000
0080
0080
00C0
00B0
0088
0084
0080
0080
0080
0080
0080
0000
ENDCHAR

STARTCHAR cns1_452D
ENCODING 17709
SWIDTH 854 0
DWIDTH 16 0
BBX 16 18 0 -2
BITMAP
0000
0000
1FFF
1000
1000
13FC
1204
1204
1204
1204
123C
1200
1200
1201
2201
21FF
4000
0000
ENDCHAR

STARTCHAR cns1_452E
ENCODING 17710
SWIDTH 854 0
DWIDTH 16 0
BBX 16 18 0 -2
BITMAP
0000
0100
0100
0100
7FFF
0100
0100
0200
03F8
0208
0408
0510
08A0
1040
20A0
4318
0C06
0000
ENDCHAR

STARTCHAR cns1_452F
ENCODING 17711
SWIDTH 854 0
DWIDTH 16 0
BBX 16 18 0 -2
BITMAP
0000
0000
3FF0
0210
0210
0220
0220
023C
0544
0504
0484
0888
0848
1030
1028
2044
4183
0000
ENDCHAR

STARTCHAR cns1_4530
ENCODING 17712
SWIDTH 854 0
DWIDTH 16 0
BBX 16 18 0 -2
BITMAP
0000
0000
1FFF
1000
1000
1000
1FFC
1008
1008
1210
1110
10A0
1040
2060
2090
230C
4C03
0000
ENDCHAR

STARTCHAR cns1_4531
ENCODING 17713
SWIDTH 854 0
DWIDTH 16 0
BBX 16 18 0 -2
BITMAP
0000
0000
001C
01E0
1E80
0080
0080
0080
0080
7FFF
0080
0080
0080
0080
0080
3FFE
0000
0000
ENDCHAR

STARTCHAR cns1_4532
ENCODING 17714
SWIDTH 854 0
DWIDTH 16 0
BBX 16 18 0 -2
BITMAP
0000
0000
1FFC
0080
0080
0080
0080
0080
7FFF
0140
0140
0220
0220
0410
0808
1004
6003
0000
ENDCHAR

STARTCHAR cns1_4533
ENCODING 17715
SWIDTH 854 0
DWIDTH 16 0
BBX 16 18 0 -2
BITMAP
0000
0080
0080
0080
3FFE
0080
0080
0080
0080
7FFF
0140
0140
0220
0210
0408
1804
6003
0000
ENDCHAR

STARTCHAR cns1_4534
ENCODING 17716
SWIDTH 854 0
DWIDTH 16 0
BBX 16 18 0 -2
BITMAP
0000
0080
0080
0080
0080
7FFF
0080
0080
0140
0140
0120
0210
0210
0488
0844
1022
6001
0000
ENDCHAR

STARTCHAR cns1_4535
ENCODING 17717
SWIDTH 854 0
DWIDTH 16 0
BBX 16 18 0 -2
BITMAP
0000
0018
01E0
3E80
0080
0080
0080
7FFF
0140
0140
0140
0220
0220
0410
0808
1004
6003
0000
ENDCHAR

STARTCHAR cns1_4536
ENCODING 17718
SWIDTH 854 0
DWIDTH 16 0
BBX 16 18 0 -2
BITMAP
0000
0020
7FA0
00A0
0120
0220
0420
0420
0420
07A0
7C20
0420
0420
0420
0420
0421
1C3F
0000
ENDCHAR

STARTCHAR cns1_4537
ENCODING 17719
SWIDTH 854 0
DWIDTH 16 0
BBX 16 18 0 -2
BITMAP
0000
0080
0080
0490
0488
0884
0882
1081
2089
4088
0190
0010
0020
0040
0180
0600
1800
0000
ENDCHAR

STARTCHAR cns1_4538
ENCODING 17720
SWIDTH 854 0
DWIDTH 16 0
BBX 16 18 0 -2
BITMAP
0000
0080
0090
0088
0080
7FFF
0100
0140
0140
0140
0240
0240
0440
0440
0841
1041
607F
0000
ENDCHAR

STARTCHAR cns1_4539
ENCODING 17721
SWIDTH 854 0
DWIDTH 16 0
BBX 16 18 0 -2
BITMAP
0000
0000
1FFE
1002
1002
1002
1002
1FFE
1080
1080
1040
1040
1020
1010
2008
2004
4003
0000
ENDCHAR

STARTCHAR cns1_453A
ENCODING 17722
SWIDTH 854 0
DWIDTH 16 0
BBX 16 18 0 -2
BITMAP
0000
0080
0080
00FE
3F80
0080
0084
1084
1084
1084
1084
1FFC
1080
1080
0081
0081
007F
0000
ENDCHAR

STARTCHAR cns1_453B
ENCODING 17723
SWIDTH 854 0
DWIDTH 16 0
BBX 16 18 0 -2
BITMAP
0000
0000
1FFC
1084
1084
1084
1084
1084
1FFC
1000
1000
1000
1000
1001
1001
0FFF
0000
0000
ENDCHAR

STARTCHAR cns1_453C
ENCODING 17724
SWIDTH 854 0
DWIDTH 16 0
BBX 16 18 0 -2
BITMAP
0000
0200
047F
0401
0801
0801
5081
2101
1101
0A01
0A01
0401
0901
0881
1381
7C42
004C
0000
ENDCHAR

STARTCHAR cns1_453D
ENCODING 17725
SWIDTH 854 0
DWIDTH 16 0
BBX 16 18 0 -2
BITMAP
0000
0410
0410
0410
0410
0410
7FFF
0410
0410
0410
0410
0410
0410
0410
07F0
0410
0000
0000
ENDCHAR

STARTCHAR cns1_453E
ENCODING 17726
SWIDTH 854 0
DWIDTH 16 0
BBX 16 18 0 -2
BITMAP
0000
0000
7FFE
0102
0102
0102
3FFE
2100
2100
4100
7FFF
4101
0101
0101
0102
010C
0100
0000
ENDCHAR

STARTCHAR cns1_453F
ENCODING 17727
SWIDTH 854 0
DWIDTH 16 0
BBX 16 18 0 -2
BITMAP
0000
0000
3F82
0082
0082
0082
1F82
1002
1002
2002
3FC2
0042
0042
0042
0042
0082
0702
0000
ENDCHAR

STARTCHAR cns1_4540
ENCODING 17728
SWIDTH 854 0
DWIDTH 16 0
BBX 16 18 0 -2
BITMAP
0000
0000
0180
0040
0000
0200
0204
1202
1201
1201
1201
1200
2200
2204
4204
01F8
0000
0000
ENDCHAR

STARTCHAR cns1_4541
ENCODING 17729
SWIDTH 854 0
DWIDTH 16 0
BBX 16 18 0 -2
BITMAP
0000
0100
0110
0108
0100
01FF
7F00
0108
0090
00A0
0040
0040
00A0
0120
0610
3809
0006
0000
ENDCHAR

STARTCHAR cns1_4542
ENCODING 17730
SWIDTH 854 0
DWIDTH 16 0
BBX 16 18 0 -2
BITMAP
0000
0000
7FFF
0000
0000
0000
1FFE
1002
1002
1002
1FFE
1002
1000
1000
2000
2000
4000
0000
ENDCHAR

STARTCHAR cns1_4543
ENCODING 17731
SWIDTH 854 0
DWIDTH 16 0
BBX 16 18 0 -2
BITMAP
0000
000C
3FF0
0080
0080
0080
1FFC
0080
0080
0080
7FFF
0080
0080
0080
0080
0080
0700
0000
ENDCHAR

STARTCHAR cns1_4544
ENCODING 17732
SWIDTH 854 0
DWIDTH 16 0
BBX 16 18 0 -2
BITMAP
0000
0820
0820
0820
7F20
0820
0820
0820
0920
0E20
1820
6820
0820
0821
0821
0821
183F
0000
ENDCHAR

STARTCHAR cns1_4545
ENCODING 17733
SWIDTH 854 0
DWIDTH 16 0
BBX 16 18 0 -2
BITMAP
0000
0080
0080
7FFF
0080
0080
0080
1FFC
0008
0408
0410
0220
0140
00C0
0120
0618
3806
0000
ENDCHAR

STARTCHAR cns1_4546
ENCODING 17734
SWIDTH 854 0
DWIDTH 16 0
BBX 16 18 0 -2
BITMAP
0000
0080
0080
0080
7FFF
0008
0808
0808
0410
0410
0220
0140
0080
0140
0220
0C18
7007
0000
ENDCHAR

STARTCHAR cns1_4547
ENCODING 17735
SWIDTH 854 0
DWIDTH 16 0
BBX 16 18 0 -2
BITMAP
0000
0010
0410
0210
0110
0010
0410
0210
0110
0110
001F
07F0
7810
0010
0010
0010
0010
0000
ENDCHAR

STARTCHAR cns1_4548
ENCODING 17736
SWIDTH 854 0
DWIDTH 16 0
BBX 16 18 0 -2
BITMAP
0000
001C
1FE0
1000
1000
1000
1000
1FFF
1020
1020
1020
1020
1020
2020
2020
4020
0020
0000
ENDCHAR

STARTCHAR cns1_4549
ENCODING 17737
SWIDTH 854 0
DWIDTH 16 0
BBX 16 18 0 -2
BITMAP
0000
0080
0080
0080
7FFF
0400
0400
0400
07FC
0404
0404
0404
0804
0804
1004
2008
4070
0000
ENDCHAR

STARTCHAR cns1_454A
ENCODING 17738
SWIDTH 854 0
DWIDTH 16 0
BBX 16 18 0 -2
BITMAP
0000
0000
0000
0FFC
0804
0804
0804
0804
0FFC
0804
0804
0804
0804
0804
0FFC
0804
0000
0000
ENDCHAR

STARTCHAR cns1_454B
ENCODING 17739
SWIDTH 854 0
DWIDTH 16 0
BBX 16 18 0 -2
BITMAP
0000
0000
3FFC
2004
2004
2004
2004
2004
3FFC
2004
2004
2004
2004
2004
2004
3FFC
2004
0000
ENDCHAR

STARTCHAR cns1_454C
ENCODING 17740
SWIDTH 854 0
DWIDTH 16 0
BBX 16 18 0 -2
BITMAP
0000
0000
07F8
0408
0408
0408
07F8
0408
0408
0408
07F8
0408
0408
0808
0808
1008
2038
0000
ENDCHAR

STARTCHAR cns1_454D
ENCODING 17741
SWIDTH 854 0
DWIDTH 16 0
BBX 16 18 0 -2
BITMAP
0000
0080
0080
0080
0080
7FFF
0080
0180
01C0
02A0
0490
0888
1084
2083
4080
0080
0080
0000
ENDCHAR

STARTCHAR cns1_454E
ENCODING 17742
SWIDTH 854 0
DWIDTH 16 0
BBX 16 18 0 -2
BITMAP
0000
0400
0400
0800
0FFF
1082
2082
4084
0088
0080
0140
0120
0220
0410
0808
1004
6003
0000
ENDCHAR

STARTCHAR cns1_454F
ENCODING 17743
SWIDTH 854 0
DWIDTH 16 0
BBX 16 18 0 -2
BITMAP
0000
0080
0080
0080
0080
1080
1080
1080
10FE
1080
1080
1080
1080
1080
1080
1080
7FFF
0000
ENDCHAR

STARTCHAR cns1_4550
ENCODING 17744
SWIDTH 854 0
DWIDTH 16 0
BBX 16 18 0 -2
BITMAP
0000
0000
7FFF
0100
0200
0200
07FC
0808
1010
2410
4220
0140
0080
0100
0600
1800
6000
0000
ENDCHAR

STARTCHAR cns1_4551
ENCODING 17745
SWIDTH 854 0
DWIDTH 16 0
BBX 16 18 0 -2
BITMAP
0000
0000
0FFC
0884
0884
0884
0884
0884
7FFF
1088
1088
2088
2108
7FFF
0210
0410
0060
0000
ENDCHAR

STARTCHAR cns1_4552
ENCODING 17746
SWIDTH 854 0
DWIDTH 16 0
BBX 16 18 0 -2
BITMAP
0000
1040
1040
1040
1040
1042
1F4C
1070
1040
1040
1040
1040
1040
1040
1340
1C41
703F
0000
ENDCHAR

STARTCHAR cns1_4553
ENCODING 17747
SWIDTH 854 0
DWIDTH 16 0
BBX 16 18 0 -2
BITMAP
0000
001E
3FE0
0100
0100
0100
01FE
3F00
0100
0100
01FF
7F00
0100
0100
0101
0101
00FF
0000
ENDCHAR

STARTCHAR cns1_4554
ENCODING 17748
SWIDTH 854 0
DWIDTH 16 0
BBX 16 18 0 -2
BITMAP
0000
0000
003E
1FC0
1040
1040
1040
1040
1FFF
1040
1020
1020
1010
1010
1109
1605
1803
0000
ENDCHAR

STARTCHAR cns1_4555
ENCODING 17749
SWIDTH 854 0
DWIDTH 16 0
BBX 16 18 0 -2
BITMAP
0000
0080
0080
0082
0084
0088
7EB0
02C0
02A0
04A0
0490
0890
1088
2086
4081
0280
0180
0000
ENDCHAR

STARTCHAR cns1_4556
ENCODING 17750
SWIDTH 854 0
DWIDTH 16 0
BBX 16 18 0 -2
BITMAP
0000
0080
0080
0084
0884
0888
0890
10E0
2080
0140
0140
0220
0220
0410
0808
1004
6003
0000
ENDCHAR

STARTCHAR cns1_4557
ENCODING 17751
SWIDTH 854 0
DWIDTH 16 0
BBX 16 18 0 -2
BITMAP
0000
0000
003C
1FC8
1008
1088
1088
1088
1088
1088
1088
1084
1084
2082
2082
4081
0000
0000
ENDCHAR

STARTCHAR cns1_4558
ENCODING 17752
SWIDTH 854 0
DWIDTH 16 0
BBX 16 18 0 -2
BITMAP
0000
0000
0418
0804
1002
2001
0408
0408
0210
0210
0120
0140
00C0
0120
0610
180C
6003
0000
ENDCHAR

STARTCHAR cns1_4559
ENCODING 17753
SWIDTH 854 0
DWIDTH 16 0
BBX 16 18 0 -2
BITMAP
0000
0008
0410
0360
0080
0160
0618
1804
0210
0210
0120
0140
0080
0140
0630
180C
6003
0000
ENDCHAR

STARTCHAR cns1_455A
ENCODING 17754
SWIDTH 854 0
DWIDTH 16 0
BBX 16 18 0 -2
BITMAP
0000
1020
1020
1020
1020
1FE0
1000
1000
1000
1FF0
1010
1010
1010
1010
2010
2010
4010
0000
ENDCHAR

STARTCHAR cns1_455B
ENCODING 17755
SWIDTH 854 0
DWIDTH 16 0
BBX 16 18 0 -2
BITMAP
0000
0000
3FFE
0420
0820
0820
1020
1FFF
1060
00A0
0120
0220
0420
1820
6020
0020
00E0
0000
ENDCHAR

STARTCHAR cns1_455C
ENCODING 17756
SWIDTH 854 0
DWIDTH 16 0
BBX 16 18 0 -2
BITMAP
0000
0080
1080
1080
1FFE
1080
2080
4080
0080
0080
7FFF
0080
0080
0080
0080
0080
0080
0000
ENDCHAR

STARTCHAR cns1_455D
ENCODING 17757
SWIDTH 854 0
DWIDTH 16 0
BBX 16 18 0 -2
BITMAP
0000
0080
0090
0088
0084
0080
7FFF
0080
0180
0140
0220
0220
0410
0410
0808
1004
6003
0000
ENDCHAR

STARTCHAR cns1_455E
ENCODING 17758
SWIDTH 854 0
DWIDTH 16 0
BBX 16 18 0 -2
BITMAP
0000
0000
3FFE
0080
0080
0080
0080
0080
1FFC
0080
0080
0080
0080
0080
0080
7FFF
0000
0000
ENDCHAR

STARTCHAR cns1_455F
ENCODING 17759
SWIDTH 854 0
DWIDTH 16 0
BBX 16 18 0 -2
BITMAP
0000
0000
7FFF
0080
0080
3FFE
2082
2082
2142
2222
2212
240A
280A
3002
2002
2002
2006
0000
ENDCHAR

STARTCHAR cns1_4560
ENCODING 17760
SWIDTH 854 0
DWIDTH 16 0
BBX 16 18 0 -2
BITMAP
0000
1084
1084
1084
1084
7FFF
1084
1084
1084
1084
1084
10FC
1000
1000
1000
0FFF
0000
0000
ENDCHAR

STARTCHAR cns1_4561
ENCODING 17761
SWIDTH 854 0
DWIDTH 16 0
BBX 16 18 0 -2
BITMAP
0000
0000
7FFF
0020
0040
0080
0120
0190
0288
0484
0882
3082
0080
0080
0080
0000
7FFF
0000
ENDCHAR

STARTCHAR cns1_4562
ENCODING 17762
SWIDTH 854 0
DWIDTH 16 0
BBX 16 18 0 -2
BITMAP
0000
0000
0FF8
0808
0808
0808
0FF8
0808
0808
0808
0FF8
0808
0808
0808
0808
7FFF
0000
0000
ENDCHAR

STARTCHAR cns1_4563
ENCODING 17763
SWIDTH 854 0
DWIDTH 16 0
BBX 16 18 0 -2
BITMAP
0000
0038
0FC0
0800
0800
0800
0800
0FFC
0810
0810
0810
0810
0810
0810
0810
0810
7FFF
0000
ENDCHAR

STARTCHAR cns1_4564
ENCODING 17764
SWIDTH 854 0
DWIDTH 16 0
BBX 16 18 0 -2
BITMAP
0000
0100
0080
0040
0040
3FFE
0080
0080
0080
0080
1FFC
0080
0080
0080
0080
7FFF
0000
0000
ENDCHAR

STARTCHAR cns1_4565
ENCODING 17765
SWIDTH 854 0
DWIDTH 16 0
BBX 16 18 0 -2
BITMAP
0000
0400
0400
0800
0FFF
1080
2080
4080
00FC
0080
0080
0080
00FE
0080
0080
0080
0080
0000
ENDCHAR

STARTCHAR cns1_4566
ENCODING 17766
SWIDTH 854 0
DWIDTH 16 0
BBX 16 18 0 -2
BITMAP
0000
000C
3FF0
0080
0080
0080
1FFC
0008
0010
0020
0040
0080
1100
1A00
1400
2200
41FF
0000
ENDCHAR

STARTCHAR cns1_4567
ENCODING 17767
SWIDTH 854 0
DWIDTH 16 0
BBX 16 18 0 -2
BITMAP
0000
001C
3FE0
0080
0080
1088
0890
04A0
0080
7FFF
0080
0080
0080
0080
0080
0080
0700
0000
ENDCHAR

STARTCHAR cns1_4568
ENCODING 17768
SWIDTH 854 0
DWIDTH 16 0
BBX 16 18 0 -2
BITMAP
0000
1004
1204
1104
1084
1044
1044
1004
1004
1008
1008
1088
1118
1614
1822
6041
0181
0000
ENDCHAR

STARTCHAR cns1_4569
ENCODING 17769
SWIDTH 854 0
DWIDTH 16 0
BBX 16 18 0 -2
BITMAP
0000
0404
0804
0804
1004
13FF
3004
3004
5104
5084
1044
1044
1004
1004
1004
1004
101C
0000
ENDCHAR

STARTCHAR cns1_456A
ENCODING 17770
SWIDTH 854 0
DWIDTH 16 0
BBX 16 18 0 -2
BITMAP
0000
0800
09FE
0802
1004
1008
1010
2010
3010
53FF
1010
1010
1010
1010
1010
1010
1070
0000
ENDCHAR

STARTCHAR cns1_456B
ENCODING 17771
SWIDTH 854 0
DWIDTH 16 0
BBX 16 18 0 -2
BITMAP
0000
0420
0420
0820
0820
1020
17FF
3020
3020
5020
1020
1020
1020
1020
1020
13FE
1000
0000
ENDCHAR

STARTCHAR cns1_456C
ENCODING 17772
SWIDTH 854 0
DWIDTH 16 0
BBX 16 18 0 -2
BITMAP
0000
0410
0890
0890
1090
1097
30F9
3791
5091
1091
1091
1093
1090
1080
1081
1081
10FF
0000
ENDCHAR

STARTCHAR cns1_456D
ENCODING 17773
SWIDTH 854 0
DWIDTH 16 0
BBX 16 18 0 -2
BITMAP
0000
0810
0810
0810
1010
17FF
2010
3110
5110
50A0
10A0
1040
1040
10A0
1110
120C
1403
0000
ENDCHAR

STARTCHAR cns1_456E
ENCODING 17774
SWIDTH 854 0
DWIDTH 16 0
BBX 16 18 0 -2
BITMAP
0000
0440
084C
0842
1040
1040
37FF
3040
5040
1020
1020
1020
1010
1010
1009
1005
1003
0000
ENDCHAR

STARTCHAR cns1_456F
ENCODING 17775
SWIDTH 854 0
DWIDTH 16 0
BBX 16 18 0 -2
BITMAP
0000
0080
0140
0220
0410
0808
1004
2FFA
4001
0000
1FFC
0008
0010
0220
0140
0080
0040
0000
ENDCHAR

STARTCHAR cns1_4570
ENCODING 17776
SWIDTH 854 0
DWIDTH 16 0
BBX 16 18 0 -2
BITMAP
0000
0410
0810
0810
1010
1010
3111
3111
5111
1111
1111
1111
1111
1111
1111
11FF
1101
0000
ENDCHAR

STARTCHAR cns1_4571
ENCODING 17777
SWIDTH 854 0
DWIDTH 16 0
BBX 16 18 0 -2
BITMAP
0000
0800
09FE
0822
1022
1022
1022
30A2
5062
1022
1032
1022
1042
1042
1082
1102
100C
0000
ENDCHAR

STARTCHAR cns1_4572
ENCODING 17778
SWIDTH 854 0
DWIDTH 16 0
BBX 16 18 0 -2
BITMAP
0000
0080
0080
7FFF
0200
0410
0408
087C
3FA2
0222
0220
0220
0420
0420
0821
1021
603F
0000
ENDCHAR

STARTCHAR cns1_4573
ENCODING 17779
SWIDTH 854 0
DWIDTH 16 0
BBX 16 18 0 -2
BITMAP
0000
0000
1FFC
1004
1004
1004
1004
1004
1004
1FFC
0220
0220
0220
0420
0821
1021
601F
0000
ENDCHAR

STARTCHAR cns1_4574
ENCODING 17780
SWIDTH 854 0
DWIDTH 16 0
BBX 16 18 0 -2
BITMAP
0000
0080
0080
1FFC
1084
1084
1084
1FFC
1084
1084
1084
7FFF
1004
1004
1004
1004
100C
0000
ENDCHAR

STARTCHAR cns1_4575
ENCODING 17781
SWIDTH 854 0
DWIDTH 16 0
BBX 16 18 0 -2
BITMAP
0000
0000
1FFC
1244
1244
1244
1244
1244
7FFF
1244
1244
1244
1244
2244
2244
4244
400C
0000
ENDCHAR

STARTCHAR cns1_4576
ENCODING 17782
SWIDTH 854 0
DWIDTH 16 0
BBX 16 18 0 -2
BITMAP
0000
0200
0200
07F8
0808
1010
6420
0240
0180
0140
0220
0590
084C
1003
6700
00E0
0010
0000
ENDCHAR

STARTCHAR cns1_4577
ENCODING 17783
SWIDTH 854 0
DWIDTH 16 0
BBX 16 18 0 -2
BITMAP
0000
0000
0000
3E3E
2222
2222
2222
2222
2222
23E2
2222
2002
2002
2002
3FFE
2002
2002
0000
ENDCHAR

STARTCHAR cns1_4578
ENCODING 17784
SWIDTH 854 0
DWIDTH 16 0
BBX 16 18 0 -2
BITMAP
0000
0080
1084
1084
1084
1084
1084
1FFC
0080
0080
2082
2082
2082
2082
2082
3FFE
2002
0000
ENDCHAR

STARTCHAR cns1_4579
ENCODING 17785
SWIDTH 854 0
DWIDTH 16 0
BBX 16 18 0 -2
BITMAP
0000
0000
03E0
0220
0220
0220
0220
3E3E
2222
2002
2002
2002
2002
2002
2002
3FFE
2002
0000
ENDCHAR

STARTCHAR cns1_457A
ENCODING 17786
SWIDTH 854 0
DWIDTH 16 0
BBX 16 18 0 -2
BITMAP
0000
0382
7C02
0412
0412
0412
0412
7FD2
0412
0412
0412
0812
0812
0802
1002
2002
4006
0000
ENDCHAR

STARTCHAR cns1_457B
ENCODING 17787
SWIDTH 854 0
DWIDTH 16 0
BBX 16 18 0 -2
BITMAP
0000
0400
0400
0400
7F9F
0891
0891
0891
0891
0891
0891
1091
1091
1111
211F
2111
4600
0000
ENDCHAR

STARTCHAR cns1_457C
ENCODING 17788
SWIDTH 854 0
DWIDTH 16 0
BBX 16 18 0 -2
BITMAP
0000
0020
0020
7E20
0820
09FF
0821
0821
0821
0821
0841
0841
0E81
7081
0101
0202
0C0C
0000
ENDCHAR

STARTCHAR cns1_457D
ENCODING 17789
SWIDTH 854 0
DWIDTH 16 0
BBX 16 18 0 -2
BITMAP
0000
0800
0800
1FFC
1004
2004
4004
0FC4
0844
0844
0844
0FC4
0804
0818
0801
0801
07FF
0000
ENDCHAR

STARTCHAR cns1_457E
ENCODING 17790
SWIDTH 854 0
DWIDTH 16 0
BBX 16 18 0 -2
BITMAP
0000
0400
0400
07FF
0889
1091
2111
4D11
0221
05A1
0841
10A1
0091
0101
0202
0C02
301C
0000
ENDCHAR

STARTCHAR cns1_4621
ENCODING 17953
SWIDTH 854 0
DWIDTH 16 0
BBX 16 18 0 -2
BITMAP
0000
0020
0220
0220
0220
0220
0220
7E3F
0220
0220
0220
0220
0220
0620
0A21
1221
621F
0000
ENDCHAR

STARTCHAR cns1_4622
ENCODING 17954
SWIDTH 854 0
DWIDTH 16 0
BBX 16 18 0 -2
BITMAP
0000
0000
3FFE
2000
2040
2040
27FC
2444
2444
2444
2444
2444
244C
2040
2000
3FFF
2000
0000
ENDCHAR

STARTCHAR cns1_4623
ENCODING 17955
SWIDTH 854 0
DWIDTH 16 0
BBX 16 18 0 -2
BITMAP
0000
000C
0870
0BA0
0820
1020
1020
2020
37FF
5020
5020
1020
1020
1020
1020
1020
1020
0000
ENDCHAR

STARTCHAR cns1_4624
ENCODING 17956
SWIDTH 854 0
DWIDTH 16 0
BBX 16 18 0 -2
BITMAP
0000
0080
1084
0884
0488
0490
0080
3FFE
0080
0080
0080
7FFF
0080
0080
0080
0080
0080
0000
ENDCHAR

STARTCHAR cns1_4625
ENCODING 17957
SWIDTH 854 0
DWIDTH 16 0
BBX 16 18 0 -2
BITMAP
0000
0080
0080
3FFE
0080
0888
0888
0888
0808
7FFF
0808
0808
0808
1008
1008
2008
4008
0000
ENDCHAR

STARTCHAR cns1_4626
ENCODING 17958
SWIDTH 854 0
DWIDTH 16 0
BBX 16 18 0 -2
BITMAP
0000
0080
0080
0080
00F8
0080
0080
0080
7FFF
0080
00C0
00B0
0088
0084
0080
0080
0080
0000
ENDCHAR

STARTCHAR cns1_4627
ENCODING 17959
SWIDTH 854 0
DWIDTH 16 0
BBX 16 18 0 -2
BITMAP
0000
0100
0100
0100
0100
01FF
0100
0100
0100
0100
3FFE
2002
2002
2002
2002
2002
3FFE
0000
ENDCHAR

STARTCHAR cns1_4628
ENCODING 17960
SWIDTH 854 0
DWIDTH 16 0
BBX 16 18 0 -2
BITMAP
0000
0600
383F
2021
2121
2121
2121
2121
2121
2121
2121
2321
2D21
7127
0220
0420
1820
0000
ENDCHAR

STARTCHAR cns1_4629
ENCODING 17961
SWIDTH 854 0
DWIDTH 16 0
BBX 16 18 0 -2
BITMAP
0000
003E
1FC0
1000
1000
1FFF
1000
1000
13F8
1208
2208
2208
2208
2230
4201
4201
03FF
0000
ENDCHAR

STARTCHAR cns1_462A
ENCODING 17962
SWIDTH 854 0
DWIDTH 16 0
BBX 16 18 0 -2
BITMAP
0000
0080
0080
0080
3FFE
0080
0080
0080
0080
7FFF
0100
0200
0200
0404
083E
3FC2
0001
0000
ENDCHAR

STARTCHAR cns1_462B
ENCODING 17963
SWIDTH 854 0
DWIDTH 16 0
BBX 16 18 0 -2
BITMAP
0000
0000
0000
7FFF
0008
0008
1F88
1088
1088
1088
1088
1088
1F88
1088
0008
0008
0038
0000
ENDCHAR

STARTCHAR cns1_462C
ENCODING 17964
SWIDTH 854 0
DWIDTH 16 0
BBX 16 18 0 -2
BITMAP
0000
0080
0080
0080
7FFF
0080
0080
0080
0080
1FFC
1004
1004
1004
1004
1004
1FFC
1004
0000
ENDCHAR

STARTCHAR cns1_462D
ENCODING 17965
SWIDTH 854 0
DWIDTH 16 0
BBX 16 18 0 -2
BITMAP
0000
0100
0100
0100
7FFF
0200
0200
0400
0400
0FFC
1404
1404
2404
4404
0404
07FC
0404
0000
ENDCHAR

STARTCHAR cns1_462E
ENCODING 17966
SWIDTH 854 0
DWIDTH 16 0
BBX 16 18 0 -2
BITMAP
0000
0000
7FFE
0102
0102
0202
0202
0C02
701C
0000
1FFC
1004
1004
1004
1004
1FFC
1004
0000
ENDCHAR

STARTCHAR cns1_462F
ENCODING 17967
SWIDTH 854 0
DWIDTH 16 0
BBX 16 18 0 -2
BITMAP
0000
0000
01FF
7C10
4410
4410
4410
4410
4410
4410
4410
7C10
4410
0010
0010
0010
0070
0000
ENDCHAR

STARTCHAR cns1_4630
ENCODING 17968
SWIDTH 854 0
DWIDTH 16 0
BBX 16 18 0 -2
BITMAP
0000
0000
00FF
0021
3E21
2221
2221
2221
2221
2221
3E21
2221
002E
0020
0020
0020
0020
0000
ENDCHAR

STARTCHAR cns1_4631
ENCODING 17969
SWIDTH 854 0
DWIDTH 16 0
BBX 16 18 0 -2
BITMAP
0000
0000
3DFE
2422
2422
2422
2422
2422
2422
2422
2442
2442
3C42
2482
0082
0102
060C
0000
ENDCHAR

STARTCHAR cns1_4632
ENCODING 17970
SWIDTH 854 0
DWIDTH 16 0
BBX 16 18 0 -2
BITMAP
0000
0000
1EFF
1201
1201
1201
1201
1205
1209
1211
1E21
1241
1081
0001
0001
0002
000C
0000
ENDCHAR

STARTCHAR cns1_4633
ENCODING 17971
SWIDTH 854 0
DWIDTH 16 0
BBX 16 18 0 -2
BITMAP
0000
0000
7FFE
0002
0002
1FF2
0002
0002
0FE2
0822
0822
0822
0822
0FE2
0822
0002
000E
0000
ENDCHAR

STARTCHAR cns1_4634
ENCODING 17972
SWIDTH 854 0
DWIDTH 16 0
BBX 16 18 0 -2
BITMAP
0000
0000
3FFF
2000
2000
2000
23F8
2208
2208
2208
2208
23F8
2000
2000
2000
3FFF
2000
0000
ENDCHAR

STARTCHAR cns1_4635
ENCODING 17973
SWIDTH 854 0
DWIDTH 16 0
BBX 16 18 0 -2
BITMAP
0000
0000
0044
7C44
4444
4444
4444
4444
4444
4444
4447
7C7C
43C4
0004
0004
0004
0004
0000
ENDCHAR

STARTCHAR cns1_4636
ENCODING 17974
SWIDTH 854 0
DWIDTH 16 0
BBX 16 18 0 -2
BITMAP
0000
0000
07FE
0402
0402
0402
07FE
0080
0080
1FFF
0101
0101
0101
0201
0201
0401
0806
0000
ENDCHAR

STARTCHAR cns1_4637
ENCODING 17975
SWIDTH 854 0
DWIDTH 16 0
BBX 16 18 0 -2
BITMAP
0000
0000
1FFC
1004
1004
1004
1004
1004
1004
1FFC
0000
0000
0410
0808
1004
6003
0000
0000
ENDCHAR

STARTCHAR cns1_4638
ENCODING 17976
SWIDTH 854 0
DWIDTH 16 0
BBX 16 18 0 -2
BITMAP
0000
0080
0080
0080
3FFE
2082
2082
2082
3FFE
2082
0080
0900
0500
0200
0500
18C0
603F
0000
ENDCHAR

STARTCHAR cns1_4639
ENCODING 17977
SWIDTH 854 0
DWIDTH 16 0
BBX 16 18 0 -2
BITMAP
0000
0040
0040
3C40
2440
2443
244C
2470
24C0
2740
2440
3C40
2440
0040
0041
0041
007F
0000
ENDCHAR

STARTCHAR cns1_463A
ENCODING 17978
SWIDTH 854 0
DWIDTH 16 0
BBX 16 18 0 -2
BITMAP
0000
0100
0200
0210
0408
0404
087E
7F81
0001
0000
1FFC
1004
1004
1004
1004
1FFC
1004
0000
ENDCHAR

STARTCHAR cns1_463B
ENCODING 17979
SWIDTH 854 0
DWIDTH 16 0
BBX 16 18 0 -2
BITMAP
0000
0800
0800
0FFF
1001
1001
2001
4FE1
0821
0821
0821
0821
0FE1
0821
0001
0002
001C
0000
ENDCHAR

STARTCHAR cns1_463C
ENCODING 17980
SWIDTH 854 0
DWIDTH 16 0
BBX 16 18 0 -2
BITMAP
0000
0000
0038
3C08
2488
2488
2488
2488
2488
2504
3D04
2504
2204
0202
0402
0801
1000
0000
ENDCHAR

STARTCHAR cns1_463D
ENCODING 17981
SWIDTH 854 0
DWIDTH 16 0
BBX 16 18 0 -2
BITMAP
0000
0010
0010
3E10
22FF
2211
2211
2211
2211
2211
2221
3E21
2241
0041
0081
0102
060C
0000
ENDCHAR

STARTCHAR cns1_463E
ENCODING 17982
SWIDTH 854 0
DWIDTH 16 0
BBX 16 18 0 -2
BITMAP
0000
0000
0000
0000
7FFF
4421
4421
4421
4421
4421
4821
701F
4001
4001
7FFF
0000
0000
0000
ENDCHAR

STARTCHAR cns1_463F
ENCODING 17983
SWIDTH 854 0
DWIDTH 16 0
BBX 16 18 0 -2
BITMAP
0000
0000
3FFF
2001
2081
2081
2081
2081
2141
2121
2221
2411
2809
3005
2001
3FFF
2001
0000
ENDCHAR

STARTCHAR cns1_4640
ENCODING 17984
SWIDTH 854 0
DWIDTH 16 0
BBX 16 18 0 -2
BITMAP
0000
0810
0810
0F90
1090
10B0
1090
2898
4494
0312
0111
0111
0210
0410
0810
1010
2010
0000
ENDCHAR

STARTCHAR cns1_4641
ENCODING 17985
SWIDTH 854 0
DWIDTH 16 0
BBX 16 18 0 -2
BITMAP
0000
0080
0080
0080
1FFC
1084
1084
1084
1084
1084
7FFF
0140
0140
0220
0410
180C
6003
0000
ENDCHAR

STARTCHAR cns1_4642
ENCODING 17986
SWIDTH 854 0
DWIDTH 16 0
BBX 16 18 0 -2
BITMAP
0000
0880
0880
0880
1FFE
1080
2080
0080
0080
7FFF
0080
0140
0120
0210
0408
1804
6003
0000
ENDCHAR

STARTCHAR cns1_4643
ENCODING 17987
SWIDTH 854 0
DWIDTH 16 0
BBX 16 18 0 -2
BITMAP
0000
0800
087F
0801
0801
7FA1
1121
1122
1122
2122
6214
1214
0C08
0408
0A14
1122
2041
0000
ENDCHAR

STARTCHAR cns1_4644
ENCODING 17988
SWIDTH 854 0
DWIDTH 16 0
BBX 16 18 0 -2
BITMAP
0000
1000
11FC
1044
1044
7C48
2448
244F
2449
4441
4481
3481
0882
1482
1102
2202
400C
0000
ENDCHAR

STARTCHAR cns1_4645
ENCODING 17989
SWIDTH 854 0
DWIDTH 16 0
BBX 16 18 0 -2
BITMAP
0000
0000
3FF0
0210
0220
043E
0422
0802
17F2
2022
004C
0080
7FFF
0080
0080
0080
0380
0000
ENDCHAR

STARTCHAR cns1_4646
ENCODING 17990
SWIDTH 854 0
DWIDTH 16 0
BBX 16 18 0 -2
BITMAP
0000
0080
0080
7FFF
4001
4401
0400
0408
0430
04C0
0700
0400
0400
0400
0401
0401
07FF
0000
ENDCHAR

STARTCHAR cns1_4647
ENCODING 17991
SWIDTH 854 0
DWIDTH 16 0
BBX 16 18 0 -2
BITMAP
0000
0000
3FFE
2002
2002
3FFE
2002
2400
2400
240E
27F0
2400
2400
2400
2401
4401
43FF
0000
ENDCHAR

STARTCHAR cns1_4648
ENCODING 17992
SWIDTH 854 0
DWIDTH 16 0
BBX 16 18 0 -2
BITMAP
0000
0000
3FFE
2000
2000
2000
3FF8
2008
2008
2008
2008
3FF8
2000
2000
2000
3FFF
2000
0000
ENDCHAR

STARTCHAR cns1_4649
ENCODING 17993
SWIDTH 854 0
DWIDTH 16 0
BBX 16 18 0 -2
BITMAP
0000
0000
03FF
0020
7F20
0820
0840
0840
087F
0881
0801
0B01
1C01
6001
0001
0002
001C
0000
ENDCHAR

STARTCHAR cns1_464A
ENCODING 17994
SWIDTH 854 0
DWIDTH 16 0
BBX 16 18 0 -2
BITMAP
0000
0100
0100
0100
7FFF
0200
0200
0200
0400
05FE
0820
1020
2020
4020
0020
0FFF
0000
0000
ENDCHAR

STARTCHAR cns1_464B
ENCODING 17995
SWIDTH 854 0
DWIDTH 16 0
BBX 16 18 0 -2
BITMAP
0000
0100
0080
7FFF
0080
0080
0080
1FFC
1084
1084
1084
1084
1084
1084
108C
0080
0080
0000
ENDCHAR

STARTCHAR cns1_464C
ENCODING 17996
SWIDTH 854 0
DWIDTH 16 0
BBX 16 18 0 -2
BITMAP
0000
0100
0100
0100
7FFF
0200
0240
0440
0FFE
0842
1842
2842
4842
0842
0846
0040
0040
0000
ENDCHAR

STARTCHAR cns1_464D
ENCODING 17997
SWIDTH 854 0
DWIDTH 16 0
BBX 16 18 0 -2
BITMAP
0000
0000
3FFE
0080
0884
0884
0488
0488
0490
0080
7FFF
0080
0080
0080
0080
0080
0080
0000
ENDCHAR

STARTCHAR cns1_464E
ENCODING 17998
SWIDTH 854 0
DWIDTH 16 0
BBX 16 18 0 -2
BITMAP
0000
0410
0410
0810
0810
517F
2111
1211
0A11
0411
0811
0A11
1111
17A1
78A1
0042
008C
0000
ENDCHAR

STARTCHAR cns1_464F
ENCODING 17999
SWIDTH 854 0
DWIDTH 16 0
BBX 16 18 0 -2
BITMAP
0000
0200
0410
0808
107C
7F82
0002
0410
0410
7FFF
0410
0410
0410
0810
0810
1010
6010
0000
ENDCHAR

STARTCHAR cns1_4650
ENCODING 18000
SWIDTH 854 0
DWIDTH 16 0
BBX 16 18 0 -2
BITMAP
0000
0004
7E04
0208
0208
0208
1E08
1010
1010
2010
3E20
2224
0222
0242
024F
05F1
3801
0000
ENDCHAR

STARTCHAR cns1_4651
ENCODING 18001
SWIDTH 854 0
DWIDTH 16 0
BBX 16 18 0 -2
BITMAP
0000
0220
0220
7FFE
0222
0222
3FFE
2220
2220
3FFF
2221
2221
0221
0421
0826
7020
0020
0000
ENDCHAR

STARTCHAR cns1_4652
ENCODING 18002
SWIDTH 854 0
DWIDTH 16 0
BBX 16 18 0 -2
BITMAP
0000
0100
0080
0040
0002
0202
0204
0204
2208
2210
2224
2242
4281
4301
0604
0A04
33FC
0000
ENDCHAR

STARTCHAR cns1_4653
ENCODING 18003
SWIDTH 854 0
DWIDTH 16 0
BBX 16 18 0 -2
BITMAP
0000
0048
0044
0040
1FFE
1040
1040
1042
1042
1024
1024
1028
1010
1028
2048
2185
4603
0000
ENDCHAR

STARTCHAR cns1_4654
ENCODING 18004
SWIDTH 854 0
DWIDTH 16 0
BBX 16 18 0 -2
BITMAP
0000
0800
087F
0804
7F04
0804
0804
0804
0804
0F04
7804
0804
0804
0804
0804
0804
181C
0000
ENDCHAR

STARTCHAR cns1_4655
ENCODING 18005
SWIDTH 854 0
DWIDTH 16 0
BBX 16 18 0 -2
BITMAP
0000
1000
11FC
1044
7C44
1048
1048
104F
1049
1C41
7081
1081
1081
1081
1101
1101
3206
0000
ENDCHAR

STARTCHAR cns1_4656
ENCODING 18006
SWIDTH 854 0
DWIDTH 16 0
BBX 16 18 0 -2
BITMAP
0000
1000
1038
1008
7C88
1088
1088
1088
1488
1904
7104
1104
1204
1202
1402
1801
3000
0000
ENDCHAR

STARTCHAR cns1_4657
ENCODING 18007
SWIDTH 854 0
DWIDTH 16 0
BBX 16 18 0 -2
BITMAP
0000
0410
0410
0410
7F90
0410
0418
0414
0492
0711
1C10
6410
0410
0410
0410
0410
0C10
0000
ENDCHAR

STARTCHAR cns1_4658
ENCODING 18008
SWIDTH 854 0
DWIDTH 16 0
BBX 16 18 0 -2
BITMAP
0000
000E
1FF0
1000
1000
1000
1FFF
1020
1020
1020
1030
102C
1022
1022
2020
2020
4020
0000
ENDCHAR

STARTCHAR cns1_4659
ENCODING 18009
SWIDTH 854 0
DWIDTH 16 0
BBX 16 18 0 -2
BITMAP
0000
0000
0FF8
0808
0808
0808
0FF8
0808
0808
0808
0808
0FF8
0808
0000
0000
7FFF
0000
0000
ENDCHAR

STARTCHAR cns1_465A
ENCODING 18010
SWIDTH 854 0
DWIDTH 16 0
BBX 16 18 0 -2
BITMAP
0000
0080
0090
0088
3FFE
0080
0080
0490
0490
0490
0490
0490
0890
108F
0080
0080
0080
0000
ENDCHAR

STARTCHAR cns1_465B
ENCODING 18011
SWIDTH 854 0
DWIDTH 16 0
BBX 16 18 0 -2
BITMAP
0000
0080
0080
0080
3FFF
0080
01C0
02A0
0490
0888
1084
6083
0FF8
0080
0080
0080
0080
0000
ENDCHAR

STARTCHAR cns1_465C
ENCODING 18012
SWIDTH 854 0
DWIDTH 16 0
BBX 16 18 0 -2
BITMAP
0000
0080
0080
0080
1FFC
0080
0080
0080
7FFF
0080
01C0
02A0
0490
0888
1084
6083
0080
0000
ENDCHAR

STARTCHAR cns1_465D
ENCODING 18013
SWIDTH 854 0
DWIDTH 16 0
BBX 16 18 0 -2
BITMAP
0000
0080
0080
0080
7FFF
0080
0080
0080
1FFC
0080
01C0
02A0
0490
0888
1084
6083
0080
0000
ENDCHAR

STARTCHAR cns1_465E
ENCODING 18014
SWIDTH 854 0
DWIDTH 16 0
BBX 16 18 0 -2
BITMAP
0000
0820
0820
0820
7F20
0820
0820
0820
1C20
2A20
4920
0820
0820
0820
0821
0821
083F
0000
ENDCHAR

STARTCHAR cns1_465F
ENCODING 18015
SWIDTH 854 0
DWIDTH 16 0
BBX 16 18 0 -2
BITMAP
0000
0000
7FFF
0080
0080
0080
1080
1080
10FC
1080
1080
1080
1080
1080
1080
7FFF
0000
0000
ENDCHAR

STARTCHAR cns1_4660
ENCODING 18016
SWIDTH 854 0
DWIDTH 16 0
BBX 16 18 0 -2
BITMAP
0000
0000
0FFC
0804
0984
0844
0824
0804
7FFF
0904
1084
1048
1048
1008
1FFF
0008
0030
0000
ENDCHAR

STARTCHAR cns1_4661
ENCODING 18017
SWIDTH 854 0
DWIDTH 16 0
BBX 16 18 0 -2
BITMAP
0000
0000
1FFE
1002
1002
1FFE
1082
1080
1080
1FFF
1040
1040
1020
1020
1191
1E09
7007
0000
ENDCHAR

STARTCHAR cns1_4662
ENCODING 18018
SWIDTH 854 0
DWIDTH 16 0
BBX 16 18 0 -2
BITMAP
0000
0000
003E
1FC0
1040
1040
1040
1040
1FFF
1040
1020
1020
1010
1190
1E09
7005
0FFB
0000
ENDCHAR

STARTCHAR cns1_4663
ENCODING 18019
SWIDTH 854 0
DWIDTH 16 0
BBX 16 18 0 -2
BITMAP
0000
0300
00C0
0020
0000
1F80
0082
00C4
7CC8
04B0
04A0
0890
0890
1088
2084
4083
0180
0000
ENDCHAR

STARTCHAR cns1_4664
ENCODING 18020
SWIDTH 854 0
DWIDTH 16 0
BBX 16 18 0 -2
BITMAP
0000
2020
1020
0020
0020
4020
2020
07FF
0020
1020
1020
1020
2020
2020
2020
4020
4020
0000
ENDCHAR

STARTCHAR cns1_4665
ENCODING 18021
SWIDTH 854 0
DWIDTH 16 0
BBX 16 18 0 -2
BITMAP
0000
2000
1000
03FF
0010
0010
4010
2010
0010
1010
1010
1010
2010
2010
2010
4010
4070
0000
ENDCHAR

STARTCHAR cns1_4666
ENCODING 18022
SWIDTH 854 0
DWIDTH 16 0
BBX 16 18 0 -2
BITMAP
0000
2000
1000
01FE
0102
4102
2102
0102
0102
0902
090C
0900
1100
1101
1101
2101
20FF
0000
ENDCHAR

STARTCHAR cns1_4667
ENCODING 18023
SWIDTH 854 0
DWIDTH 16 0
BBX 16 18 0 -2
BITMAP
0000
4400
28FE
1082
2882
4882
0482
0482
0482
0C82
149C
2480
4480
0480
0881
1081
607F
0000
ENDCHAR

STARTCHAR cns1_4668
ENCODING 18024
SWIDTH 854 0
DWIDTH 16 0
BBX 16 18 0 -2
BITMAP
0000
0080
0080
0080
7FFF
0200
0400
2800
1810
0420
0240
0180
0104
0202
041E
3FE1
0001
0000
ENDCHAR

STARTCHAR cns1_4669
ENCODING 18025
SWIDTH 854 0
DWIDTH 16 0
BBX 16 18 0 -2
BITMAP
0000
0000
7FFF
0080
0080
0080
0080
0080
3FFE
0080
0080
0090
0088
0088
0080
7FFF
0000
0000
ENDCHAR

STARTCHAR cns1_466A
ENCODING 18026
SWIDTH 854 0
DWIDTH 16 0
BBX 16 18 0 -2
BITMAP
0000
001E
0FE8
0808
0888
0888
0888
0888
0888
0888
0884
10A4
1094
10F2
270A
2001
4000
0000
ENDCHAR

STARTCHAR cns1_466B
ENCODING 18027
SWIDTH 854 0
DWIDTH 16 0
BBX 16 18 0 -2
BITMAP
0000
0000
7FFF
0400
0400
07F0
0410
0410
0510
0890
0890
0810
0810
09F1
1E11
601F
0000
0000
ENDCHAR

STARTCHAR cns1_466C
ENCODING 18028
SWIDTH 854 0
DWIDTH 16 0
BBX 16 18 0 -2
BITMAP
0000
0808
0808
0808
0808
7FFF
0808
0808
0808
0808
0FF8
0808
0808
0808
0808
0FF8
0808
0000
ENDCHAR

STARTCHAR cns1_466D
ENCODING 18029
SWIDTH 854 0
DWIDTH 16 0
BBX 16 18 0 -2
BITMAP
0000
0080
1080
1080
1080
1FFE
2080
2080
4080
0080
1FFC
0080
0080
0080
0080
0080
7FFF
0000
ENDCHAR

STARTCHAR cns1_466E
ENCODING 18030
SWIDTH 854 0
DWIDTH 16 0
BBX 16 18 0 -2
BITMAP
0000
0000
1FFC
1084
1084
1084
1FFC
1084
1084
1084
1FFC
1084
1084
1084
2084
2084
401C
0000
ENDCHAR

STARTCHAR cns1_466F
ENCODING 18031
SWIDTH 854 0
DWIDTH 16 0
BBX 16 18 0 -2
BITMAP
0000
1FFC
1084
1084
1084
1FFC
1084
1084
1084
1FFC
1084
2084
2084
409C
0081
0081
00FE
0000
ENDCHAR

STARTCHAR cns1_4670
ENCODING 18032
SWIDTH 854 0
DWIDTH 16 0
BBX 16 18 0 -2
BITMAP
0000
0000
3FFE
2082
2082
2082
2082
2082
3FFE
2082
2082
2082
2082
2082
2082
3FFE
2002
0000
ENDCHAR

STARTCHAR cns1_4671
ENCODING 18033
SWIDTH 854 0
DWIDTH 16 0
BBX 16 18 0 -2
BITMAP
0000
0080
0080
0080
0080
3FFE
2082
2082
2082
2082
3FFE
2082
2082
2082
2082
3FFE
2002
0000
ENDCHAR

STARTCHAR cns1_4672
ENCODING 18034
SWIDTH 854 0
DWIDTH 16 0
BBX 16 18 0 -2
BITMAP
0000
0000
3FFE
2082
2082
2082
3FFE
2082
2082
2082
3FFE
2082
0080
0080
0080
0080
0080
0000
ENDCHAR

STARTCHAR cns1_4673
ENCODING 18035
SWIDTH 854 0
DWIDTH 16 0
BBX 16 18 0 -2
BITMAP
0000
0080
0080
3FFE
2082
2082
2082
3FFE
2082
2082
2082
3FFE
0080
0080
0080
0080
0080
0000
ENDCHAR

STARTCHAR cns1_4674
ENCODING 18036
SWIDTH 854 0
DWIDTH 16 0
BBX 16 18 0 -2
BITMAP
0000
0000
3FFE
0082
0084
0088
0880
0880
08FC
0880
0880
1480
1480
2280
2180
40FF
0000
0000
ENDCHAR

STARTCHAR cns1_4675
ENCODING 18037
SWIDTH 854 0
DWIDTH 16 0
BBX 16 18 0 -2
BITMAP
0000
0040
0080
0100
1FFC
1004
1004
1004
1004
1FFC
1004
1004
1004
1004
1004
1FFC
1004
0000
ENDCHAR

STARTCHAR cns1_4676
ENCODING 18038
SWIDTH 854 0
DWIDTH 16 0
BBX 16 18 0 -2
BITMAP
0000
0080
0080
1FFE
1082
1084
1080
1FFC
1004
1004
1208
1108
1090
1060
2090
230C
4C03
0000
ENDCHAR

STARTCHAR cns1_4677
ENCODING 18039
SWIDTH 854 0
DWIDTH 16 0
BBX 16 18 0 -2
BITMAP
0000
0000
0000
1FFC
1224
1224
1224
1224
1224
1224
1224
1224
1224
1224
1224
7FFF
0000
0000
ENDCHAR

STARTCHAR cns1_4678
ENCODING 18040
SWIDTH 854 0
DWIDTH 16 0
BBX 16 18 0 -2
BITMAP
0000
0000
1FFC
1004
1004
1004
1FFC
1004
1004
1004
1FFC
1004
1004
1004
1004
1FFC
1004
0000
ENDCHAR

STARTCHAR cns1_4679
ENCODING 18041
SWIDTH 854 0
DWIDTH 16 0
BBX 16 18 0 -2
BITMAP
0000
0000
0FFC
0004
0088
0050
0020
3FFF
0041
00C2
0144
0248
0440
0840
3040
0040
00C0
0000
ENDCHAR

STARTCHAR cns1_467A
ENCODING 18042
SWIDTH 854 0
DWIDTH 16 0
BBX 16 18 0 -2
BITMAP
0000
0800
0800
1FFC
1080
2080
4080
0080
7FFF
0100
0100
0280
0240
0420
0810
100C
6003
0000
ENDCHAR

STARTCHAR cns1_467B
ENCODING 18043
SWIDTH 854 0
DWIDTH 16 0
BBX 16 18 0 -2
BITMAP
0000
0000
7FFF
0100
0100
0200
0200
0400
0400
0FFE
1402
2402
4402
0402
0402
07FE
0402
0000
ENDCHAR

STARTCHAR cns1_467C
ENCODING 18044
SWIDTH 854 0
DWIDTH 16 0
BBX 16 18 0 -2
BITMAP
0000
0000
1FFC
0000
0000
0000
0000
7FFF
0080
0080
0888
0884
1082
1082
2081
4081
0380
0000
ENDCHAR

STARTCHAR cns1_467D
ENCODING 18045
SWIDTH 854 0
DWIDTH 16 0
BBX 16 18 0 -2
BITMAP
0000
001C
3FE0
0080
0080
0080
7FFF
0080
01C0
02A0
02A0
0490
0888
1084
6083
0080
0080
0000
ENDCHAR

STARTCHAR cns1_467E
ENCODING 18046
SWIDTH 854 0
DWIDTH 16 0
BBX 16 18 0 -2
BITMAP
0000
0080
0080
7FFF
4001
4001
0000
01F0
0010
0410
0410
0408
0808
0808
1004
2002
4001
0000
ENDCHAR

STARTCHAR cns1_4721
ENCODING 18209
SWIDTH 854 0
DWIDTH 16 0
BBX 16 18 0 -2
BITMAP
0000
0080
0080
0080
3FFE
0010
0010
0810
0810
0810
0410
0420
0420
0420
0020
7FFF
0000
0000
ENDCHAR

STARTCHAR cns1_4722
ENCODING 18210
SWIDTH 854 0
DWIDTH 16 0
BBX 16 18 0 -2
BITMAP
0000
0000
1FFC
0008
0010
00A0
7EC2
02A4
04A8
0490
0888
1084
6083
0380
0000
0000
3FFE
0000
ENDCHAR

STARTCHAR cns1_4723
ENCODING 18211
SWIDTH 854 0
DWIDTH 16 0
BBX 16 18 0 -2
BITMAP
0000
0038
0FC0
0080
0080
0080
1FFC
0080
0080
0080
7FFF
0100
0200
0200
0404
083E
3FC1
0000
ENDCHAR

STARTCHAR cns1_4724
ENCODING 18212
SWIDTH 854 0
DWIDTH 16 0
BBX 16 18 0 -2
BITMAP
0000
0030
0FC0
0800
0800
0800
0FFC
0810
0810
0810
0810
7FFF
0000
0400
0800
1000
6000
0000
ENDCHAR

STARTCHAR cns1_4725
ENCODING 18213
SWIDTH 854 0
DWIDTH 16 0
BBX 16 18 0 -2
BITMAP
0000
0030
0FC0
0800
0800
0800
0FFC
0810
0810
0810
0810
7FFF
0000
0010
0008
0004
0003
0000
ENDCHAR

STARTCHAR cns1_4726
ENCODING 18214
SWIDTH 854 0
DWIDTH 16 0
BBX 16 18 0 -2
BITMAP
0000
0820
0820
0820
0F20
0820
0820
0820
7F20
4120
4120
4120
4120
4120
4121
7F21
411F
0000
ENDCHAR

STARTCHAR cns1_4727
ENCODING 18215
SWIDTH 854 0
DWIDTH 16 0
BBX 16 18 0 -2
BITMAP
0000
0000
3FFE
0200
0200
03F8
0408
0408
0588
0448
0808
0B10
08D0
0010
0010
7FFF
0000
0000
ENDCHAR

STARTCHAR cns1_4728
ENCODING 18216
SWIDTH 854 0
DWIDTH 16 0
BBX 16 18 0 -2
BITMAP
0000
0080
0080
7FFF
0000
0410
0808
1004
2412
4222
0140
0080
0140
0220
0410
180C
6003
0000
ENDCHAR

STARTCHAR cns1_4729
ENCODING 18217
SWIDTH 854 0
DWIDTH 16 0
BBX 16 18 0 -2
BITMAP
0000
0080
0080
0080
7FFF
0020
0220
1228
1224
1224
2222
2222
4421
0421
0820
1020
60E0
0000
ENDCHAR

STARTCHAR cns1_472A
ENCODING 18218
SWIDTH 854 0
DWIDTH 16 0
BBX 16 18 0 -2
BITMAP
0000
0080
0080
7FFF
0000
0100
1210
0C20
0244
0188
0210
0C20
3040
00A0
0318
0C04
7002
0000
ENDCHAR

STARTCHAR cns1_472B
ENCODING 18219
SWIDTH 854 0
DWIDTH 16 0
BBX 16 18 0 -2
BITMAP
0000
0420
0820
0820
13FF
1040
3040
3040
507E
1042
1042
1042
1042
1042
1082
1082
110C
0000
ENDCHAR

STARTCHAR cns1_472C
ENCODING 18220
SWIDTH 854 0
DWIDTH 16 0
BBX 16 18 0 -2
BITMAP
0000
0820
0820
1020
17FF
1000
2000
30F8
5088
5088
1088
1088
1088
1108
1109
1209
140F
0000
ENDCHAR

STARTCHAR cns1_472D
ENCODING 18221
SWIDTH 854 0
DWIDTH 16 0
BBX 16 18 0 -2
BITMAP
0000
0420
0820
0820
1020
1122
3124
3128
5220
1050
1050
1050
1088
1088
1104
1202
1401
0000
ENDCHAR

STARTCHAR cns1_472E
ENCODING 18222
SWIDTH 854 0
DWIDTH 16 0
BBX 16 18 0 -2
BITMAP
0000
0400
09FE
0822
1022
1022
33FF
3022
5022
5022
13FE
1022
1020
1040
1040
1080
1100
0000
ENDCHAR

STARTCHAR cns1_472F
ENCODING 18223
SWIDTH 854 0
DWIDTH 16 0
BBX 16 18 0 -2
BITMAP
0000
0420
0820
0820
13FE
1020
3020
3020
57FF
1020
1020
1050
1048
1088
1084
1102
1601
0000
ENDCHAR

STARTCHAR cns1_4730
ENCODING 18224
SWIDTH 854 0
DWIDTH 16 0
BBX 16 18 0 -2
BITMAP
0000
0800
0BFE
0840
1040
1040
2040
33FC
5084
5084
1084
1084
1084
1084
1084
17FF
1000
0000
ENDCHAR

STARTCHAR cns1_4731
ENCODING 18225
SWIDTH 854 0
DWIDTH 16 0
BBX 16 18 0 -2
BITMAP
0000
0420
0824
0822
1020
103F
37E0
3020
5022
1022
1014
1018
1010
1028
1048
1085
1303
0000
ENDCHAR

STARTCHAR cns1_4732
ENCODING 18226
SWIDTH 854 0
DWIDTH 16 0
BBX 16 18 0 -2
BITMAP
0000
0420
0820
0820
1020
17FF
3020
3060
5070
10B0
10A8
1124
1222
1421
1020
1020
1020
0000
ENDCHAR

STARTCHAR cns1_4733
ENCODING 18227
SWIDTH 854 0
DWIDTH 16 0
BBX 16 18 0 -2
BITMAP
0000
0420
0824
0822
1022
1020
37FF
3020
5020
1040
1050
1088
1088
1104
1202
1401
1000
0000
ENDCHAR

STARTCHAR cns1_4734
ENCODING 18228
SWIDTH 854 0
DWIDTH 16 0
BBX 16 18 0 -2
BITMAP
0000
0420
0820
0820
1020
13FF
3221
3221
5221
1221
1221
13FF
1220
1020
1020
1020
1020
0000
ENDCHAR

STARTCHAR cns1_4735
ENCODING 18229
SWIDTH 854 0
DWIDTH 16 0
BBX 16 18 0 -2
BITMAP
0000
0410
0490
0890
0910
11FE
1210
3410
3010
5010
57FF
1010
1010
1010
1010
1010
1010
0000
ENDCHAR

STARTCHAR cns1_4736
ENCODING 18230
SWIDTH 854 0
DWIDTH 16 0
BBX 16 18 0 -2
BITMAP
0000
0400
0806
0BF8
1020
1020
3020
3020
5020
17FF
1020
1020
1020
1020
1020
1020
13FE
0000
ENDCHAR

STARTCHAR cns1_4737
ENCODING 18231
SWIDTH 854 0
DWIDTH 16 0
BBX 16 18 0 -2
BITMAP
0000
0800
08DF
1311
1211
3211
3211
5211
1211
1211
1211
1251
1391
1616
1010
1010
1010
0000
ENDCHAR

STARTCHAR cns1_4738
ENCODING 18232
SWIDTH 854 0
DWIDTH 16 0
BBX 16 18 0 -2
BITMAP
0000
0410
0910
0910
1110
1110
3110
3113
51D4
1118
1110
1110
1110
1130
11D1
1311
141F
0000
ENDCHAR

STARTCHAR cns1_4739
ENCODING 18233
SWIDTH 854 0
DWIDTH 16 0
BBX 16 18 0 -2
BITMAP
0000
0400
0838
0888
1088
1084
3104
3102
5201
11FC
1044
1044
1084
1084
1104
1208
1430
0000
ENDCHAR

STARTCHAR cns1_473A
ENCODING 18234
SWIDTH 854 0
DWIDTH 16 0
BBX 16 18 0 -2
BITMAP
0000
0080
0140
0220
0410
0808
1084
6083
0080
0880
08FC
0880
0880
0880
0880
7FFF
0000
0000
ENDCHAR

STARTCHAR cns1_473B
ENCODING 18235
SWIDTH 854 0
DWIDTH 16 0
BBX 16 18 0 -2
BITMAP
0000
0800
0BFC
0904
1104
1108
2108
31FE
5142
5142
1144
1124
1228
1210
1428
1444
1983
0000
ENDCHAR

STARTCHAR cns1_473C
ENCODING 18236
SWIDTH 854 0
DWIDTH 16 0
BBX 16 18 0 -2
BITMAP
0000
0080
1084
0884
0488
0490
0080
7FFF
0220
0220
0220
0220
0420
0420
0820
1021
603F
0000
ENDCHAR

STARTCHAR cns1_473D
ENCODING 18237
SWIDTH 854 0
DWIDTH 16 0
BBX 16 18 0 -2
BITMAP
0000
0010
1624
1144
1084
1144
1224
1414
1004
1FFC
0040
0240
0240
0440
0440
1841
607F
0000
ENDCHAR

STARTCHAR cns1_473E
ENCODING 18238
SWIDTH 854 0
DWIDTH 16 0
BBX 16 18 0 -2
BITMAP
0000
0240
0244
2244
1248
0A50
0240
0240
0670
0A48
1244
6242
0440
0440
0840
1041
603F
0000
ENDCHAR

STARTCHAR cns1_473F
ENCODING 18239
SWIDTH 854 0
DWIDTH 16 0
BBX 16 18 0 -2
BITMAP
0000
0880
0880
0880
1FFE
1080
2080
0080
0080
7FFF
0220
0220
0420
0420
0821
1021
601F
0000
ENDCHAR

STARTCHAR cns1_4740
ENCODING 18240
SWIDTH 854 0
DWIDTH 16 0
BBX 16 18 0 -2
BITMAP
0000
0080
0140
0220
0410
0808
1004
2002
4FF9
0080
0080
0080
0FF8
0080
0080
0080
3FFE
0000
ENDCHAR

STARTCHAR cns1_4741
ENCODING 18241
SWIDTH 854 0
DWIDTH 16 0
BBX 16 18 0 -2
BITMAP
0000
0410
0410
0410
0410
7FFF
0410
0410
0410
0410
7FFF
0000
0410
0808
1004
2002
4001
0000
ENDCHAR

STARTCHAR cns1_4742
ENCODING 18242
SWIDTH 854 0
DWIDTH 16 0
BBX 16 18 0 -2
BITMAP
0000
0000
7FFF
0080
0080
1FFC
1084
1084
1FFC
1084
1084
1084
7FFF
1004
1004
1004
1004
0000
ENDCHAR

STARTCHAR cns1_4743
ENCODING 18243
SWIDTH 854 0
DWIDTH 16 0
BBX 16 18 0 -2
BITMAP
0000
0020
2020
1020
0021
07A2
00B4
00A8
1128
1128
1124
2224
2224
2422
4821
5020
00E0
0000
ENDCHAR

STARTCHAR cns1_4744
ENCODING 18244
SWIDTH 854 0
DWIDTH 16 0
BBX 16 18 0 -2
BITMAP
0000
0001
7FE1
0801
0811
0F91
0891
1091
1091
1D11
2311
0111
0211
0211
0401
1801
6003
0000
ENDCHAR

STARTCHAR cns1_4745
ENCODING 18245
SWIDTH 854 0
DWIDTH 16 0
BBX 16 18 0 -2
BITMAP
0000
0001
7FC1
1111
1111
1111
1111
7FD1
1111
1111
1111
1111
1111
1111
1111
2101
4103
0000
ENDCHAR

STARTCHAR cns1_4746
ENCODING 18246
SWIDTH 854 0
DWIDTH 16 0
BBX 16 18 0 -2
BITMAP
0000
0401
0581
0411
7FD1
0411
0411
0451
0451
0491
0511
0211
0611
0D11
1081
6041
0027
0000
ENDCHAR

STARTCHAR cns1_4747
ENCODING 18247
SWIDTH 854 0
DWIDTH 16 0
BBX 16 18 0 -2
BITMAP
0000
0801
0801
1009
1FC9
2549
2949
4A49
1249
1249
2449
2489
4889
0881
1081
2301
4003
0000
ENDCHAR

STARTCHAR cns1_4748
ENCODING 18248
SWIDTH 854 0
DWIDTH 16 0
BBX 16 18 0 -2
BITMAP
0000
0001
1F81
1091
1091
1091
1F91
1091
1091
1091
1F91
1091
1091
1081
2081
2081
4183
0000
ENDCHAR

STARTCHAR cns1_4749
ENCODING 18249
SWIDTH 854 0
DWIDTH 16 0
BBX 16 18 0 -2
BITMAP
0000
0080
088C
1082
2091
41A0
00C0
0700
3840
0040
3FFE
0082
0082
0102
0202
0C02
301C
0000
ENDCHAR

STARTCHAR cns1_474A
ENCODING 18250
SWIDTH 854 0
DWIDTH 16 0
BBX 16 18 0 -2
BITMAP
0000
0800
0800
0FFF
1001
1001
2001
4451
1291
1111
1291
1451
1011
1FF1
1011
0002
000C
0000
ENDCHAR

STARTCHAR cns1_474B
ENCODING 18251
SWIDTH 854 0
DWIDTH 16 0
BBX 16 18 0 -2
BITMAP
0000
0000
3FFF
2000
2000
27FE
2040
2040
23F8
2040
2040
2040
2FFE
2000
2000
3FFF
2000
0000
ENDCHAR

STARTCHAR cns1_474C
ENCODING 18252
SWIDTH 854 0
DWIDTH 16 0
BBX 16 18 0 -2
BITMAP
0000
0000
3FFF
2000
200C
27F0
2400
2400
27FE
2420
2420
2820
2820
3020
2000
3FFF
2000
0000
ENDCHAR

STARTCHAR cns1_474D
ENCODING 18253
SWIDTH 854 0
DWIDTH 16 0
BBX 16 18 0 -2
BITMAP
0000
0000
0300
3C7F
2041
2041
2041
2041
3F41
2041
2041
2041
2041
204F
3F40
2040
2040
0000
ENDCHAR

STARTCHAR cns1_474E
ENCODING 18254
SWIDTH 854 0
DWIDTH 16 0
BBX 16 18 0 -2
BITMAP
0000
0400
07F0
0810
1020
2040
5FFF
1000
1000
13F8
1208
1208
1208
1238
2201
2201
43FF
0000
ENDCHAR

STARTCHAR cns1_474F
ENCODING 18255
SWIDTH 854 0
DWIDTH 16 0
BBX 16 18 0 -2
BITMAP
0000
0080
0080
0080
7FFF
0080
0080
0080
3FFE
0000
0000
1FFC
1004
1004
1004
1FFC
1004
0000
ENDCHAR

STARTCHAR cns1_4750
ENCODING 18256
SWIDTH 854 0
DWIDTH 16 0
BBX 16 18 0 -2
BITMAP
0000
0080
0080
7FFF
0080
0080
3FFE
2082
2082
3FFE
0080
0900
0500
0200
0300
0CE0
701F
0000
ENDCHAR

STARTCHAR cns1_4751
ENCODING 18257
SWIDTH 854 0
DWIDTH 16 0
BBX 16 18 0 -2
BITMAP
0000
0000
3FFF
2001
2001
2FFD
2001
2001
27F9
2409
2409
2409
27F9
2001
2001
2001
2007
0000
ENDCHAR

STARTCHAR cns1_4752
ENCODING 18258
SWIDTH 854 0
DWIDTH 16 0
BBX 16 18 0 -2
BITMAP
0000
0000
1FFC
1004
1004
1004
1FFC
0080
0080
3FFE
2082
2082
2082
2082
2082
208E
0080
0000
ENDCHAR

STARTCHAR cns1_4753
ENCODING 18259
SWIDTH 854 0
DWIDTH 16 0
BBX 16 18 0 -2
BITMAP
0000
0010
0010
0010
7C10
4410
45FF
4410
4410
4410
4410
4410
4410
7C10
0010
0010
03FF
0000
ENDCHAR

STARTCHAR cns1_4754
ENCODING 18260
SWIDTH 854 0
DWIDTH 16 0
BBX 16 18 0 -2
BITMAP
0000
0000
01FE
7C10
4410
4410
4410
4410
45FF
4410
4410
7C10
4410
4010
0010
0010
0070
0000
ENDCHAR

STARTCHAR cns1_4755
ENCODING 18261
SWIDTH 854 0
DWIDTH 16 0
BBX 16 18 0 -2
BITMAP
0000
0004
0004
0004
7C04
4404
45FF
4404
4404
4484
4444
4444
7C04
4004
0004
0004
001C
0000
ENDCHAR

STARTCHAR cns1_4756
ENCODING 18262
SWIDTH 854 0
DWIDTH 16 0
BBX 16 18 0 -2
BITMAP
0000
0200
0200
07F8
0C08
1408
2210
0120
00C0
0320
0410
1FFC
680B
0808
0808
0FF8
0808
0000
ENDCHAR

STARTCHAR cns1_4757
ENCODING 18263
SWIDTH 854 0
DWIDTH 16 0
BBX 16 18 0 -2
BITMAP
0000
0080
0100
0200
3FFF
2001
2001
2001
27F9
2409
2409
2409
2409
27F9
2409
2001
2007
0000
ENDCHAR

STARTCHAR cns1_4758
ENCODING 18264
SWIDTH 854 0
DWIDTH 16 0
BBX 16 18 0 -2
BITMAP
0000
0080
0100
03FC
0404
0808
3610
01A0
0040
0080
03FE
0602
1A02
6202
0202
03FE
0202
0000
ENDCHAR

STARTCHAR cns1_4759
ENCODING 18265
SWIDTH 854 0
DWIDTH 16 0
BBX 16 18 0 -2
BITMAP
0000
0080
0140
0220
0410
0808
1004
2002
4FF9
0000
0000
1FFC
1004
1004
1004
1004
1FFC
0000
ENDCHAR

STARTCHAR cns1_475A
ENCODING 18266
SWIDTH 854 0
DWIDTH 16 0
BBX 16 18 0 -2
BITMAP
0000
0080
0080
7900
49FF
4A00
4A00
4800
49F8
4810
7820
4040
4080
0101
0201
0201
01FE
0000
ENDCHAR

STARTCHAR cns1_475B
ENCODING 18267
SWIDTH 854 0
DWIDTH 16 0
BBX 16 18 0 -2
BITMAP
0000
0000
001C
1FE0
1000
1000
1FFF
1000
1000
17FC
1404
1404
1404
1404
2404
27FC
4404
0000
ENDCHAR

STARTCHAR cns1_475C
ENCODING 18268
SWIDTH 854 0
DWIDTH 16 0
BBX 16 18 0 -2
BITMAP
0000
0008
0010
7C10
4420
4420
4542
4484
4444
4428
4428
7C10
4424
0022
004E
01F1
0001
0000
ENDCHAR

STARTCHAR cns1_475D
ENCODING 18269
SWIDTH 854 0
DWIDTH 16 0
BBX 16 18 0 -2
BITMAP
0000
000E
01F0
0020
7C20
4420
4420
4420
442F
45F0
4420
4420
7C20
4020
0021
0021
001F
0000
ENDCHAR

STARTCHAR cns1_475E
ENCODING 18270
SWIDTH 854 0
DWIDTH 16 0
BBX 16 18 0 -2
BITMAP
0000
0000
3FFF
2001
2081
2081
3FFD
2081
2081
2141
2141
2221
2411
380D
2001
3FFF
2001
0000
ENDCHAR

STARTCHAR cns1_475F
ENCODING 18271
SWIDTH 854 0
DWIDTH 16 0
BBX 16 18 0 -2
BITMAP
0000
0000
3FFF
2001
2001
2001
27F9
2409
2409
2409
2409
27F9
2001
2001
2001
2001
3FFF
0000
ENDCHAR

STARTCHAR cns1_4760
ENCODING 18272
SWIDTH 854 0
DWIDTH 16 0
BBX 16 18 0 -2
BITMAP
0000
0000
1FFF
1001
13F9
1021
1041
1041
17FD
1041
1041
1041
1041
1041
11C1
1001
1FFF
0000
ENDCHAR

STARTCHAR cns1_4761
ENCODING 18273
SWIDTH 854 0
DWIDTH 16 0
BBX 16 18 0 -2
BITMAP
0000
0801
0841
0849
0849
7F49
0849
0849
0849
0849
0849
0B49
1C49
6049
0049
0081
0101
0000
ENDCHAR

STARTCHAR cns1_4762
ENCODING 18274
SWIDTH 854 0
DWIDTH 16 0
BBX 16 18 0 -2
BITMAP
0000
0010
1090
1090
1090
1090
7C97
10F9
1391
1092
1092
1090
1080
1C80
6081
0081
007F
0000
ENDCHAR

STARTCHAR cns1_4763
ENCODING 18275
SWIDTH 854 0
DWIDTH 16 0
BBX 16 18 0 -2
BITMAP
0000
0100
0100
0200
7FFF
0400
0420
0820
1820
2820
4BFE
0820
0820
0820
0820
0820
0BFF
0000
ENDCHAR

STARTCHAR cns1_4764
ENCODING 18276
SWIDTH 854 0
DWIDTH 16 0
BBX 16 18 0 -2
BITMAP
0000
0080
0080
1FFC
0080
0080
0080
0080
7FFF
0080
0080
1FFC
0080
0080
0080
0080
7FFF
0000
ENDCHAR

STARTCHAR cns1_4765
ENCODING 18277
SWIDTH 854 0
DWIDTH 16 0
BBX 16 18 0 -2
BITMAP
0000
1000
10FE
1000
1000
7C00
11FF
1020
1020
1040
14FE
1802
6002
0002
0002
0004
0018
0000
ENDCHAR

STARTCHAR cns1_4766
ENCODING 18278
SWIDTH 854 0
DWIDTH 16 0
BBX 16 18 0 -2
BITMAP
0000
1000
11FE
1102
1102
1102
7D02
1102
11FE
1102
1100
1500
1900
6101
0101
0101
00FF
0000
ENDCHAR

STARTCHAR cns1_4767
ENCODING 18279
SWIDTH 854 0
DWIDTH 16 0
BBX 16 18 0 -2
BITMAP
0000
0000
08FE
0810
0810
0810
7E10
09FF
0810
0810
0810
0810
0E10
7010
0010
0010
0070
0000
ENDCHAR

STARTCHAR cns1_4768
ENCODING 18280
SWIDTH 854 0
DWIDTH 16 0
BBX 16 18 0 -2
BITMAP
0000
0000
3FFC
2004
2004
2FF4
2104
2204
23E4
2424
2524
28A4
2044
2082
4102
4602
0001
0000
ENDCHAR

STARTCHAR cns1_4769
ENCODING 18281
SWIDTH 854 0
DWIDTH 16 0
BBX 16 18 0 -2
BITMAP
0000
0400
07E0
0820
1840
2480
0320
023E
0442
1882
6144
0224
0018
0010
0020
00C0
0700
0000
ENDCHAR

STARTCHAR cns1_476A
ENCODING 18282
SWIDTH 854 0
DWIDTH 16 0
BBX 16 18 0 -2
BITMAP
0000
0080
7FFF
0080
0080
3FFE
0082
0082
3FFE
2080
2080
3FFF
0081
0141
0222
0C18
7007
0000
ENDCHAR

STARTCHAR cns1_476B
ENCODING 18283
SWIDTH 854 0
DWIDTH 16 0
BBX 16 18 0 -2
BITMAP
0000
0040
0080
3FFE
0140
0220
0410
0BEC
1003
2FFC
0200
0200
07F8
0408
0808
0008
0030
0000
ENDCHAR

STARTCHAR cns1_476C
ENCODING 18284
SWIDTH 854 0
DWIDTH 16 0
BBX 16 18 0 -2
BITMAP
0000
0080
0080
7FFF
0800
0800
0FFC
0000
0100
0200
7FFF
0210
0410
0BA0
0040
03B8
3C06
0000
ENDCHAR

STARTCHAR cns1_476D
ENCODING 18285
SWIDTH 854 0
DWIDTH 16 0
BBX 16 18 0 -2
BITMAP
0000
1000
1000
10FE
1010
7C10
2410
2410
45FF
4410
2810
1810
0810
1410
1210
2010
4010
0000
ENDCHAR

STARTCHAR cns1_476E
ENCODING 18286
SWIDTH 854 0
DWIDTH 16 0
BBX 16 18 0 -2
BITMAP
0000
1000
10FE
1002
7F02
2202
2202
2202
227E
2242
4440
2440
1840
0840
1441
2241
407F
0000
ENDCHAR

STARTCHAR cns1_476F
ENCODING 18287
SWIDTH 854 0
DWIDTH 16 0
BBX 16 18 0 -2
BITMAP
0000
1000
10FE
1002
1004
7E04
1218
1210
2210
23FF
2410
6410
1410
0810
1410
2210
4070
0000
ENDCHAR

STARTCHAR cns1_4770
ENCODING 18288
SWIDTH 854 0
DWIDTH 16 0
BBX 16 18 0 -2
BITMAP
0000
1010
1090
1090
1090
7C97
24F9
2791
2491
4491
4491
3493
0890
1490
1081
2081
40FF
0000
ENDCHAR

STARTCHAR cns1_4771
ENCODING 18289
SWIDTH 854 0
DWIDTH 16 0
BBX 16 18 0 -2
BITMAP
0000
1000
1000
107F
7F41
1241
1241
1241
2241
2241
2441
6441
1441
0841
0C7F
1241
6000
0000
ENDCHAR

STARTCHAR cns1_4772
ENCODING 18290
SWIDTH 854 0
DWIDTH 16 0
BBX 16 18 0 -2
BITMAP
0000
1020
1020
1020
107F
7E41
2241
2281
2211
4209
4209
3401
0801
1401
1201
2002
400C
0000
ENDCHAR

STARTCHAR cns1_4773
ENCODING 18291
SWIDTH 854 0
DWIDTH 16 0
BBX 16 18 0 -2
BITMAP
0000
0080
0080
7FFF
4001
4001
0FF8
0010
0020
0040
0080
7FFF
0080
0080
0080
0080
0380
0000
ENDCHAR

STARTCHAR cns1_4774
ENCODING 18292
SWIDTH 854 0
DWIDTH 16 0
BBX 16 18 0 -2
BITMAP
0000
0100
0100
7FFF
0200
0400
05FE
0804
1808
1810
2810
4FFF
0810
0810
0810
0810
0860
0000
ENDCHAR

STARTCHAR cns1_4775
ENCODING 18293
SWIDTH 854 0
DWIDTH 16 0
BBX 16 18 0 -2
BITMAP
0000
0080
0080
7FFF
4001
4001
0000
1FFC
0080
0080
0080
7FFF
0080
0080
0080
0080
0380
0000
ENDCHAR

STARTCHAR cns1_4776
ENCODING 18294
SWIDTH 854 0
DWIDTH 16 0
BBX 16 18 0 -2
BITMAP
0000
0080
0080
7FFF
4001
4021
0020
0020
7FFF
0020
0020
0820
0420
0220
0020
0020
00E0
0000
ENDCHAR

STARTCHAR cns1_4777
ENCODING 18295
SWIDTH 854 0
DWIDTH 16 0
BBX 16 18 0 -2
BITMAP
0000
0080
0080
7FFF
4001
4009
1FF0
0100
0100
0100
7FFF
0100
0100
0100
0102
0102
00FE
0000
ENDCHAR

STARTCHAR cns1_4778
ENCODING 18296
SWIDTH 854 0
DWIDTH 16 0
BBX 16 18 0 -2
BITMAP
0000
0080
0080
7FFF
4001
4101
0100
0200
7FFF
0408
0810
1C10
1320
00E0
0090
0308
3C04
0000
ENDCHAR

STARTCHAR cns1_4779
ENCODING 18297
SWIDTH 854 0
DWIDTH 16 0
BBX 16 18 0 -2
BITMAP
0000
0080
0080
7FFF
0080
0080
1FFC
0010
0010
0010
3FFE
0010
0810
0410
0210
0010
0070
0000
ENDCHAR

STARTCHAR cns1_477A
ENCODING 18298
SWIDTH 854 0
DWIDTH 16 0
BBX 16 18 0 -2
BITMAP
0000
0080
0080
0888
1084
6082
0380
0000
0080
0080
7FFF
0080
0140
0220
0410
180C
6003
0000
ENDCHAR

STARTCHAR cns1_477B
ENCODING 18299
SWIDTH 854 0
DWIDTH 16 0
BBX 16 18 0 -2
BITMAP
0000
1020
1020
1040
547F
5480
5500
54FC
5408
5410
5420
5440
5440
7C80
4481
0081
007F
0000
ENDCHAR

STARTCHAR cns1_477C
ENCODING 18300
SWIDTH 854 0
DWIDTH 16 0
BBX 16 18 0 -2
BITMAP
0000
0421
0421
0421
0421
0421
0421
3DEF
0421
0421
0421
0421
0421
0421
0821
1021
6021
0000
ENDCHAR

STARTCHAR cns1_477D
ENCODING 18301
SWIDTH 854 0
DWIDTH 16 0
BBX 16 18 0 -2
BITMAP
0000
1000
11FC
1104
7D04
5504
5504
5584
5544
5524
5524
5524
5504
5504
1105
1205
1407
0000
ENDCHAR

STARTCHAR cns1_477E
ENCODING 18302
SWIDTH 854 0
DWIDTH 16 0
BBX 16 18 0 -2
BITMAP
0000
0404
0208
0110
3FFE
0220
0220
0220
0220
7FFF
0220
0220
0420
0420
0820
1020
6020
0000
ENDCHAR

STARTCHAR cns1_4821
ENCODING 18465
SWIDTH 854 0
DWIDTH 16 0
BBX 16 18 0 -2
BITMAP
0000
0400
0800
1FFE
2040
0040
0040
1FFC
0840
0840
0840
0840
7FFF
0040
0040
0040
0040
0000
ENDCHAR

STARTCHAR cns1_4822
ENCODING 18466
SWIDTH 854 0
DWIDTH 16 0
BBX 16 18 0 -2
BITMAP
0000
0044
0042
0040
7FFF
0040
0040
0040
3F20
0820
0820
0810
0810
0B88
7C09
0005
0003
0000
ENDCHAR

STARTCHAR cns1_4823
ENCODING 18467
SWIDTH 854 0
DWIDTH 16 0
BBX 16 18 0 -2
BITMAP
0000
0010
7C10
0490
0490
0496
3CBA
20D2
2192
7C92
4492
0496
0490
0490
0481
0881
30FF
0000
ENDCHAR

STARTCHAR cns1_4824
ENCODING 18468
SWIDTH 854 0
DWIDTH 16 0
BBX 16 18 0 -2
BITMAP
0000
1010
1010
1010
55FF
5480
5480
5480
5480
5080
1080
1080
1080
1080
1080
1080
107F
0000
ENDCHAR

STARTCHAR cns1_4825
ENCODING 18469
SWIDTH 854 0
DWIDTH 16 0
BBX 16 18 0 -2
BITMAP
0000
1008
1008
1008
1008
55FF
5408
5008
5088
1048
1048
1008
1008
1008
1008
1008
1018
0000
ENDCHAR

STARTCHAR cns1_4826
ENCODING 18470
SWIDTH 854 0
DWIDTH 16 0
BBX 16 18 0 -2
BITMAP
0000
0050
0048
0040
7FFF
0040
0440
0444
0424
07A4
7C28
0428
0410
0828
1049
2185
4603
0000
ENDCHAR

STARTCHAR cns1_4827
ENCODING 18471
SWIDTH 854 0
DWIDTH 16 0
BBX 16 18 0 -2
BITMAP
0000
0090
0088
0080
3FFF
2080
2080
2084
2048
3F48
2050
2020
2020
2050
2188
4E05
4002
0000
ENDCHAR

STARTCHAR cns1_4828
ENCODING 18472
SWIDTH 854 0
DWIDTH 16 0
BBX 16 18 0 -2
BITMAP
0000
0088
0084
0080
3FFF
2080
2080
2084
2848
2448
2250
2020
2020
2050
4188
4E05
0002
0000
ENDCHAR

STARTCHAR cns1_4829
ENCODING 18473
SWIDTH 854 0
DWIDTH 16 0
BBX 16 18 0 -2
BITMAP
0000
0024
0022
0020
3FFF
2020
2022
2022
3F24
2124
2128
2110
2110
2628
2048
4185
4003
0000
ENDCHAR

STARTCHAR cns1_482A
ENCODING 18474
SWIDTH 854 0
DWIDTH 16 0
BBX 16 18 0 -2
BITMAP
0000
0800
0800
087F
7F41
0841
0841
0841
0941
0E41
1841
6841
0841
0841
087F
0841
1841
0000
ENDCHAR

STARTCHAR cns1_482B
ENCODING 18475
SWIDTH 854 0
DWIDTH 16 0
BBX 16 18 0 -2
BITMAP
0000
1000
1000
13FE
7C20
1020
1020
1420
1820
7020
1020
1020
1020
1020
1020
17FF
3000
0000
ENDCHAR

STARTCHAR cns1_482C
ENCODING 18476
SWIDTH 854 0
DWIDTH 16 0
BBX 16 18 0 -2
BITMAP
0000
0800
080E
09F0
0820
7C20
0820
0823
0CFC
1B20
6820
0820
0820
0820
0821
0821
183F
0000
ENDCHAR

STARTCHAR cns1_482D
ENCODING 18477
SWIDTH 854 0
DWIDTH 16 0
BBX 16 18 0 -2
BITMAP
0000
0440
0440
2440
2480
24FF
2544
2544
2644
2428
2628
3C10
6410
0428
0444
0482
0501
0000
ENDCHAR

STARTCHAR cns1_482E
ENCODING 18478
SWIDTH 854 0
DWIDTH 16 0
BBX 16 18 0 -2
BITMAP
0000
0000
3FFE
2002
2002
3FFE
2002
2002
3FFE
2082
0080
0080
7FFF
0080
0080
0080
0080
0000
ENDCHAR

STARTCHAR cns1_482F
ENCODING 18479
SWIDTH 854 0
DWIDTH 16 0
BBX 16 18 0 -2
BITMAP
0000
1000
101C
1FE0
1000
1000
1000
0FFE
0000
0000
0FF8
0808
0808
0FF8
0808
0808
0FF8
0000
ENDCHAR

STARTCHAR cns1_4830
ENCODING 18480
SWIDTH 854 0
DWIDTH 16 0
BBX 16 18 0 -2
BITMAP
0000
0400
0400
0FFF
1001
2001
4001
0FE1
0821
0821
0FE1
0821
0821
0FE1
0001
0002
000C
0000
ENDCHAR

STARTCHAR cns1_4831
ENCODING 18481
SWIDTH 854 0
DWIDTH 16 0
BBX 16 18 0 -2
BITMAP
0000
0800
083E
0822
0F22
7922
0922
093E
0922
0922
1122
1122
113E
1100
2101
2101
40FF
0000
ENDCHAR

STARTCHAR cns1_4832
ENCODING 18482
SWIDTH 854 0
DWIDTH 16 0
BBX 16 18 0 -2
BITMAP
0000
0220
0220
0220
3FFE
2222
2222
2222
2222
3FFE
2222
2222
2222
2222
2222
3FFE
2002
0000
ENDCHAR

STARTCHAR cns1_4833
ENCODING 18483
SWIDTH 854 0
DWIDTH 16 0
BBX 16 18 0 -2
BITMAP
0000
0100
0100
1FFC
1104
1104
1FFC
1104
1104
1FFC
0080
0084
0048
0030
01A1
0E19
7006
0000
ENDCHAR

STARTCHAR cns1_4834
ENCODING 18484
SWIDTH 854 0
DWIDTH 16 0
BBX 16 18 0 -2
BITMAP
0000
0100
0100
7FFF
0200
0400
07FC
0C04
1404
27FC
4404
0404
07FC
0404
0404
0404
040C
0000
ENDCHAR

STARTCHAR cns1_4835
ENCODING 18485
SWIDTH 854 0
DWIDTH 16 0
BBX 16 18 0 -2
BITMAP
0000
0800
09FF
0820
0820
7E40
0840
087E
1882
1C82
2A02
2802
4802
0802
0802
0804
0838
0000
ENDCHAR

STARTCHAR cns1_4836
ENCODING 18486
SWIDTH 854 0
DWIDTH 16 0
BBX 16 18 0 -2
BITMAP
0000
0410
0410
0410
0410
7F90
0418
0C14
1612
1511
2490
2410
4410
0410
0410
0410
0410
0000
ENDCHAR

STARTCHAR cns1_4837
ENCODING 18487
SWIDTH 854 0
DWIDTH 16 0
BBX 16 18 0 -2
BITMAP
0000
0080
0880
0880
0FFC
1080
2080
0080
7FFF
0080
01C0
02A0
02A0
0490
0888
1084
6083
0000
ENDCHAR

STARTCHAR cns1_4838
ENCODING 18488
SWIDTH 854 0
DWIDTH 16 0
BBX 16 18 0 -2
BITMAP
0000
0000
07F0
0410
0410
0810
0810
1010
600F
0080
0080
7FFF
01C0
02A0
0490
188C
6083
0000
ENDCHAR

STARTCHAR cns1_4839
ENCODING 18489
SWIDTH 854 0
DWIDTH 16 0
BBX 16 18 0 -2
BITMAP
0000
0040
0040
0080
00FF
7901
0222
0024
0020
0020
0020
0050
0048
7C88
0104
0202
0C01
0000
ENDCHAR

STARTCHAR cns1_483A
ENCODING 18490
SWIDTH 854 0
DWIDTH 16 0
BBX 16 18 0 -2
BITMAP
0000
0220
0220
0220
1220
1223
13A4
1228
1230
1220
1220
1220
1220
12A1
1721
783F
0000
0000
ENDCHAR

STARTCHAR cns1_483B
ENCODING 18491
SWIDTH 854 0
DWIDTH 16 0
BBX 16 18 0 -2
BITMAP
0000
0000
7FFF
0820
0820
0F20
1120
1120
2126
5138
0A20
0620
0420
0420
0820
1021
603F
0000
ENDCHAR

STARTCHAR cns1_483C
ENCODING 18492
SWIDTH 854 0
DWIDTH 16 0
BBX 16 18 0 -2
BITMAP
0000
0800
0FFE
1000
1FF8
2000
5FFC
0004
1FC4
0444
0484
04F4
0814
1015
1025
61C2
0002
0000
ENDCHAR

STARTCHAR cns1_483D
ENCODING 18493
SWIDTH 854 0
DWIDTH 16 0
BBX 16 18 0 -2
BITMAP
0000
2040
1040
0040
0080
4FFF
2084
0084
0104
1108
1288
1268
2010
2028
20C4
4302
4C02
0000
ENDCHAR

STARTCHAR cns1_483E
ENCODING 18494
SWIDTH 854 0
DWIDTH 16 0
BBX 16 18 0 -2
BITMAP
0000
2000
13FE
0020
0020
0020
4020
2020
07FF
1020
1020
1020
2020
2020
2020
4020
4020
0000
ENDCHAR

STARTCHAR cns1_483F
ENCODING 18495
SWIDTH 854 0
DWIDTH 16 0
BBX 16 18 0 -2
BITMAP
0000
2000
13FE
0020
0020
0020
4020
2020
07FF
1020
1020
1020
2020
2020
2020
4020
41C0
0000
ENDCHAR

STARTCHAR cns1_4840
ENCODING 18496
SWIDTH 854 0
DWIDTH 16 0
BBX 16 18 0 -2
BITMAP
0000
0000
2000
13FE
0020
0020
4020
2020
0020
0820
0820
0820
1020
1020
1020
2020
27FF
0000
ENDCHAR

STARTCHAR cns1_4841
ENCODING 18497
SWIDTH 854 0
DWIDTH 16 0
BBX 16 18 0 -2
BITMAP
0000
2010
1010
0110
0110
4110
211F
01F1
0711
1111
1112
1110
2110
2110
2101
4101
40FF
0000
ENDCHAR

STARTCHAR cns1_4842
ENCODING 18498
SWIDTH 854 0
DWIDTH 16 0
BBX 16 18 0 -2
BITMAP
0000
0020
1020
083F
0441
2041
1082
0182
0244
0824
0818
0808
1010
1020
1040
2180
2600
0000
ENDCHAR

STARTCHAR cns1_4843
ENCODING 18499
SWIDTH 854 0
DWIDTH 16 0
BBX 16 18 0 -2
BITMAP
0000
0020
2020
1020
0222
4222
2222
0222
0222
1222
1222
1222
2222
2222
2222
43FE
4202
0000
ENDCHAR

STARTCHAR cns1_4844
ENCODING 18500
SWIDTH 854 0
DWIDTH 16 0
BBX 16 18 0 -2
BITMAP
0000
2000
13FE
0000
0000
0000
47FF
2080
0080
1100
11FE
1002
2002
2002
2002
4004
4038
0000
ENDCHAR

STARTCHAR cns1_4845
ENCODING 18501
SWIDTH 854 0
DWIDTH 16 0
BBX 16 18 0 -2
BITMAP
0000
2000
17F8
0088
0088
4088
2088
0088
13E8
1088
1088
2088
2088
2088
4089
4089
008F
0000
ENDCHAR

STARTCHAR cns1_4846
ENCODING 18502
SWIDTH 854 0
DWIDTH 16 0
BBX 16 18 0 -2
BITMAP
0000
2080
1080
0080
03F8
4088
2088
0088
0088
1088
1088
1288
2188
2088
2149
4209
4407
0000
ENDCHAR

STARTCHAR cns1_4847
ENCODING 18503
SWIDTH 854 0
DWIDTH 16 0
BBX 16 18 0 -2
BITMAP
0000
2000
13F8
0208
0208
4208
2208
0308
1288
1248
1248
2208
2208
2408
4409
4809
100F
0000
ENDCHAR

STARTCHAR cns1_4848
ENCODING 18504
SWIDTH 854 0
DWIDTH 16 0
BBX 16 18 0 -2
BITMAP
0000
0400
0400
0400
3FFF
0800
0800
0840
0A44
0A48
0C40
0840
08A0
0890
1108
1204
2C02
0000
ENDCHAR

STARTCHAR cns1_4849
ENCODING 18505
SWIDTH 854 0
DWIDTH 16 0
BBX 16 18 0 -2
BITMAP
0000
0100
0210
0408
083C
3FC2
0002
0480
0880
1FFC
2080
0080
0080
7FFF
0080
0080
0080
0000
ENDCHAR

STARTCHAR cns1_484A
ENCODING 18506
SWIDTH 854 0
DWIDTH 16 0
BBX 16 18 0 -2
BITMAP
0000
0420
0420
2420
2420
2422
3F2C
4430
4420
4420
0720
1C20
6420
0421
0421
0421
043F
0000
ENDCHAR

ENDFONT
